<?xml version="1.0" encoding="UTF-8" standalone="no"?>
<svg
   xmlns:dc="http://purl.org/dc/elements/1.1/"
   xmlns:cc="http://creativecommons.org/ns#"
   xmlns:rdf="http://www.w3.org/1999/02/22-rdf-syntax-ns#"
   xmlns:svg="http://www.w3.org/2000/svg"
   xmlns="http://www.w3.org/2000/svg"
   xmlns:sodipodi="http://sodipodi.sourceforge.net/DTD/sodipodi-0.dtd"
   xmlns:inkscape="http://www.inkscape.org/namespaces/inkscape"
   width="28.60277mm"
   height="28.607597mm"
   viewBox="0 0 28.60277 28.607597"
   version="1.1"
   id="svg843"
   inkscape:version="1.0.1 (3bc2e813f5, 2020-09-07)"
   sodipodi:docname="should-I-hire-a-web-developer-north-carolina.svg">
  <defs
     id="defs837" />
  <sodipodi:namedview
     id="base"
     pagecolor="#ffffff"
     bordercolor="#666666"
     borderopacity="1.0"
     inkscape:pageopacity="0.0"
     inkscape:pageshadow="2"
     inkscape:zoom="0.35"
     inkscape:cx="71.195234"
     inkscape:cy="62.633033"
     inkscape:document-units="mm"
     inkscape:current-layer="layer1"
     inkscape:document-rotation="0"
     showgrid="false"
     inkscape:window-width="1346"
     inkscape:window-height="1009"
     inkscape:window-x="104"
     inkscape:window-y="0"
     inkscape:window-maximized="0" />
  <metadata
     id="metadata840">
    <rdf:RDF>
      <cc:Work
         rdf:about="">
        <dc:format>image/svg+xml</dc:format>
        <dc:type
           rdf:resource="http://purl.org/dc/dcmitype/StillImage" />
        <dc:title></dc:title>
      </cc:Work>
    </rdf:RDF>
  </metadata>
  <g
     inkscape:label="Layer 1"
     inkscape:groupmode="layer"
     id="layer1"
     transform="translate(-86.996261,-131.59501)">
    <path
       d="m 115.20999,156.32811 -5.57012,-5.57011 c -0.25141,-0.25141 -0.59221,-0.39109 -0.94977,-0.39109 h -0.91066 c 1.54198,-1.97216 2.45823,-4.45274 2.45823,-7.1512 0,-6.41932 -5.20138,-11.6207 -11.620705,-11.6207 -6.419321,0 -11.620704,5.20138 -11.620704,11.6207 0,6.41932 5.201383,11.62071 11.620704,11.62071 2.698465,0 5.179035,-0.91625 7.151205,-2.45823 v 0.91066 c 0,0.35756 0.13967,0.69836 0.39108,0.94977 l 5.57011,5.57011 c 0.52517,0.52517 1.37438,0.52517 1.89395,0 l 1.58109,-1.58108 c 0.52517,-0.52517 0.52517,-1.37437 0.006,-1.89954 z m -16.593025,-5.9612 c -3.949923,0 -7.151204,-3.19569 -7.151204,-7.1512 0,-3.94992 3.195693,-7.1512 7.151204,-7.1512 3.949915,0 7.151205,3.19569 7.151205,7.1512 0,3.94992 -3.1957,7.1512 -7.151205,7.1512 z"
       id="path835"
       style="stroke-width:0.0558689" />
  </g>
</svg>
