<?xml version="1.0" standalone="no"?>
<!DOCTYPE svg PUBLIC "-//W3C//DTD SVG 1.1//EN" "http://www.w3.org/Graphics/SVG/1.1/DTD/svg11.dtd" >
<svg xmlns="http://www.w3.org/2000/svg">
<metadata></metadata>
<defs>
<font id="software_tester_7regular" horiz-adv-x="1200" >
<font-face units-per-em="2048" ascent="1638" descent="-410" />
<missing-glyph horiz-adv-x="500" />
<glyph horiz-adv-x="0" />
<glyph horiz-adv-x="682" />
<glyph unicode=" " />
<glyph unicode="!" d="M0 0v100h100v-100h-100zM0 300v800h100v-800h-100z" />
<glyph unicode="&#x22;" d="M300 700v400h100v-400h-100zM700 700v400h100v-400h-100z" />
<glyph unicode="#" d="M0 300v100h300v300h-300v100h300v300h100v-300h300v300h100v-300h300v-100h-300v-300h300v-100h-300v-300h-100v300h-300v-300h-100v300h-300zM400 400h300v300h-300v-300z" />
<glyph unicode="$" d="M0 0v100h500v400h-200q-300 0 -300 300t300 300h200v200h100v-200h500v-100h-500v-400h200q300 0 300 -300t-300 -300h-200v-200h-100v200h-500zM100 800q0 -200 200 -200h200v400h-200q-200 0 -200 -200zM600 100h200q200 0 200 200t-200 200h-200v-400z" />
<glyph unicode="%" d="M0 0v70l1030 1030h70v-70l-1030 -1030h-70zM0 800q0 -100 100 -100h200q100 0 100 100v200q0 100 -100 100h-200q-100 0 -100 -100v-200zM100 858v94q0 48 41 48h108q51 0 51 -40v-120q0 -40 -45 -40h-108q-47 0 -47 58zM700 100q0 -100 100 -100h200q100 0 100 100v200 q0 100 -100 100h-200q-100 0 -100 -100v-200zM800 158v94q0 48 41 48h108q51 0 51 -40v-120q0 -40 -45 -40h-108q-47 0 -47 58z" />
<glyph unicode="&#x26;" d="M0 300q1 200 149 250q-148 50 -149 250q0 300 300 300h300q300 0 300 -300q0 -135 -68 -200h168v-100h-165q65 -68 65 -200q0 -127 -54 -200h254v-100h-800q-300 0 -300 300zM100 300q0 -200 200 -200h300q200 0 200 200t-200 200h-300q-200 0 -200 -200zM100 800 q0 -200 200 -200h300q200 0 200 200t-200 200h-300q-200 0 -200 -200z" />
<glyph unicode="'" d="M500 700v400h100v-400h-100z" />
<glyph unicode="(" d="M500 300v500q0 300 300 300h300v-100h-300q-200 0 -200 -200v-500q0 -200 200 -200h300v-100h-300q-300 0 -300 300z" />
<glyph unicode=")" d="M0 0v100h300q200 0 200 200v500q0 200 -200 200h-300v100h300q300 0 300 -300v-500q0 -300 -300 -300h-300z" />
<glyph unicode="*" d="M100 500v100h364l-182 315l86 50l182 -315l182 315l86 -50l-182 -315h364v-100h-364l182 -315l-86 -50l-182 315l-182 -315l-86 50l182 315h-364z" />
<glyph unicode="+" d="M100 500v100h400v400h100v-400h400v-100h-400v-400h-100v400h-400z" />
<glyph unicode="," d="M0 200v100h100v-78q67 -89 0 -222q0 144 -100 200z" />
<glyph unicode="-" d="M100 500v100h900v-100h-900z" />
<glyph unicode="." d="M0 0v100h100v-100h-100z" />
<glyph unicode="/" d="M0 0v70l1030 1030h70v-70l-1030 -1030h-70z" />
<glyph unicode="0" d="M0 300v500q0 300 300 300h500q300 0 300 -300v-500q0 -300 -300 -300h-500q-300 0 -300 300zM100 300q0 -64 20 -107l787 787q-43 20 -107 20h-500q-200 0 -200 -200v-500zM177 129q47 -29 123 -29h500q200 0 200 200v500q0 77 -30 124z" />
<glyph unicode="1" d="M0 0v100h500v800h-500v100h500v100h100v-1000h500v-100h-1100z" />
<glyph unicode="2" d="M0 0v300q0 300 300 300h500q200 0 200 200t-200 200h-800v100h800q300 0 300 -300t-300 -300h-500q-200 0 -200 -200v-200h1000v-100h-1100z" />
<glyph unicode="3" d="M0 0v100h800q200 0 200 200t-200 200h-600v100h600q200 0 200 200t-200 200h-800v100h800q300 0 300 -300q0 -200 -141 -247q141 -53 141 -253q0 -300 -300 -300h-800z" />
<glyph unicode="4" d="M0 400v700h100v-600h900v600h100v-1100h-100v400h-1000z" />
<glyph unicode="5" d="M0 0v100h800q200 0 200 200v100q0 200 -200 200h-800v500h1100v-100h-1000v-300h700q300 0 300 -300v-100q0 -300 -300 -300h-800z" />
<glyph unicode="6" d="M0 300v500q0 300 300 300h700v-100h-700q-200 0 -200 -200v-100h700q300 0 300 -300v-100q0 -300 -300 -300h-500q-300 0 -300 300zM100 300q0 -200 200 -200h500q200 0 200 200v100q0 200 -200 200h-700v-300z" />
<glyph unicode="7" d="M0 1000v100h1100v-1100h-100v1000h-1000z" />
<glyph unicode="8" d="M0 300q1 200 149 250q-148 50 -149 250q0 300 300 300h500q300 0 300 -300q0 -200 -150 -247q150 -53 150 -253q0 -300 -300 -300h-500q-300 0 -300 300zM100 300q0 -200 200 -200h500q200 0 200 200t-200 200h-500q-200 0 -200 -200zM100 800q0 -200 200 -200h500 q200 0 200 200t-200 200h-500q-200 0 -200 -200z" />
<glyph unicode="9" d="M0 700v100q0 300 300 300h500q300 0 300 -300v-500q0 -300 -300 -300h-700v100h700q200 0 200 200v100h-700q-300 0 -300 300zM100 700q0 -200 200 -200h700v300q0 200 -200 200h-500q-200 0 -200 -200v-100z" />
<glyph unicode=":" d="M500 300v100h100v-100h-100zM500 700v100h100v-100h-100z" />
<glyph unicode=";" d="M500 200v100h100v-78q67 -89 0 -222q0 144 -100 200zM500 700v100h100v-100h-100z" />
<glyph unicode="&#x3c;" d="M300 500v100l500 500v-144l-400 -406l400 -400v-150z" />
<glyph unicode="=" d="M100 300v100h900v-100h-900zM100 700v100h900v-100h-900z" />
<glyph unicode="&#x3e;" d="M300 0v150l400 400l-400 406v144l500 -500v-100z" />
<glyph unicode="?" d="M0 1000v100h800q300 0 300 -300t-300 -300h-200q-200 0 -200 -200h-100q0 300 300 300h200q200 0 200 200t-200 200h-800zM300 0v100h100v-100h-100z" />
<glyph unicode="@" d="M0 300v500q0 300 300 300h500q300 0 300 -300v-200q0 -300 -300 -300h-200q-300 0 -300 247q0 253 256 253h244v-400q200 0 200 200v200q0 200 -200 200h-500q-200 0 -200 -200v-500q0 -200 200 -200h800v-100h-800q-300 0 -300 300zM400 547q0 -147 200 -147h100v300 h-144q-156 0 -156 -153z" />
<glyph unicode="A" d="M0 0v800q0 300 300 300h500q300 0 300 -300v-800h-100v400h-900v-400h-100zM100 500h900v300q0 200 -200 200h-500q-200 0 -200 -200v-300z" />
<glyph unicode="B" d="M0 0v1100h800q300 0 300 -300q0 -200 -150 -247q150 -53 150 -253q0 -300 -300 -300h-800zM100 100h700q200 0 200 200t-200 200h-700v-400zM100 600h700q200 0 200 200t-200 200h-700v-400z" />
<glyph unicode="C" d="M0 300v500q0 300 300 300h800v-100h-800q-200 0 -200 -200v-500q0 -200 200 -200h800v-100h-800q-300 0 -300 300z" />
<glyph unicode="D" d="M0 0v1100h700q400 0 400 -400v-300q0 -400 -400 -400h-700zM100 100h600q300 0 300 300v300q0 300 -300 300h-600v-900z" />
<glyph unicode="E" d="M0 0v1100h1100v-100h-1000v-400h800v-100h-800v-400h1000v-100h-1100z" />
<glyph unicode="F" d="M0 0v1100h1100v-100h-1000v-400h800v-100h-800v-500h-100z" />
<glyph unicode="G" d="M0 300v500q0 300 300 300h800v-100h-800q-200 0 -200 -200v-500q0 -200 200 -200h700v400h-300v100h400v-600h-800q-300 0 -300 300z" />
<glyph unicode="H" d="M0 0v1100h100v-500h900v500h100v-1100h-100v500h-900v-500h-100z" />
<glyph unicode="I" d="M0 0v100h500v900h-500v100h1100v-100h-500v-900h500v-100h-1100z" />
<glyph unicode="J" d="M0 300h100q0 -200 200 -200h500q200 0 200 200v700h-1000v100h900h200v-300v-500q0 -300 -300 -300h-500q-300 0 -300 300z" />
<glyph unicode="K" d="M0 0v1100h100v-700l1000 700v-120l-500 -351l500 -494v-135l-580 564l-420 -284v-280h-100z" />
<glyph unicode="L" d="M0 0v1100h100v-1000h1000v-100h-1100z" />
<glyph unicode="M" d="M0 0v1100h100l450 -600l450 600h100v-1100h-100v936l-445 -597l-455 600v-939h-100z" />
<glyph unicode="N" d="M0 0v1100h100l900 -950v950h100v-1100h-100l-900 950v-950h-100z" />
<glyph unicode="O" d="M0 300v500q0 300 300 300h500q300 0 300 -300v-500q0 -300 -300 -300h-500q-300 0 -300 300zM100 300q0 -200 200 -200h500q200 0 200 200v500q0 200 -200 200h-500q-200 0 -200 -200v-500z" />
<glyph unicode="P" d="M0 0v1100h800q300 0 300 -300v-100q0 -300 -300 -300h-700v-400h-100zM100 500h700q200 0 200 200v100q0 200 -200 200h-700v-500z" />
<glyph unicode="Q" d="M0 300v500q0 300 300 300h500q300 0 300 -300v-800h-800q-300 0 -300 300zM100 300q0 -200 200 -200h600v100h100v600q0 200 -200 200h-500q-200 0 -200 -200v-500z" />
<glyph unicode="R" d="M0 0v1100h800q300 0 300 -300v-100q0 -300 -300 -300h-231l531 -400h-162l-538 400h-300v-400h-100zM100 500h700q200 0 200 200v100q0 200 -200 200h-700v-500z" />
<glyph unicode="S" d="M0 0v100h800q200 0 200 200t-200 200h-500q-300 0 -300 300t300 300h800v-100h-800q-200 0 -200 -200t200 -200h500q300 0 300 -300t-300 -300h-800z" />
<glyph unicode="T" d="M0 1000v100h1100v-100h-500v-1000h-100v1000h-500z" />
<glyph unicode="U" d="M0 300v800h100v-800q0 -200 200 -200h500q200 0 200 200v800h100v-800q0 -300 -300 -300h-500q-300 0 -300 300z" />
<glyph unicode="V" d="M0 558v542h101l-1 -500l447 -450l453 450v500h100v-554l-550 -546z" />
<glyph unicode="W" d="M0 300v800h100v-800q0 -200 200 -200t200 200v600h100v-600q0 -200 200 -200t200 200v800h100v-800q0 -300 -300 -300q-200 0 -247 141q-53 -141 -253 -141q-300 0 -300 300z" />
<glyph unicode="X" d="M0 0v70l480 480l-480 480v70h70l480 -480l480 480h70v-70l-480 -480l480 -480v-70h-70l-480 480l-480 -480h-70z" />
<glyph unicode="Y" d="M0 600v500h100v-500q0 -200 200 -200h700v700h100v-800q0 -300 -300 -300h-700v100h700q200 0 200 200h-700q-300 0 -300 300z" />
<glyph unicode="Z" d="M0 0v100l960 900h-960v100h1100v-100l-960 -900h960v-100h-1100z" />
<glyph unicode="[" d="M500 0v1100h600v-100h-500v-900h500v-100h-600z" />
<glyph unicode="\" d="M0 1030v70h70l1030 -1030v-70h-70z" />
<glyph unicode="]" d="M0 0v100h500v900h-500v100h600v-1100h-600z" />
<glyph unicode="^" d="M0 600l500 500h100l500 -500h-144l-406 400l-400 -400h-150z" />
<glyph unicode="_" d="M0 0v100h1100v-100h-1100z" />
<glyph unicode="`" d="M0 1100h100l200 -400h-100z" />
<glyph unicode="a" d="M0 252q0 248 300 248h700q0 200 -200 200h-700v100h700q300 0 300 -300v-248v-252h-300h-500q-300 0 -300 252zM100 252q0 -152 200 -152h500h200v152v148h-700q-200 0 -200 -148z" />
<glyph unicode="b" d="M0 0v1100h100v-300h700q300 0 300 -300v-200q0 -300 -300 -300h-800zM100 100h700q200 0 200 227v173q0 200 -200 200h-700v-600z" />
<glyph unicode="c" d="M0 300v200q0 300 300 300h800v-100h-800q-200 0 -200 -200v-200q0 -200 200 -200h800v-100h-800q-300 0 -300 300z" />
<glyph unicode="d" d="M0 300v200q0 300 300 300h700v300h100v-1100h-800q-300 0 -300 300zM100 327q0 -227 200 -227h700v600h-700q-200 0 -200 -200v-173z" />
<glyph unicode="e" d="M0 300v248q0 252 300 252h500q300 0 300 -252v-248h-300h-700q0 -200 200 -200h700v-100h-700q-300 0 -300 300zM100 400h700h200v148q0 152 -200 152h-500q-200 0 -200 -152v-148z" />
<glyph unicode="f" d="M0 700v100h200q0 300 300 300h600v-100h-600q-200 0 -200 -200h400v-100h-400v-700h-100v700h-200z" />
<glyph unicode="g" d="M0 300v200q0 300 300 300h800v-800q0 -300 -300 -300h-600v100h600q200 0 200 200h-700q-300 0 -300 300zM100 300q0 -200 200 -200h700v600h-700q-200 0 -200 -200v-200z" />
<glyph unicode="h" d="M0 0v800v300h100v-300h700q300 0 300 -300v-500h-100v500q0 200 -200 200h-700v-700h-100z" />
<glyph unicode="i" d="M0 0v100h500v600h-500v100h1100v-100h-500v-600h500v-100h-1100zM500 1000v100h100v-100h-100z" />
<glyph unicode="j" d="M100 -200h700q200 0 200 200v700h-600v100h700v-800q0 -300 -300 -300h-700v100zM700 1000v100h100v-100h-100z" />
<glyph unicode="k" d="M0 0v1100h100v-800l1000 500v-120l-547 -280l547 -280v-120l-653 351l-347 -171v-180h-100z" />
<glyph unicode="l" d="M0 0v100h500v900h-500v100h600v-1000h500v-100h-1100z" />
<glyph unicode="m" d="M0 0v800h100v-54q73 54 200 54q200 0 253 -141q47 141 247 141q300 0 300 -300v-500h-100v500q0 200 -200 200t-200 -200v-500h-100v500q0 200 -200 200t-200 -200v-500h-100z" />
<glyph unicode="n" d="M0 0v800h100v-54q73 54 200 54h500q300 0 300 -300v-500h-100v500q0 200 -200 200h-500q-200 0 -200 -200v-500h-100z" />
<glyph unicode="o" d="M0 300v200q0 300 300 300h500q300 0 300 -300v-200q0 -300 -300 -300h-500q-300 0 -300 300zM100 300q0 -200 200 -200h500q200 0 200 200v200q0 200 -200 200h-500q-200 0 -200 -200v-200z" />
<glyph unicode="p" d="M0 -300v1100h800q300 0 300 -300v-200q0 -300 -300 -300h-700v-300h-100zM100 100h700q200 0 200 200v200q0 200 -200 200h-700v-600z" />
<glyph unicode="q" d="M0 300v200q0 300 300 300h800v-1100h-100v300h-700q-300 0 -300 300zM100 300q0 -200 200 -200h700v600h-700q-200 0 -200 -200v-200z" />
<glyph unicode="r" d="M0 0v800h100v-54q73 54 200 54h500q300 0 300 -300h-100q0 200 -200 200h-500q-200 0 -200 -200v-500h-100z" />
<glyph unicode="s" d="M0 0v100h800q200 0 200 128q0 116 -200 116h-500q-300 0 -300 226q0 230 300 230h800v-100h-800q-200 0 -200 -130q0 -126 200 -126h500q300 0 300 -216q0 -228 -300 -228h-800z" />
<glyph unicode="t" d="M0 700v100h200v300h100v-300h400v-100h-400v-400q0 -200 200 -200h600v-100h-600q-300 0 -300 300v400h-200z" />
<glyph unicode="u" d="M0 300v500h100v-500q0 -200 200 -200h500q200 0 200 200v500h100v-800h-100v54q-73 -54 -200 -54h-500q-300 0 -300 300z" />
<glyph unicode="v" d="M0 558v242h101l-1 -200l447 -450l453 450v200h100v-254l-550 -546z" />
<glyph unicode="w" d="M0 300v500h100v-500q0 -200 200 -200t200 200v300h100v-300q0 -200 200 -200t200 200v500h100v-500q0 -300 -300 -300q-200 0 -247 141q-53 -141 -253 -141q-300 0 -300 300z" />
<glyph unicode="x" d="M0 0v55l462 345l-462 345v54h70l480 -349l480 349h70v-54l-463 -345l463 -335v-65h-70l-480 349l-480 -349h-70z" />
<glyph unicode="y" d="M0 300v500h100v-500q0 -200 200 -200h700v700h100v-800q0 -300 -300 -300h-700v100h700q200 0 200 200h-700q-300 0 -300 300z" />
<glyph unicode="z" d="M0 0v100l930 600h-930v100h1100v-100l-932 -600h932v-100h-1100z" />
<glyph unicode="{" d="M400 553q200 147 200 247q0 300 300 300h200v-100h-200q-200 0 -200 -200q0 -113 -165 -249q165 -151 165 -251q0 -200 200 -200h200v-100h-200q-300 0 -300 300q0 100 -200 253z" />
<glyph unicode="|" d="M500 0v1100h100v-1100h-100z" />
<glyph unicode="}" d="M0 0v100h200q200 0 200 200q0 100 165 251q-165 136 -165 249q0 200 -200 200h-200v100h200q300 0 300 -300q0 -100 200 -247q-200 -153 -200 -253q0 -300 -300 -300h-200z" />
<glyph unicode="~" d="M100 400q200 300 400 200t400 100q-200 -300 -400 -200t-400 -100z" />
<glyph unicode="&#xa0;" />
<glyph unicode="&#xad;" d="M100 500v100h900v-100h-900z" />
<glyph unicode="&#x2000;" horiz-adv-x="682" />
<glyph unicode="&#x2001;" horiz-adv-x="1365" />
<glyph unicode="&#x2002;" horiz-adv-x="682" />
<glyph unicode="&#x2003;" horiz-adv-x="1365" />
<glyph unicode="&#x2004;" horiz-adv-x="455" />
<glyph unicode="&#x2005;" horiz-adv-x="341" />
<glyph unicode="&#x2006;" horiz-adv-x="227" />
<glyph unicode="&#x2007;" horiz-adv-x="227" />
<glyph unicode="&#x2008;" horiz-adv-x="170" />
<glyph unicode="&#x2009;" horiz-adv-x="273" />
<glyph unicode="&#x200a;" horiz-adv-x="75" />
<glyph unicode="&#x2010;" d="M100 500v100h900v-100h-900z" />
<glyph unicode="&#x2011;" d="M100 500v100h900v-100h-900z" />
<glyph unicode="&#x2012;" d="M100 500v100h900v-100h-900z" />
<glyph unicode="&#x2013;" horiz-adv-x="1324" d="M100 500v100h1024v-100h-1024z" />
<glyph unicode="&#x2014;" horiz-adv-x="2348" d="M100 500v100h2048v-100h-2048z" />
<glyph unicode="&#x202f;" horiz-adv-x="273" />
<glyph unicode="&#x205f;" horiz-adv-x="341" />
<glyph unicode="&#x25fc;" horiz-adv-x="800" d="M0 0v800h800v-800h-800z" />
</font>
</defs>
</svg>
