<?xml version="1.0" encoding="UTF-8" standalone="no"?>
<!-- Created with Inkscape (http://www.inkscape.org/) -->

<svg
   xmlns:dc="http://purl.org/dc/elements/1.1/"
   xmlns:cc="http://creativecommons.org/ns#"
   xmlns:rdf="http://www.w3.org/1999/02/22-rdf-syntax-ns#"
   xmlns:svg="http://www.w3.org/2000/svg"
   xmlns="http://www.w3.org/2000/svg"
   xmlns:sodipodi="http://sodipodi.sourceforge.net/DTD/sodipodi-0.dtd"
   xmlns:inkscape="http://www.inkscape.org/namespaces/inkscape"
   width="305.40317mm"
   height="213.53116mm"
   viewBox="0 0 305.40317 213.53116"
   version="1.1"
   id="svg2096"
   inkscape:version="0.92.4 (5da689c313, 2019-01-14)">
  <defs
     id="defs2090" />
  <sodipodi:namedview
     id="base"
     pagecolor="#ffffff"
     bordercolor="#666666"
     borderopacity="1.0"
     inkscape:pageopacity="0.0"
     inkscape:pageshadow="2"
     inkscape:zoom="0.24748737"
     inkscape:cx="649.6266"
     inkscape:cy="421.15055"
     inkscape:document-units="mm"
     inkscape:current-layer="layer1"
     showgrid="false" />
  <metadata
     id="metadata2093">
    <rdf:RDF>
      <cc:Work
         rdf:about="">
        <dc:format>image/svg+xml</dc:format>
        <dc:type
           rdf:resource="http://purl.org/dc/dcmitype/StillImage" />
        <dc:title></dc:title>
      </cc:Work>
    </rdf:RDF>
  </metadata>
  <g
     inkscape:label="Layer 1"
     inkscape:groupmode="layer"
     id="layer1"
     transform="translate(178.35947,-101.50093)">
    <g
       transform="translate(1066.5552,-31.580061)"
       id="g2770">
      <g
         transform="translate(-201.08333,2.2678702)"
         id="g2706">
        <path
           inkscape:connector-curvature="0"
           id="path2698"
           d="m -1040.2448,134.85344 298.23007,35.61327 v 116.79875 l -298.23007,52.80151 z"
           style="font-style:normal;font-variant:normal;font-weight:normal;font-stretch:normal;font-size:2.82222223px;line-height:1em;font-family:NordiquePro-Bold;-inkscape-font-specification:'NordiquePro-Bold, Normal';font-variant-ligatures:normal;font-variant-caps:normal;font-variant-numeric:normal;font-feature-settings:normal;text-align:start;letter-spacing:0px;word-spacing:0.0079375px;writing-mode:lr-tb;text-anchor:start;opacity:0.9;fill:#ffffff;fill-opacity:1;stroke:#000000;stroke-width:7.17308855;stroke-miterlimit:4;stroke-dasharray:none;stroke-opacity:1" />
        <path
           id="path2700"
           d="m -1017.502,166.80329 v 101.56766 l 27.16113,-4.11523 -0.017,0.0386 0.0345,-0.01 -0.0313,-0.0876 152.52961,-27.54869 0.0753,0.24972 h 0.005 l -0.0561,-0.18599 c 0,0 0.11608,0.0155 0.11988,0.0155 0.003,0 -0.003,-0.0193 -0.003,-0.0247 l 0.25982,-0.009 0.41444,-0.0147 h 0.47987 0.52406 0.67699 l 0.6113,0.0147 0.97538,-0.0147 1.59339,-0.0296 1.30979,0.0221 1.06979,-0.0104 a 43.04967,43.04967 0 0 1 -1.18058,-9.78539 43.04967,43.04967 0 0 1 19.56818,-36.0666 h -0.57263 l -3.34821,-0.14589 -3.80983,-0.17423 -0.005,0.004 z"
           style="font-style:normal;font-variant:normal;font-weight:normal;font-stretch:normal;font-size:2.82222223px;line-height:1em;font-family:NordiquePro-Bold;-inkscape-font-specification:'NordiquePro-Bold, Normal';font-variant-ligatures:normal;font-variant-caps:normal;font-variant-numeric:normal;font-feature-settings:normal;text-align:start;letter-spacing:0px;word-spacing:0.0079375px;writing-mode:lr-tb;text-anchor:start;opacity:1;fill:#304ffe;fill-opacity:1;stroke:none;stroke-width:0.1015765;stroke-miterlimit:4;stroke-dasharray:none;stroke-opacity:1"
           inkscape:connector-curvature="0" />
        <path
           style="font-style:normal;font-variant:normal;font-weight:normal;font-stretch:normal;font-size:2.82222223px;line-height:1em;font-family:NordiquePro-Bold;-inkscape-font-specification:'NordiquePro-Bold, Normal';font-variant-ligatures:normal;font-variant-caps:normal;font-variant-numeric:normal;font-feature-settings:normal;text-align:start;letter-spacing:0px;word-spacing:0.0079375px;writing-mode:lr-tb;text-anchor:start;opacity:1;fill:#c51162;fill-opacity:1;stroke:none;stroke-width:0.1015765;stroke-miterlimit:4;stroke-dasharray:none;stroke-opacity:1"
           d="m -1011.4321,201.62863 21.07749,62.57244 v 1.4e-4 0 l 6.42171,17.96491 151.49194,-27.66336 -5.38387,-17.85021 v -0.004 l -9.26989,-30.4085 z"
           id="path2702"
           inkscape:connector-curvature="0" />
        <circle
           style="opacity:1;fill:#aa00ff;fill-opacity:1;stroke-width:5.93258476;stroke-miterlimit:4;stroke-dasharray:none"
           id="circle2704"
           cx="-789.69751"
           cy="225.29575"
           r="35.279583" />
      </g>
      <g
         style="fill:#000000;fill-opacity:1"
         transform="matrix(5.2623368,0,0,5.2623368,-1277.0836,-581.245)"
         id="g2718">
        <path
           style="font-style:normal;font-variant:normal;font-weight:normal;font-stretch:normal;font-size:35.27777481px;line-height:1em;font-family:NordiquePro-Bold;-inkscape-font-specification:'NordiquePro-Bold, Normal';font-variant-ligatures:normal;font-variant-caps:normal;font-variant-numeric:normal;font-feature-settings:normal;text-align:start;letter-spacing:0px;word-spacing:0.0079375px;writing-mode:lr-tb;text-anchor:start;fill:#000000;fill-opacity:1"
           d="m 30.968508,160.33104 v 5.77918 h 1.029201 v -2.56796 h 2.473908 v 2.56796 h 1.029199 v -5.77918 h -1.029199 v 2.18202 h -2.473908 v -2.18202 z"
           id="path2708"
           inkscape:connector-curvature="0" />
        <path
           inkscape:connector-curvature="0"
           id="path2710"
           style="font-style:normal;font-variant:normal;font-weight:normal;font-stretch:normal;font-size:35.27777481px;line-height:1em;font-family:NordiquePro-Bold;-inkscape-font-specification:'NordiquePro-Bold, Normal';font-variant-ligatures:normal;font-variant-caps:normal;font-variant-numeric:normal;font-feature-settings:normal;text-align:start;letter-spacing:0px;word-spacing:0.0079375px;writing-mode:lr-tb;text-anchor:start;fill:#000000;fill-opacity:1"
           d="m 36.344772,163.06479 c -0.174165,0.31666 -0.261249,0.64916 -0.261249,1.01333 0,0.37208 0.08708,0.71249 0.269164,1.02124 0.182083,0.31667 0.427498,0.56208 0.744165,0.74416 0.308748,0.18209 0.649162,0.26917 1.029162,0.26917 0.411663,0 0.783746,-0.11083 1.12416,-0.34042 0.332499,-0.22166 0.585831,-0.52249 0.75208,-0.88666 l -1.227079,-0.008 c -0.08708,0.0712 -0.182082,0.12666 -0.284998,0.16624 -0.102916,0.0475 -0.237498,0.0633 -0.39583,0.0633 -0.2375,0 -0.435415,-0.0554 -0.593748,-0.16625 -0.158332,-0.11083 -0.261248,-0.26917 -0.308748,-0.46708 h 2.937068 c 0.02375,-0.15834 0.03167,-0.31667 0.03167,-0.49083 -0.01584,-0.39584 -0.118748,-0.74417 -0.32458,-1.045 -0.205834,-0.29291 -0.459166,-0.51458 -0.767914,-0.67291 -0.316665,-0.15833 -0.641247,-0.2375 -0.973744,-0.2375 -0.372082,0 -0.712496,0.095 -1.021246,0.285 -0.308748,0.19 -0.554163,0.43541 -0.728329,0.75208 z m 2.715402,0.58583 h -1.868323 c 0.07917,-0.19 0.205832,-0.34042 0.364165,-0.45125 0.158332,-0.11083 0.348332,-0.16625 0.569998,-0.16625 0.197914,0 0.379997,0.0633 0.554163,0.17417 0.174165,0.11083 0.300833,0.26125 0.379997,0.44333 z" />
        <path
           inkscape:connector-curvature="0"
           id="path2712"
           style="font-style:normal;font-variant:normal;font-weight:normal;font-stretch:normal;font-size:35.27777481px;line-height:1em;font-family:NordiquePro-Bold;-inkscape-font-specification:'NordiquePro-Bold, Normal';font-variant-ligatures:normal;font-variant-caps:normal;font-variant-numeric:normal;font-feature-settings:normal;text-align:start;letter-spacing:0px;word-spacing:0.0079375px;writing-mode:lr-tb;text-anchor:start;fill:#000000;fill-opacity:1"
           d="m 40.829172,166.10205 h 1.029161 v -5.54164 h -1.029161 z" />
        <path
           inkscape:connector-curvature="0"
           id="path2714"
           style="font-style:normal;font-variant:normal;font-weight:normal;font-stretch:normal;font-size:35.27777481px;line-height:1em;font-family:NordiquePro-Bold;-inkscape-font-specification:'NordiquePro-Bold, Normal';font-variant-ligatures:normal;font-variant-caps:normal;font-variant-numeric:normal;font-feature-settings:normal;text-align:start;letter-spacing:0px;word-spacing:0.0079375px;writing-mode:lr-tb;text-anchor:start;fill:#000000;fill-opacity:1"
           d="m 42.602373,166.10205 h 1.029161 v -5.54164 h -1.029161 z" />
        <path
           inkscape:connector-curvature="0"
           id="path2716"
           style="font-style:normal;font-variant:normal;font-weight:normal;font-stretch:normal;font-size:35.27777481px;line-height:1em;font-family:NordiquePro-Bold;-inkscape-font-specification:'NordiquePro-Bold, Normal';font-variant-ligatures:normal;font-variant-caps:normal;font-variant-numeric:normal;font-feature-settings:normal;text-align:start;letter-spacing:0px;word-spacing:0.0079375px;writing-mode:lr-tb;text-anchor:start;fill:#000000;fill-opacity:1"
           d="m 47.245104,162.30479 c -0.316665,-0.18208 -0.657079,-0.27708 -1.021245,-0.27708 -0.37208,0 -0.712496,0.095 -1.029161,0.27708 -0.316665,0.18208 -0.56208,0.4275 -0.744163,0.74416 -0.182083,0.31667 -0.269164,0.65708 -0.269164,1.02125 0,0.37208 0.08708,0.7125 0.269164,1.02916 0.182083,0.31667 0.427498,0.56208 0.744163,0.74416 0.316665,0.18209 0.657081,0.26917 1.029161,0.26917 0.364166,0 0.70458,-0.0871 1.021245,-0.26917 0.316667,-0.18208 0.562082,-0.42749 0.744165,-0.74416 0.18208,-0.31666 0.277081,-0.65708 0.277081,-1.02916 0,-0.36417 -0.095,-0.70458 -0.277081,-1.02125 -0.182083,-0.31666 -0.427498,-0.56208 -0.744165,-0.74416 z m -1.741658,1.02916 c 0.189999,-0.19791 0.435415,-0.30083 0.72833,-0.30083 0.284999,0 0.530414,0.10292 0.720414,0.30083 0.189998,0.19792 0.284999,0.44333 0.284999,0.73625 0,0.30083 -0.095,0.54625 -0.284999,0.74416 -0.19,0.19792 -0.435415,0.29292 -0.720414,0.29292 -0.292915,0 -0.538331,-0.095 -0.72833,-0.29292 -0.197915,-0.19791 -0.292914,-0.44333 -0.292914,-0.74416 0,-0.29292 0.095,-0.53833 0.292914,-0.73625 z" />
      </g>
      <path
         transform="translate(-201.08333,2.2678571)"
         id="path2720"
         style="font-style:normal;font-variant:normal;font-weight:normal;font-stretch:normal;font-size:35.27777481px;line-height:1em;font-family:NordiquePro-Bold;-inkscape-font-specification:'NordiquePro-Bold, Normal';font-variant-ligatures:normal;font-variant-caps:normal;font-variant-numeric:normal;font-feature-settings:normal;text-align:start;letter-spacing:0px;word-spacing:0.0079375px;writing-mode:lr-tb;text-anchor:start;fill:#64dd17;fill-opacity:1;stroke-width:1.62007725"
         d="m -902.94284,235.24904 h 5.22294 v 10.56626 c 0,3.29434 -0.8035,5.74504 -2.41057,7.39235 -1.60701,1.6472 -3.77657,2.45068 -6.42812,2.45068 -2.69183,0 -4.82109,-0.80348 -6.42815,-2.45068 -1.60701,-1.64731 -2.41055,-4.09801 -2.41055,-7.39235 v -10.56626 h 5.22286 v 10.56626 c 0,1.64723 0.28094,2.8525 0.84372,3.61579 0.56269,0.76349 1.48653,1.12489 2.77212,1.12489 1.24546,0 2.16953,-0.36109 2.73199,-1.12489 0.56269,-0.76349 0.88376,-1.96856 0.88376,-3.61579 z"
         inkscape:connector-curvature="0" />
      <path
         id="path2722"
         d="m -1095.5093,237.72514 v 20.08796 h 5.223 v -20.08796 z"
         style="font-style:normal;font-variant:normal;font-weight:normal;font-stretch:normal;font-size:35.27777481px;line-height:1em;font-family:NordiquePro-Bold;-inkscape-font-specification:'NordiquePro-Bold, Normal';font-variant-ligatures:normal;font-variant-caps:normal;font-variant-numeric:normal;font-feature-settings:normal;text-align:start;letter-spacing:0px;word-spacing:0.0079375px;writing-mode:lr-tb;text-anchor:start;fill:#64dd17;fill-opacity:1;stroke-width:1.62007725"
         inkscape:connector-curvature="0" />
      <path
         transform="translate(-201.08333,2.2678571)"
         id="path2724"
         style="font-style:normal;font-variant:normal;font-weight:normal;font-stretch:normal;font-size:35.27777481px;line-height:1em;font-family:NordiquePro-Bold;-inkscape-font-specification:'NordiquePro-Bold, Normal';font-variant-ligatures:normal;font-variant-caps:normal;font-variant-numeric:normal;font-feature-settings:normal;text-align:start;letter-spacing:0px;word-spacing:0.0079375px;writing-mode:lr-tb;text-anchor:start;fill:#000000;fill-opacity:1;stroke-width:1.62007725"
         d="m -883.46848,255.52517 h 5.2229 v -28.12311 h -5.2229 z"
         inkscape:connector-curvature="0" />
      <path
         transform="translate(-201.08333,2.2678571)"
         id="path2726"
         style="font-style:normal;font-variant:normal;font-weight:normal;font-stretch:normal;font-size:35.27777481px;line-height:1em;font-family:NordiquePro-Bold;-inkscape-font-specification:'NordiquePro-Bold, Normal';font-variant-ligatures:normal;font-variant-caps:normal;font-variant-numeric:normal;font-feature-settings:normal;text-align:start;letter-spacing:0px;word-spacing:0.0079375px;writing-mode:lr-tb;text-anchor:start;fill:#000000;fill-opacity:1;stroke-width:1.62007725"
         d="m -855.75789,250.62463 c 0.92404,-1.60707 1.40619,-3.33458 1.40619,-5.22288 v -18.07921 h -5.2631 v 9.24049 c -1.44634,-1.00436 -3.1337,-1.52672 -5.0621,-1.52672 -1.88832,0 -3.61584,0.48174 -5.18275,1.40618 -1.60706,0.92404 -2.85249,2.1695 -3.77648,3.77657 -0.96428,1.60698 -1.40618,3.33458 -1.40618,5.18269 0,1.8883 0.44207,3.61581 1.40618,5.22288 0.92399,1.60698 2.16942,2.85247 3.77648,3.77654 1.56691,0.92409 3.29443,1.36596 5.18275,1.36596 1.84811,0 3.57563,-0.44207 5.18269,-1.36596 1.56682,-0.92407 2.81225,-2.16956 3.73632,-3.77654 z m -12.61523,-8.95926 c 0.96423,-1.00438 2.1695,-1.52663 3.65598,-1.52663 1.44631,0 2.6918,0.52225 3.69616,1.52663 0.96428,1.00442 1.48653,2.24976 1.48653,3.73638 0,1.52663 -0.52225,2.77221 -1.48653,3.77648 -1.00436,1.00445 -2.24985,1.48656 -3.69616,1.48656 -1.48648,0 -2.69175,-0.48174 -3.65598,-1.48656 -0.9642,-1.00427 -1.44628,-2.24985 -1.44628,-3.77648 0,-1.48662 0.48171,-2.73196 1.44628,-3.73638 z"
         inkscape:connector-curvature="0" />
      <g
         transform="matrix(1.1388447,0,0,1.1388447,-1141.0657,146.23174)"
         id="g2730"
         style="font-style:normal;font-variant:normal;font-weight:normal;font-stretch:normal;font-size:35.27777481px;line-height:1em;font-family:NordiquePro-Bold;-inkscape-font-specification:'NordiquePro-Bold, Normal';font-variant-ligatures:normal;font-variant-caps:normal;font-variant-numeric:normal;font-feature-settings:normal;text-align:start;letter-spacing:0px;word-spacing:0.0079375px;writing-mode:lr-tb;text-anchor:start;fill:#000000;fill-opacity:1;stroke-width:0.31923482">
        <path
           inkscape:connector-curvature="0"
           id="path2728"
           d="M 0.06304166,72.28233 V 97.999624 H 9.2960738 c 2.8823972,0 5.1044742,-0.625699 6.6662562,-1.877405 1.561756,-1.251714 2.342489,-3.02596 2.342489,-5.322672 0,-1.745503 -0.476224,-3.198543 -1.429385,-4.358391 -0.941652,-1.171327 -2.268009,-1.940398 -3.979069,-2.307869 1.423961,-0.229671 2.503091,-0.809778 3.23805,-1.739945 0.734933,-0.930176 1.102757,-2.18156 1.102757,-3.75481 0,-2.032597 -0.717894,-3.600138 -2.153338,-4.702556 -1.43547,-1.102426 -3.47972,-1.653646 -6.1324593,-1.653646 z m 4.48963514,3.427699 h 4.1966356 c 1.3848556,0 2.4139786,0.262003 3.0876876,0.785998 0.683048,0.523994 1.024731,1.314603 1.024731,2.371949 0,1.066701 -0.341683,1.861906 -1.024731,2.3859 -0.673709,0.514638 -1.702832,0.772046 -3.0876876,0.772046 H 4.5526768 Z m 0.015002,10.26759 H 9.483637 c 1.648883,0 2.86811,0.338719 3.65715,1.016475 0.799148,0.667643 1.198377,1.7097 1.198377,3.125908 0,1.406096 -0.399229,2.453021 -1.198377,3.140893 -0.78904,0.677759 -2.008267,1.016476 -3.65715,1.016476 H 4.5676787 Z"
           style="fill:#000000;fill-opacity:1;stroke-width:0.31923482" />
      </g>
      <path
         style="opacity:1;fill:#64dd17;fill-opacity:1;stroke:#c2185b;stroke-width:0.51389533;stroke-miterlimit:4;stroke-dasharray:none;stroke-opacity:0"
         d="m -1092.8596,223.49557 c -1.4177,0 -2.6049,0.4975 -3.5245,1.45529 -0.9579,0.95778 -1.4181,2.14633 -1.4181,3.56392 0,1.45601 0.4602,2.64407 1.4181,3.6021 0.9196,0.95779 2.1068,1.41711 3.5245,1.41711 1.3794,0 2.5678,-0.45956 3.4874,-1.41711 0.9196,-0.95803 1.3788,-2.14609 1.3788,-3.6021 0,-1.41759 -0.4593,-2.60614 -1.3788,-3.56392 -0.9196,-0.95779 -2.108,-1.45529 -3.4874,-1.45529 z"
         id="path2732"
         inkscape:connector-curvature="0" />
    </g>
  </g>
</svg>
