<?xml version="1.0" encoding="UTF-8" standalone="no"?>
<!-- Created with Inkscape (http://www.inkscape.org/) -->

<svg
   xmlns:dc="http://purl.org/dc/elements/1.1/"
   xmlns:cc="http://creativecommons.org/ns#"
   xmlns:rdf="http://www.w3.org/1999/02/22-rdf-syntax-ns#"
   xmlns:svg="http://www.w3.org/2000/svg"
   xmlns="http://www.w3.org/2000/svg"
   xmlns:sodipodi="http://sodipodi.sourceforge.net/DTD/sodipodi-0.dtd"
   xmlns:inkscape="http://www.inkscape.org/namespaces/inkscape"
   width="210mm"
   height="297mm"
   viewBox="0 0 210 297"
   version="1.1"
   id="svg2096"
   inkscape:version="0.92.4 (5da689c313, 2019-01-14)">
  <defs
     id="defs2090" />
  <sodipodi:namedview
     id="base"
     pagecolor="#ffffff"
     bordercolor="#666666"
     borderopacity="1.0"
     inkscape:pageopacity="0.0"
     inkscape:pageshadow="2"
     inkscape:zoom="0.35"
     inkscape:cx="-94.285714"
     inkscape:cy="560"
     inkscape:document-units="mm"
     inkscape:current-layer="layer1"
     showgrid="false" />
  <metadata
     id="metadata2093">
    <rdf:RDF>
      <cc:Work
         rdf:about="">
        <dc:format>image/svg+xml</dc:format>
        <dc:type
           rdf:resource="http://purl.org/dc/dcmitype/StillImage" />
        <dc:title></dc:title>
      </cc:Work>
    </rdf:RDF>
  </metadata>
  <g
     inkscape:label="Layer 1"
     inkscape:groupmode="layer"
     id="layer1">
    <g
       transform="matrix(0.50722157,0,0,0.50722157,223.85453,431.07077)"
       id="g2064">
      <g
         transform="matrix(1.971525,0,0,1.971525,4212.1901,-2629.6699)"
         id="g2047">
        <g
           id="g2029"
           transform="matrix(15.044007,0,0,15.044007,-2749.3037,-1369.0445)"
           style="fill:#ececec;fill-opacity:1">
          <path
             inkscape:connector-curvature="0"
             id="path2019"
             d="m 30.968508,160.33104 v 5.77918 h 1.029201 v -2.56796 h 2.473908 v 2.56796 h 1.029199 v -5.77918 h -1.029199 v 2.18202 h -2.473908 v -2.18202 z"
             style="font-style:normal;font-variant:normal;font-weight:normal;font-stretch:normal;font-size:35.27777481px;line-height:1em;font-family:NordiquePro-Bold;-inkscape-font-specification:'NordiquePro-Bold, Normal';font-variant-ligatures:normal;font-variant-caps:normal;font-variant-numeric:normal;font-feature-settings:normal;text-align:start;letter-spacing:0px;word-spacing:0.0079375px;writing-mode:lr-tb;text-anchor:start;fill:#ececec;fill-opacity:1" />
          <path
             d="m 36.344772,163.06479 c -0.174165,0.31666 -0.261249,0.64916 -0.261249,1.01333 0,0.37208 0.08708,0.71249 0.269164,1.02124 0.182083,0.31667 0.427498,0.56208 0.744165,0.74416 0.308748,0.18209 0.649162,0.26917 1.029162,0.26917 0.411663,0 0.783746,-0.11083 1.12416,-0.34042 0.332499,-0.22166 0.585831,-0.52249 0.75208,-0.88666 l -1.227079,-0.008 c -0.08708,0.0712 -0.182082,0.12666 -0.284998,0.16624 -0.102916,0.0475 -0.237498,0.0633 -0.39583,0.0633 -0.2375,0 -0.435415,-0.0554 -0.593748,-0.16625 -0.158332,-0.11083 -0.261248,-0.26917 -0.308748,-0.46708 h 2.937068 c 0.02375,-0.15834 0.03167,-0.31667 0.03167,-0.49083 -0.01584,-0.39584 -0.118748,-0.74417 -0.32458,-1.045 -0.205834,-0.29291 -0.459166,-0.51458 -0.767914,-0.67291 -0.316665,-0.15833 -0.641247,-0.2375 -0.973744,-0.2375 -0.372082,0 -0.712496,0.095 -1.021246,0.285 -0.308748,0.19 -0.554163,0.43541 -0.728329,0.75208 z m 2.715402,0.58583 h -1.868323 c 0.07917,-0.19 0.205832,-0.34042 0.364165,-0.45125 0.158332,-0.11083 0.348332,-0.16625 0.569998,-0.16625 0.197914,0 0.379997,0.0633 0.554163,0.17417 0.174165,0.11083 0.300833,0.26125 0.379997,0.44333 z"
             style="font-style:normal;font-variant:normal;font-weight:normal;font-stretch:normal;font-size:35.27777481px;line-height:1em;font-family:NordiquePro-Bold;-inkscape-font-specification:'NordiquePro-Bold, Normal';font-variant-ligatures:normal;font-variant-caps:normal;font-variant-numeric:normal;font-feature-settings:normal;text-align:start;letter-spacing:0px;word-spacing:0.0079375px;writing-mode:lr-tb;text-anchor:start;fill:#ececec;fill-opacity:1"
             id="path2021"
             inkscape:connector-curvature="0" />
          <path
             d="m 40.829172,166.10205 h 1.029161 v -5.54164 h -1.029161 z"
             style="font-style:normal;font-variant:normal;font-weight:normal;font-stretch:normal;font-size:35.27777481px;line-height:1em;font-family:NordiquePro-Bold;-inkscape-font-specification:'NordiquePro-Bold, Normal';font-variant-ligatures:normal;font-variant-caps:normal;font-variant-numeric:normal;font-feature-settings:normal;text-align:start;letter-spacing:0px;word-spacing:0.0079375px;writing-mode:lr-tb;text-anchor:start;fill:#ececec;fill-opacity:1"
             id="path2023"
             inkscape:connector-curvature="0" />
          <path
             d="m 42.602373,166.10205 h 1.029161 v -5.54164 h -1.029161 z"
             style="font-style:normal;font-variant:normal;font-weight:normal;font-stretch:normal;font-size:35.27777481px;line-height:1em;font-family:NordiquePro-Bold;-inkscape-font-specification:'NordiquePro-Bold, Normal';font-variant-ligatures:normal;font-variant-caps:normal;font-variant-numeric:normal;font-feature-settings:normal;text-align:start;letter-spacing:0px;word-spacing:0.0079375px;writing-mode:lr-tb;text-anchor:start;fill:#ececec;fill-opacity:1"
             id="path2025"
             inkscape:connector-curvature="0" />
          <path
             d="m 47.245104,162.30479 c -0.316665,-0.18208 -0.657079,-0.27708 -1.021245,-0.27708 -0.37208,0 -0.712496,0.095 -1.029161,0.27708 -0.316665,0.18208 -0.56208,0.4275 -0.744163,0.74416 -0.182083,0.31667 -0.269164,0.65708 -0.269164,1.02125 0,0.37208 0.08708,0.7125 0.269164,1.02916 0.182083,0.31667 0.427498,0.56208 0.744163,0.74416 0.316665,0.18209 0.657081,0.26917 1.029161,0.26917 0.364166,0 0.70458,-0.0871 1.021245,-0.26917 0.316667,-0.18208 0.562082,-0.42749 0.744165,-0.74416 0.18208,-0.31666 0.277081,-0.65708 0.277081,-1.02916 0,-0.36417 -0.095,-0.70458 -0.277081,-1.02125 -0.182083,-0.31666 -0.427498,-0.56208 -0.744165,-0.74416 z m -1.741658,1.02916 c 0.189999,-0.19791 0.435415,-0.30083 0.72833,-0.30083 0.284999,0 0.530414,0.10292 0.720414,0.30083 0.189998,0.19792 0.284999,0.44333 0.284999,0.73625 0,0.30083 -0.095,0.54625 -0.284999,0.74416 -0.19,0.19792 -0.435415,0.29292 -0.720414,0.29292 -0.292915,0 -0.538331,-0.095 -0.72833,-0.29292 -0.197915,-0.19791 -0.292914,-0.44333 -0.292914,-0.74416 0,-0.29292 0.095,-0.53833 0.292914,-0.73625 z"
             style="font-style:normal;font-variant:normal;font-weight:normal;font-stretch:normal;font-size:35.27777481px;line-height:1em;font-family:NordiquePro-Bold;-inkscape-font-specification:'NordiquePro-Bold, Normal';font-variant-ligatures:normal;font-variant-caps:normal;font-variant-numeric:normal;font-feature-settings:normal;text-align:start;letter-spacing:0px;word-spacing:0.0079375px;writing-mode:lr-tb;text-anchor:start;fill:#ececec;fill-opacity:1"
             id="path2027"
             inkscape:connector-curvature="0" />
        </g>
        <g
           transform="translate(-187.6232,100.51275)"
           id="g2045">
          <path
             id="path2031"
             style="font-style:normal;font-variant:normal;font-weight:normal;font-stretch:normal;font-size:35.27777481px;line-height:1em;font-family:NordiquePro-Bold;-inkscape-font-specification:'NordiquePro-Bold, Normal';font-variant-ligatures:normal;font-variant-caps:normal;font-variant-numeric:normal;font-feature-settings:normal;text-align:start;letter-spacing:0px;word-spacing:0.0079375px;writing-mode:lr-tb;text-anchor:start;fill:#008000;fill-opacity:1;stroke-width:4.6314888"
             d="m -2265.1499,971.63803 h 14.9314 v 30.20687 c 0,9.4179 -2.2971,16.424 -6.8914,21.1333 -4.5941,4.7091 -10.7964,7.0061 -18.3767,7.0061 -7.6954,0 -13.7826,-2.297 -18.3769,-7.0061 -4.5941,-4.7093 -6.8913,-11.7154 -6.8913,-21.1333 v -30.20687 h 14.9312 v 30.20687 c 0,4.7091 0.8031,8.1548 2.412,10.3369 1.6086,2.1827 4.2497,3.2158 7.925,3.2158 3.5605,0 6.2023,-1.0323 7.8102,-3.2158 1.6086,-2.1827 2.5265,-5.6278 2.5265,-10.3369 z"
             inkscape:connector-curvature="0" />
          <path
             id="path2033"
             d="m -2240.8017,972.23334 v 57.42766 h 14.9313 v -57.42766 z"
             style="font-style:normal;font-variant:normal;font-weight:normal;font-stretch:normal;font-size:35.27777481px;line-height:1em;font-family:NordiquePro-Bold;-inkscape-font-specification:'NordiquePro-Bold, Normal';font-variant-ligatures:normal;font-variant-caps:normal;font-variant-numeric:normal;font-feature-settings:normal;text-align:start;letter-spacing:0px;word-spacing:0.0079375px;writing-mode:lr-tb;text-anchor:start;fill:#008000;fill-opacity:1;stroke-width:4.6314888"
             inkscape:connector-curvature="0" />
          <path
             id="path2035"
             style="font-style:normal;font-variant:normal;font-weight:normal;font-stretch:normal;font-size:35.27777481px;line-height:1em;font-family:NordiquePro-Bold;-inkscape-font-specification:'NordiquePro-Bold, Normal';font-variant-ligatures:normal;font-variant-caps:normal;font-variant-numeric:normal;font-feature-settings:normal;text-align:start;letter-spacing:0px;word-spacing:0.0079375px;writing-mode:lr-tb;text-anchor:start;fill:#ececec;fill-opacity:1;stroke-width:4.6314888"
             d="m -2209.4764,1029.6036 h 14.9312 v -80.39858 h -14.9312 z"
             inkscape:connector-curvature="0" />
          <path
             id="path2037"
             style="font-style:normal;font-variant:normal;font-weight:normal;font-stretch:normal;font-size:35.27777481px;line-height:1em;font-family:NordiquePro-Bold;-inkscape-font-specification:'NordiquePro-Bold, Normal';font-variant-ligatures:normal;font-variant-caps:normal;font-variant-numeric:normal;font-feature-settings:normal;text-align:start;letter-spacing:0px;word-spacing:0.0079375px;writing-mode:lr-tb;text-anchor:start;fill:#ececec;fill-opacity:1;stroke-width:4.6314888"
             d="m -2130.2572,1015.5939 c 2.6417,-4.5943 4.02,-9.5329 4.02,-14.9312 v -51.68501 h -15.0462 v 26.41678 c -4.1348,-2.87127 -8.9586,-4.3646 -14.4715,-4.3646 -5.3984,0 -10.337,1.3772 -14.8165,4.02 -4.5943,2.64165 -8.1547,6.20218 -10.7962,10.79649 -2.7567,4.59404 -4.02,9.53292 -4.02,14.81634 0,5.3983 1.2638,10.3369 4.02,14.9312 2.6415,4.594 6.2019,8.1546 10.7962,10.7964 4.4795,2.6418 9.4181,3.905 14.8165,3.905 5.2834,0 10.222,-1.2638 14.8163,-3.905 4.4792,-2.6418 8.0397,-6.2024 10.6814,-10.7964 z m -36.0645,-25.61282 c 2.7565,-2.87133 6.2022,-4.36434 10.4517,-4.36434 4.1348,0 7.6954,1.49301 10.5666,4.36434 2.7567,2.87144 4.2497,6.43163 4.2497,10.68162 0,4.3643 -1.493,7.9252 -4.2497,10.7962 -2.8712,2.8715 -6.4318,4.2498 -10.5666,4.2498 -4.2495,0 -7.6952,-1.3772 -10.4517,-4.2498 -2.7565,-2.871 -4.1346,-6.4319 -4.1346,-10.7962 0,-4.24999 1.3771,-7.81018 4.1346,-10.68162 z"
             inkscape:connector-curvature="0" />
          <g
             transform="matrix(3.2557377,0,0,3.2557377,-2371.0388,710.67134)"
             id="g2041"
             style="font-style:normal;font-variant:normal;font-weight:normal;font-stretch:normal;font-size:35.27777481px;line-height:1em;font-family:NordiquePro-Bold;-inkscape-font-specification:'NordiquePro-Bold, Normal';font-variant-ligatures:normal;font-variant-caps:normal;font-variant-numeric:normal;font-feature-settings:normal;text-align:start;letter-spacing:0px;word-spacing:0.0079375px;writing-mode:lr-tb;text-anchor:start;fill:#ececec;fill-opacity:1;stroke-width:0.31923482">
            <path
               inkscape:connector-curvature="0"
               id="path2039"
               d="M 0.06304166,72.28233 V 97.999624 H 9.2960738 c 2.8823972,0 5.1044742,-0.625699 6.6662562,-1.877405 1.561756,-1.251714 2.342489,-3.02596 2.342489,-5.322672 0,-1.745503 -0.476224,-3.198543 -1.429385,-4.358391 -0.941652,-1.171327 -2.268009,-1.940398 -3.979069,-2.307869 1.423961,-0.229671 2.503091,-0.809778 3.23805,-1.739945 0.734933,-0.930176 1.102757,-2.18156 1.102757,-3.75481 0,-2.032597 -0.717894,-3.600138 -2.153338,-4.702556 -1.43547,-1.102426 -3.47972,-1.653646 -6.1324593,-1.653646 z m 4.48963514,3.427699 h 4.1966356 c 1.3848556,0 2.4139786,0.262003 3.0876876,0.785998 0.683048,0.523994 1.024731,1.314603 1.024731,2.371949 0,1.066701 -0.341683,1.861906 -1.024731,2.3859 -0.673709,0.514638 -1.702832,0.772046 -3.0876876,0.772046 H 4.5526768 Z m 0.015002,10.26759 H 9.483637 c 1.648883,0 2.86811,0.338719 3.65715,1.016475 0.799148,0.667643 1.198377,1.7097 1.198377,3.125908 0,1.406096 -0.399229,2.453021 -1.198377,3.140893 -0.78904,0.677759 -2.008267,1.016476 -3.65715,1.016476 H 4.5676787 Z"
               style="fill:#ececec;fill-opacity:1;stroke-width:0.31923482" />
          </g>
          <path
             style="opacity:1;fill:#008000;fill-opacity:1;stroke:#c2185b;stroke-width:1.46912777;stroke-miterlimit:4;stroke-dasharray:none;stroke-opacity:0"
             d="m -2233.2268,931.55375 c -4.0529,0 -7.4469,1.42226 -10.0759,4.16039 -2.7384,2.73811 -4.0541,6.13595 -4.0541,10.18856 0,4.16246 1.3157,7.55889 4.0541,10.29771 2.629,2.73814 6.023,4.05125 10.0759,4.05125 3.9434,0 7.3408,-1.31379 9.9698,-4.05125 2.629,-2.73882 3.9417,-6.13525 3.9417,-10.29771 0,-4.05261 -1.313,-7.45045 -3.9417,-10.18856 -2.629,-2.73813 -6.0264,-4.16039 -9.9698,-4.16039 z"
             id="path2043"
             inkscape:connector-curvature="0" />
        </g>
      </g>
    </g>
  </g>
</svg>
