<?xml version="1.0" encoding="UTF-8" standalone="no"?>
<!-- Created with Inkscape (http://www.inkscape.org/) -->

<svg
   xmlns:dc="http://purl.org/dc/elements/1.1/"
   xmlns:cc="http://creativecommons.org/ns#"
   xmlns:rdf="http://www.w3.org/1999/02/22-rdf-syntax-ns#"
   xmlns:svg="http://www.w3.org/2000/svg"
   xmlns="http://www.w3.org/2000/svg"
   xmlns:sodipodi="http://sodipodi.sourceforge.net/DTD/sodipodi-0.dtd"
   xmlns:inkscape="http://www.inkscape.org/namespaces/inkscape"
   width="178.01012mm"
   height="90.079552mm"
   viewBox="0 0 178.01012 90.07955"
   version="1.1"
   id="svg20077"
   inkscape:version="0.92.4 (5da689c313, 2019-01-14)"
   sodipodi:docname="bh-logo-on-light-background-straight.svg"
   inkscape:export-filename="C:\Users\Methuselah\Dropbox\documents\build-hello-private\marketing material\logos-final-cut\bh-logo-on-light-background.png"
   inkscape:export-xdpi="96"
   inkscape:export-ydpi="96">
  <defs
     id="defs20071" />
  <sodipodi:namedview
     id="base"
     pagecolor="#ffffff"
     bordercolor="#666666"
     borderopacity="1.0"
     inkscape:pageopacity="0.0"
     inkscape:pageshadow="2"
     inkscape:zoom="0.70710678"
     inkscape:cx="577.54765"
     inkscape:cy="341.06401"
     inkscape:document-units="mm"
     inkscape:current-layer="g20931"
     showgrid="false"
     showguides="true"
     inkscape:guide-bbox="true"
     inkscape:snap-global="false"
     inkscape:object-nodes="true"
     inkscape:snap-smooth-nodes="true" />
  <metadata
     id="metadata20074">
    <rdf:RDF>
      <cc:Work
         rdf:about="">
        <dc:format>image/svg+xml</dc:format>
        <dc:type
           rdf:resource="http://purl.org/dc/dcmitype/StillImage" />
        <dc:title></dc:title>
      </cc:Work>
    </rdf:RDF>
  </metadata>
  <g
     inkscape:label="Layer 1"
     inkscape:groupmode="layer"
     id="layer1"
     transform="translate(-3.5425568,-122.38092)">
    <g
       transform="matrix(0.3115934,0,0,0.3115934,1399.0285,-847.83443)"
       id="g20931">
      <g
         id="g1013"
         transform="matrix(0.86367237,0,0,0.86367237,831.0777,621.54339)">
        <g
           id="g943"
           transform="matrix(-0.1449602,0.00365337,0.00365337,0.1449602,-5760.8266,2544.7372)">
          <g
             id="g1367"
             transform="translate(12.522445,3.8264058)">
            <path
               inkscape:connector-curvature="0"
               style="font-style:normal;font-variant:normal;font-weight:normal;font-stretch:normal;font-size:2.82222223px;line-height:1em;font-family:NordiquePro-Bold;-inkscape-font-specification:'NordiquePro-Bold, Normal';font-variant-ligatures:normal;font-variant-caps:normal;font-variant-numeric:normal;font-feature-settings:normal;text-align:start;letter-spacing:0px;word-spacing:0.0079375px;writing-mode:lr-tb;text-anchor:start;opacity:1;fill:#008000;fill-opacity:1;stroke:none;stroke-width:0.06034131;stroke-miterlimit:4;stroke-dasharray:none;stroke-opacity:1"
               d="m -1751.418,-270.90625 c 0,0.0529 -0.01,0.097 -0.01,0.14844 v 41.88867 c 1.504,-0.90003 3.1552,-1.98392 4.8183,-3.30274 4.6388,-3.67674 8.8103,-8.65139 9.2403,-14.74023 -0.01,-0.3887 -0.04,-0.92439 -0.1211,-1.55469 -0.3678,-1.70092 -0.797,-3.43584 -1.2715,-5.20703 -0.014,-0.021 -0.026,-0.0419 -0.039,-0.0625 -0.4785,-1.82058 -1.3402,-4.50676 -2.6289,-6.38086 -1.378,-2.32994 -3.706,-5.32272 -7.8144,-8.82812 -0.015,-0.0107 -0.032,-0.0224 -0.049,-0.0332 -0.4431,-0.43181 -1.0262,-0.96212 -1.705,-1.49804 l -0.2286,-0.22656 c -0.064,-0.0673 -0.1273,-0.13595 -0.1914,-0.20313 z"
               transform="matrix(-5.8539591,0.14753471,0.14753471,5.8539591,-8712.0937,4153.4584)"
               id="path16933-4-5-8" />
            <path
               inkscape:connector-curvature="0"
               style="font-style:normal;font-variant:normal;font-weight:normal;font-stretch:normal;font-size:2.82222223px;line-height:1em;font-family:NordiquePro-Bold;-inkscape-font-specification:'NordiquePro-Bold, Normal';font-variant-ligatures:normal;font-variant-caps:normal;font-variant-numeric:normal;font-feature-settings:normal;text-align:start;letter-spacing:0px;word-spacing:0.0079375px;writing-mode:lr-tb;text-anchor:start;opacity:1;fill:#008000;fill-opacity:1;stroke:none;stroke-width:0.06034131;stroke-miterlimit:4;stroke-dasharray:none;stroke-opacity:1"
               d="m -1735.6465,-239.23047 c -2.1768,3.72918 -5.237,6.7846 -8.2129,9.14258 -2.7475,2.17564 -5.4477,3.78809 -7.5683,4.92383 v 18.29297 c 4.782,-2.89869 11.8199,-8.22825 15.5976,-16.18555 0.4088,-1.22348 0.7389,-2.73748 0.8574,-4.57227 -0.01,-3.39132 -0.1827,-7.28664 -0.6601,-11.60156 z"
               transform="matrix(-5.8539591,0.14753471,0.14753471,5.8539591,-8712.0937,4153.4584)"
               id="path16939-8-5-2" />
            <path
               inkscape:connector-curvature="0"
               style="font-style:normal;font-variant:normal;font-weight:normal;font-stretch:normal;font-size:2.82222223px;line-height:1em;font-family:NordiquePro-Bold;-inkscape-font-specification:'NordiquePro-Bold, Normal';font-variant-ligatures:normal;font-variant-caps:normal;font-variant-numeric:normal;font-feature-settings:normal;text-align:start;letter-spacing:0px;word-spacing:0.0079375px;writing-mode:lr-tb;text-anchor:start;opacity:1;fill:#008000;fill-opacity:1;stroke:none;stroke-width:0.06034131;stroke-miterlimit:4;stroke-dasharray:none;stroke-opacity:1"
               d="m -1736.127,-215.15039 -0.01,0.002 c -5.1065,6.48718 -11.4667,10.47506 -15.2929,12.48242 v 21.16016 c 0.9188,-1.00878 1.9885,-2.30436 3.1816,-4 3.8379,-5.44709 8.6269,-14.66933 12.1191,-29.64453 z"
               transform="matrix(-5.8539591,0.14753471,0.14753471,5.8539591,-8712.0937,4153.4584)"
               id="path16943-5-1-7" />
            <path
               id="path931"
               d="m 1523.8544,2308.6048 c -0.01,0.31 -0.026,0.5687 -0.035,0.8703 l 6.1801,245.2146 c 8.6715,-5.4907 18.1777,-12.0793 27.7189,-20.045 26.6129,-22.2079 50.2987,-51.9447 51.9176,-87.6519 -0.1147,-2.274 -0.3708,-5.4055 -0.9383,-9.0833 -2.404,-9.9028 -5.1725,-19.9956 -8.2115,-30.2941 -0.083,-0.1212 -0.159,-0.2416 -0.2381,-0.3601 -3.0697,-10.587 -8.5104,-26.1847 -16.3308,-36.9655 -8.4106,-13.4361 -22.4801,-30.6121 -47.0478,-50.5265 -0.091,-0.061 -0.1917,-0.1261 -0.2911,-0.1873 -2.6576,-2.4623 -6.1492,-5.4808 -10.202,-8.5179 l -1.3716,-1.2925 c -0.3852,-0.3842 -0.7653,-0.777 -1.1505,-1.1608 z"
               style="font-style:normal;font-variant:normal;font-weight:normal;font-stretch:normal;font-size:2.82222223px;line-height:1em;font-family:NordiquePro-Bold;-inkscape-font-specification:'NordiquePro-Bold, Normal';font-variant-ligatures:normal;font-variant-caps:normal;font-variant-numeric:normal;font-feature-settings:normal;text-align:start;letter-spacing:0px;word-spacing:0.0079375px;writing-mode:lr-tb;text-anchor:start;opacity:1;fill:#008000;fill-opacity:1;stroke:none;stroke-width:0.35334772;stroke-miterlimit:4;stroke-dasharray:none;stroke-opacity:1"
               inkscape:connector-curvature="0" />
            <path
               id="path933"
               d="m 1618.5323,2491.765 c -12.1927,22.1517 -29.6562,40.4895 -46.7292,54.732 -15.7627,13.1415 -31.3317,22.9791 -43.578,29.9406 l 2.6988,107.0863 c 27.566,-17.6743 67.9793,-49.9117 88.9198,-97.0508 2.2126,-7.2225 3.9216,-16.1341 4.3446,-26.8924 -0.5401,-19.8516 -2.1401,-42.6289 -5.5758,-67.8176 z"
               style="font-style:normal;font-variant:normal;font-weight:normal;font-stretch:normal;font-size:2.82222223px;line-height:1em;font-family:NordiquePro-Bold;-inkscape-font-specification:'NordiquePro-Bold, Normal';font-variant-ligatures:normal;font-variant-caps:normal;font-variant-numeric:normal;font-feature-settings:normal;text-align:start;letter-spacing:0px;word-spacing:0.0079375px;writing-mode:lr-tb;text-anchor:start;opacity:1;fill:#008000;fill-opacity:1;stroke:none;stroke-width:0.35334772;stroke-miterlimit:4;stroke-dasharray:none;stroke-opacity:1"
               inkscape:connector-curvature="0" />
            <path
               id="path935"
               d="m 1614.3214,2632.9246 -0.045,0.012 c -28.9361,38.7291 -65.5801,63.0124 -87.6824,75.3279 l 3.1219,123.8707 c 5.2297,-6.0409 11.3005,-13.7831 18.0348,-23.8853 21.6632,-32.4533 48.3372,-87.1464 66.5711,-175.3258 z"
               style="font-style:normal;font-variant:normal;font-weight:normal;font-stretch:normal;font-size:2.82222223px;line-height:1em;font-family:NordiquePro-Bold;-inkscape-font-specification:'NordiquePro-Bold, Normal';font-variant-ligatures:normal;font-variant-caps:normal;font-variant-numeric:normal;font-feature-settings:normal;text-align:start;letter-spacing:0px;word-spacing:0.0079375px;writing-mode:lr-tb;text-anchor:start;opacity:1;fill:#008000;fill-opacity:1;stroke:none;stroke-width:0.35334772;stroke-miterlimit:4;stroke-dasharray:none;stroke-opacity:1"
               inkscape:connector-curvature="0" />
          </g>
        </g>
        <path
           inkscape:connector-curvature="0"
           id="path16949-7-7-2"
           d="m -5809.281,2934.8091 v 105.5014 h 18.7885 v -46.8793 h 45.1622 v 46.8793 h 18.7881 v -105.5014 h -18.7881 v 39.8339 h -45.1622 v -39.8339 z"
           style="font-style:normal;font-variant:normal;font-weight:normal;font-stretch:normal;font-size:35.27777481px;line-height:1em;font-family:NordiquePro-Bold;-inkscape-font-specification:'NordiquePro-Bold, Normal';font-variant-ligatures:normal;font-variant-caps:normal;font-variant-numeric:normal;font-feature-settings:normal;text-align:start;letter-spacing:0px;word-spacing:0.0079375px;writing-mode:lr-tb;text-anchor:start;fill:#000000;fill-opacity:1;stroke-width:5.82777309" />
        <path
           inkscape:connector-curvature="0"
           d="m -6014.7501,2967.2788 h 18.7877 v 38.0092 c 0,11.8505 -2.8901,20.6662 -8.6711,26.5919 -5.781,5.9254 -13.5851,8.8157 -23.1233,8.8157 -9.6832,0 -17.3427,-2.8903 -23.1237,-8.8157 -5.7806,-5.9257 -8.6711,-14.7414 -8.6711,-26.5919 v -38.0092 h 18.7877 v 38.0092 c 0,5.9254 1.0104,10.2612 3.0351,13.0067 2.0243,2.7465 5.3473,4.0466 9.972,4.0466 4.4802,0 7.804,-1.299 9.8274,-4.0466 2.0243,-2.7464 3.1793,-7.0813 3.1793,-13.0067 z"
           style="font-style:normal;font-variant:normal;font-weight:normal;font-stretch:normal;font-size:35.27777481px;line-height:1em;font-family:NordiquePro-Bold;-inkscape-font-specification:'NordiquePro-Bold, Normal';font-variant-ligatures:normal;font-variant-caps:normal;font-variant-numeric:normal;font-feature-settings:normal;text-align:start;letter-spacing:0px;word-spacing:0.0079375px;writing-mode:lr-tb;text-anchor:start;fill:#008000;fill-opacity:1;stroke-width:5.82777309"
           id="path16951-3-2-2" />
        <path
           inkscape:connector-curvature="0"
           style="font-style:normal;font-variant:normal;font-weight:normal;font-stretch:normal;font-size:35.27777481px;line-height:1em;font-family:NordiquePro-Bold;-inkscape-font-specification:'NordiquePro-Bold, Normal';font-variant-ligatures:normal;font-variant-caps:normal;font-variant-numeric:normal;font-feature-settings:normal;text-align:start;letter-spacing:0px;word-spacing:0.0079375px;writing-mode:lr-tb;text-anchor:start;fill:#008000;fill-opacity:1;stroke-width:5.82777309"
           d="m -5982.6657,2968.0279 v 72.2609 h 9.3941 9.3941 v -72.2609 z"
           id="path16953-0-2-9"
           sodipodi:nodetypes="cccccc" />
        <path
           inkscape:connector-curvature="0"
           d="m -5944.6969,3040.2165 h 18.7882 v -101.165 h -18.7882 z"
           style="font-style:normal;font-variant:normal;font-weight:normal;font-stretch:normal;font-size:35.27777481px;line-height:1em;font-family:NordiquePro-Bold;-inkscape-font-specification:'NordiquePro-Bold, Normal';font-variant-ligatures:normal;font-variant-caps:normal;font-variant-numeric:normal;font-feature-settings:normal;text-align:start;letter-spacing:0px;word-spacing:0.0079375px;writing-mode:lr-tb;text-anchor:start;fill:#000000;fill-opacity:1;stroke-width:5.82777309"
           id="path16955-8-8-0" />
        <path
           inkscape:connector-curvature="0"
           d="m -5845.0159,3022.5882 c 3.3242,-5.7809 5.0585,-11.9952 5.0585,-18.7879 v -65.0348 h -18.9323 v 33.2401 c -5.2027,-3.6129 -11.2729,-5.492 -18.2098,-5.492 -6.7923,0 -13.0067,1.7329 -18.6432,5.0584 -5.781,3.324 -10.2611,7.8042 -13.585,13.5851 -3.4689,5.7806 -5.0585,11.9952 -5.0585,18.6432 0,6.7927 1.5905,13.007 5.0585,18.7879 3.3239,5.7807 7.804,10.2609 13.585,13.5849 5.6365,3.3243 11.8509,4.9139 18.6432,4.9139 6.6481,0 12.8625,-1.5902 18.6435,-4.9139 5.636,-3.324 10.1162,-7.8042 13.4401,-13.5849 z m -45.3795,-32.2283 c 3.4685,-3.6132 7.804,-5.4917 13.1513,-5.4917 5.2027,0 9.6828,1.8785 13.2959,5.4917 3.4688,3.6129 5.3472,8.0929 5.3472,13.4404 0,5.4917 -1.8784,9.9722 -5.3472,13.5848 -3.6131,3.6133 -8.0932,5.3476 -13.2959,5.3476 -5.3473,0 -9.6828,-1.7329 -13.1513,-5.3476 -3.4684,-3.6126 -5.2027,-8.0931 -5.2027,-13.5848 0,-5.3475 1.733,-9.8275 5.2027,-13.4404 z"
           style="font-style:normal;font-variant:normal;font-weight:normal;font-stretch:normal;font-size:35.27777481px;line-height:1em;font-family:NordiquePro-Bold;-inkscape-font-specification:'NordiquePro-Bold, Normal';font-variant-ligatures:normal;font-variant-caps:normal;font-variant-numeric:normal;font-feature-settings:normal;text-align:start;letter-spacing:0px;word-spacing:0.0079375px;writing-mode:lr-tb;text-anchor:start;fill:#000000;fill-opacity:1;stroke-width:5.82777309"
           id="path16957-7-6-9" />
        <path
           d="m -5706.084,2985.0549 c -3.1797,5.781 -4.7689,11.8505 -4.7689,18.4988 0,6.7924 1.59,13.007 4.9135,18.6431 3.3238,5.781 7.804,10.2612 13.585,13.5852 5.6364,3.324 11.8504,4.9136 18.7877,4.9136 7.5149,0 14.3076,-2.0241 20.522,-6.2146 6.0697,-4.0463 10.6945,-9.5383 13.7296,-16.1863 l -22.4008,-0.1427 c -1.59,1.3018 -3.3242,2.3125 -5.2026,3.0348 -1.8789,0.8679 -4.336,1.1562 -7.2261,1.1562 -4.336,0 -7.949,-1.0106 -10.8396,-3.035 -2.89,-2.0242 -4.7689,-4.9136 -5.636,-8.5268 h 53.6173 c 0.4341,-2.8904 0.5766,-5.7807 0.5766,-8.9602 -0.2909,-7.2264 -2.1697,-13.5851 -5.9252,-19.0768 -3.7576,-5.3474 -8.3824,-9.3942 -14.0184,-12.2842 -5.781,-2.8906 -11.7066,-4.3358 -17.7764,-4.3358 -6.7928,0 -13.0067,1.733 -18.6431,5.2025 -5.6365,3.4688 -10.1166,7.949 -13.2963,13.7297 z m 49.5708,10.6945 h -34.107 c 1.4446,-3.4684 3.7577,-6.2146 6.6477,-8.2378 2.891,-2.0242 6.3594,-3.0348 10.4058,-3.0348 3.6131,0 6.9373,1.1562 10.1166,3.1795 3.1793,2.0242 5.4919,4.7691 6.9369,8.0931 z"
           style="font-style:normal;font-variant:normal;font-weight:normal;font-stretch:normal;font-size:35.27777481px;line-height:1em;font-family:NordiquePro-Bold;-inkscape-font-specification:'NordiquePro-Bold, Normal';font-variant-ligatures:normal;font-variant-caps:normal;font-variant-numeric:normal;font-feature-settings:normal;text-align:start;letter-spacing:0px;word-spacing:0.0079375px;writing-mode:lr-tb;text-anchor:start;fill:#000000;fill-opacity:1;stroke-width:5.82777309"
           id="path16959-8-8-3"
           inkscape:connector-curvature="0" />
        <path
           d="m -5624.2234,3040.5015 h 18.7878 v -101.165 h -18.7878 z"
           style="font-style:normal;font-variant:normal;font-weight:normal;font-stretch:normal;font-size:35.27777481px;line-height:1em;font-family:NordiquePro-Bold;-inkscape-font-specification:'NordiquePro-Bold, Normal';font-variant-ligatures:normal;font-variant-caps:normal;font-variant-numeric:normal;font-feature-settings:normal;text-align:start;letter-spacing:0px;word-spacing:0.0079375px;writing-mode:lr-tb;text-anchor:start;fill:#000000;fill-opacity:1;stroke-width:5.82777309"
           id="path16961-0-2-1"
           inkscape:connector-curvature="0" />
        <path
           d="m -5589.6639,3040.5015 h 18.7877 v -101.165 h -18.7877 z"
           style="font-style:normal;font-variant:normal;font-weight:normal;font-stretch:normal;font-size:35.27777481px;line-height:1em;font-family:NordiquePro-Bold;-inkscape-font-specification:'NordiquePro-Bold, Normal';font-variant-ligatures:normal;font-variant-caps:normal;font-variant-numeric:normal;font-feature-settings:normal;text-align:start;letter-spacing:0px;word-spacing:0.0079375px;writing-mode:lr-tb;text-anchor:start;fill:#000000;fill-opacity:1;stroke-width:5.82777309"
           id="path16963-1-8-7"
           inkscape:connector-curvature="0" />
        <path
           d="m -5504.9089,2971.1382 c -5.7806,-3.3237 -11.9949,-5.058 -18.6431,-5.058 -6.7923,0 -13.0071,1.7329 -18.7881,5.058 -5.7806,3.324 -10.2608,7.8042 -13.5846,13.5851 -3.3239,5.781 -4.9135,11.9953 -4.9135,18.6432 0,6.7928 1.59,13.0071 4.9135,18.788 3.3238,5.7809 7.804,10.2612 13.5846,13.5851 5.781,3.324 11.9958,4.9136 18.7881,4.9136 6.6482,0 12.8625,-1.5902 18.6431,-4.9136 5.7811,-3.3239 10.2612,-7.8042 13.5851,-13.5851 3.3243,-5.7809 5.0585,-11.9952 5.0585,-18.788 0,-6.6479 -1.7329,-12.8622 -5.0585,-18.6432 -3.3239,-5.7809 -7.804,-10.2611 -13.5851,-13.5851 z m -31.7944,18.788 c 3.4685,-3.6129 7.9486,-5.4918 13.2959,-5.4918 5.2031,0 9.6828,1.8786 13.1513,5.4918 3.4689,3.6131 5.2027,8.0931 5.2027,13.4403 0,5.4918 -1.733,9.9723 -5.2027,13.5852 -3.4685,3.6129 -7.9482,5.3472 -13.1513,5.3472 -5.3473,0 -9.8274,-1.7329 -13.2959,-5.3472 -3.6134,-3.6129 -5.3472,-8.0934 -5.3472,-13.5852 0,-5.3472 1.7325,-9.8272 5.3472,-13.4403 z"
           style="font-style:normal;font-variant:normal;font-weight:normal;font-stretch:normal;font-size:35.27777481px;line-height:1em;font-family:NordiquePro-Bold;-inkscape-font-specification:'NordiquePro-Bold, Normal';font-variant-ligatures:normal;font-variant-caps:normal;font-variant-numeric:normal;font-feature-settings:normal;text-align:start;letter-spacing:0px;word-spacing:0.0079375px;writing-mode:lr-tb;text-anchor:start;fill:#000000;fill-opacity:1;stroke-width:5.82777309"
           id="path16965-5-9-1"
           inkscape:connector-curvature="0" />
        <g
           style="font-style:normal;font-variant:normal;font-weight:normal;font-stretch:normal;font-size:35.27777481px;line-height:1em;font-family:NordiquePro-Bold;-inkscape-font-specification:'NordiquePro-Bold, Normal';font-variant-ligatures:normal;font-variant-caps:normal;font-variant-numeric:normal;font-feature-settings:normal;text-align:start;letter-spacing:0px;word-spacing:0.0079375px;writing-mode:lr-tb;text-anchor:start;fill:#000000;fill-opacity:1;stroke-width:0.31923482"
           id="g16969-7-8-0"
           transform="matrix(4.096674,0,0,4.096674,-6147.9894,2638.906)">
          <path
             style="fill:#000000;fill-opacity:1;stroke-width:0.31923482"
             d="M 0.06304166,72.28233 V 97.999624 H 9.2960738 c 2.8823972,0 5.1044742,-0.625699 6.6662562,-1.877405 1.561756,-1.251714 2.342489,-3.02596 2.342489,-5.322672 0,-1.745503 -0.476224,-3.198543 -1.429385,-4.358391 -0.941652,-1.171327 -2.268009,-1.940398 -3.979069,-2.307869 1.423961,-0.229671 2.503091,-0.809778 3.23805,-1.739945 0.734933,-0.930176 1.102757,-2.18156 1.102757,-3.75481 0,-2.032597 -0.717894,-3.600138 -2.153338,-4.702556 -1.43547,-1.102426 -3.47972,-1.653646 -6.1324593,-1.653646 z m 4.48963514,3.427699 h 4.1966356 c 1.3848556,0 2.4139786,0.262003 3.0876876,0.785998 0.683048,0.523994 1.024731,1.314603 1.024731,2.371949 0,1.066701 -0.341683,1.861906 -1.024731,2.3859 -0.673709,0.514638 -1.702832,0.772046 -3.0876876,0.772046 H 4.5526768 Z m 0.015002,10.26759 H 9.483637 c 1.648883,0 2.86811,0.338719 3.65715,1.016475 0.799148,0.667643 1.198377,1.7097 1.198377,3.125908 0,1.406096 -0.399229,2.453021 -1.198377,3.140893 -0.78904,0.677759 -2.008267,1.016476 -3.65715,1.016476 H 4.5676787 Z"
             id="path16967-0-8-5"
             inkscape:connector-curvature="0" />
        </g>
        <path
           inkscape:connector-curvature="0"
           id="path16973-6-0-7"
           d="m -5984.681,3095.9704 c -0.08,0 -0.1425,0.026 -0.2254,0.1112 -0.08,0.088 -0.1709,0.2391 -0.2492,0.4424 -0.3109,0.8133 -0.4406,2.4275 -0.4576,4.1812 -0.03,3.507 0.3743,7.6176 0.3743,7.6176 v 0.018 0.019 c 0,4.386 2.8837,7.87 5.7937,10.2634 2.9114,2.3934 5.8206,3.6777 5.8206,3.6777 7.8202,3.8354 24.4157,6.9615 39.4955,9.1535 14.2272,1.5492 40.5413,3.3817 72.166,0.7559 0.7799,-0.097 1.562,-0.1896 2.3389,-0.2883 18.8009,-2.3842 36.3541,-5.0845 36.3711,-5.0845 7.4783,-1.7526 29.8361,-3.6394 50.3699,-5.0977 20.5352,-1.4587 39.2132,-2.4816 39.2132,-2.4816 35.33,-1.5465 69.8601,3.1665 69.8772,3.1679 1.8737,0.1947 3.0338,0.503 3.6678,0.9646 0.3169,0.2308 0.5061,0.5279 0.5257,0.8491 0.021,0.3209 -0.1191,0.6329 -0.3521,0.9385 -0.467,0.6075 -1.3341,1.2313 -2.464,1.879 -1.1312,0.6478 -2.5248,1.3134 -4.0336,1.9677 -1.434,0.6216 -2.9705,1.2296 -4.4806,1.7974 -32.1767,9.7388 -119.7653,14.9582 -144.9328,16.288 -24.9456,0.052 -42.3886,3.0395 -42.3886,3.0395 -13.3801,2.8546 -20.6767,6.0722 -24.6138,8.5633 -1.969,1.2451 -3.0985,2.3082 -3.7334,3.0519 -0.6328,0.7435 -0.7642,1.1428 -0.7642,1.1428 v 0.019 0.018 c -5.3562,11.1744 -5.1138,16.918 -3.6071,19.836 1.5063,2.9189 4.2752,3.11 4.2752,3.11 h 0.021 0.017 c 11.5021,3.2417 17.3494,3.9335 17.3494,3.9335 20.0559,2.1259 28.3617,3.9346 31.8025,5.298 0.859,0.34 1.4183,0.6533 1.7844,0.9483 0.3653,0.295 0.5418,0.5818 0.6001,0.8454 0.06,0.2635 0,0.4839 -0.043,0.6159 -0.017,0.066 -0.017,0.1127 -0.017,0.1127 l -0.038,-0.064 -0.06,0.089 0.1339,0.019 c -1.3646,11.6814 -1.1677,17.163 -0.6455,19.6805 0.1,0.4712 0.2079,0.8173 0.3189,1.0986 l 0.256,0.3632 h 0.021 c 0,0 0.2156,0.4559 0.6558,0.8583 0.4401,0.4043 1.0725,0.7438 1.98,0.5319 0.9092,-0.2107 2.1208,-1.0071 3.63,-2.9745 1.5097,-1.9677 3.3107,-5.0982 5.4111,-9.937 l 0.05,-0.1756 c 2.5966,-11.1887 2.4729,-17.3919 1.6968,-20.76 -0.396,-1.7217 -0.9573,-2.7075 -1.4089,-3.2581 -0.2263,-0.2755 -0.424,-0.4411 -0.5618,-0.5384 -0.1369,-0.097 -0.1995,-0.1204 -0.1995,-0.1204 l -0.07,-0.026 -0.038,-0.058 c -0.2939,-0.4416 -1.2167,-1.0033 -2.5877,-1.5491 -1.3719,-0.5456 -3.1925,-1.0978 -5.2975,-1.6418 -4.2101,-1.0885 -9.5659,-2.1449 -14.8358,-3.0665 -10.538,-1.8425 -20.7226,-3.1517 -20.7226,-3.1517 h -0.017 c -2.321,-0.4522 -4.0591,-0.8988 -5.2868,-1.3348 -1.2282,-0.4392 -1.9562,-0.8501 -2.2492,-1.3685 -0.1459,-0.2593 -0.1531,-0.563 -0.021,-0.8196 0.131,-0.2567 0.3708,-0.4763 0.6966,-0.6848 0.6523,-0.417 1.6708,-0.7982 3.0172,-1.17 5.3817,-1.4964 15.9729,-2.7987 27.7298,-3.8788 23.514,-2.1582 51.6508,-3.4141 51.6508,-3.4141 v 0.021 c 66.0119,-4.9424 100.4931,-11.4249 118.4533,-16.6666 8.6469,-2.5236 13.457,-4.7601 16.1171,-6.3907 2.7378,-1.492 8.6303,-6.0945 9.1342,-18.2962 l -0.069,-0.6977 c 0,-0.011 0,-0.021 0,-0.03 v -0.048 0 c -0.091,-0.8366 -0.3798,-1.8852 -1.0985,-3.0763 -0.6579,-1.3385 -1.573,-2.4538 -2.6251,-3.3832 -4.2174,-3.7233 -10.5789,-4.4308 -10.5789,-4.4308 -72.265,-9.5734 -169.9204,4.9467 -169.9204,4.9467 -63.2218,9.4279 -100.5655,6.0325 -122.3173,0.071 -10.8761,-2.9802 -17.8534,-6.6024 -22.2111,-9.5824 -2.179,-1.4893 -3.704,-2.8204 -4.7332,-3.8271 -0.5141,-0.5033 -0.9049,-0.924 -1.1911,-1.2449 -0.285,-0.3207 -0.4751,-0.5467 -0.5508,-0.6226 l -0.1905,-0.2894 c -0.4189,-0.5689 -0.7446,-0.7589 -0.9037,-0.7591 z"
           style="opacity:1;fill:#000000;fill-opacity:1;stroke:none;stroke-width:15.28007507;stroke-miterlimit:4;stroke-dasharray:none;stroke-opacity:1" />
      </g>
    </g>
  </g>
</svg>
