<?xml version="1.0" encoding="UTF-8" standalone="no"?>
<!-- Created with Inkscape (http://www.inkscape.org/) -->

<svg
   xmlns:dc="http://purl.org/dc/elements/1.1/"
   xmlns:cc="http://creativecommons.org/ns#"
   xmlns:rdf="http://www.w3.org/1999/02/22-rdf-syntax-ns#"
   xmlns:svg="http://www.w3.org/2000/svg"
   xmlns="http://www.w3.org/2000/svg"
   xmlns:sodipodi="http://sodipodi.sourceforge.net/DTD/sodipodi-0.dtd"
   xmlns:inkscape="http://www.inkscape.org/namespaces/inkscape"
   width="114.36628mm"
   height="246.15703mm"
   viewBox="0 0 114.36628 246.15703"
   version="1.1"
   id="svg12581"
   sodipodi:docname="logo04.svg"
   inkscape:version="0.92.4 (5da689c313, 2019-01-14)">
  <defs
     id="defs12575" />
  <sodipodi:namedview
     id="base"
     pagecolor="#ffffff"
     bordercolor="#666666"
     borderopacity="1.0"
     inkscape:pageopacity="0.0"
     inkscape:pageshadow="2"
     inkscape:zoom="0.7"
     inkscape:cx="418.51819"
     inkscape:cy="397.12391"
     inkscape:document-units="mm"
     inkscape:current-layer="layer1"
     showgrid="false"
     showguides="true"
     inkscape:guide-bbox="true"
     inkscape:snap-global="false" />
  <metadata
     id="metadata12578">
    <rdf:RDF>
      <cc:Work
         rdf:about="">
        <dc:format>image/svg+xml</dc:format>
        <dc:type
           rdf:resource="http://purl.org/dc/dcmitype/StillImage" />
        <dc:title />
      </cc:Work>
    </rdf:RDF>
  </metadata>
  <g
     inkscape:label="Layer 1"
     inkscape:groupmode="layer"
     id="layer1"
     transform="translate(-51.67404,-29.155442)">
    <g
       transform="matrix(-0.46560297,0.03469583,0.03469583,0.46560297,731.90424,-1097.7374)"
       id="g11397">
      <path
         style="font-style:normal;font-variant:normal;font-weight:normal;font-stretch:normal;font-size:2.82222223px;line-height:1em;font-family:NordiquePro-Bold;-inkscape-font-specification:'NordiquePro-Bold, Normal';font-variant-ligatures:normal;font-variant-caps:normal;font-variant-numeric:normal;font-feature-settings:normal;text-align:start;letter-spacing:0px;word-spacing:0.0079375px;writing-mode:lr-tb;text-anchor:start;opacity:1;fill:#008000;fill-opacity:1;stroke:none;stroke-width:0.35334775;stroke-miterlimit:4;stroke-dasharray:none;stroke-opacity:1"
         d="m 1500.6688,2309.1932 c -0.3653,0.4027 -0.7313,0.8056 -1.0971,1.2087 l -1.2996,1.3637 c -3.8951,3.2374 -7.2272,6.4306 -9.7576,9.0238 -0.096,0.066 -0.1972,0.1318 -0.2852,0.1969 -23.5337,21.1266 -36.7164,38.9871 -44.4397,52.8298 -7.2676,11.161 -11.9198,27.0225 -14.4523,37.7507 -0.073,0.1223 -0.138,0.2386 -0.215,0.3638 -2.5167,10.4385 -4.7721,20.6616 -6.674,30.673 -0.3821,3.7017 -0.4801,6.8461 -0.4801,9.123 3.415,35.5804 28.5669,64.0787 56.2648,84.9178 16.0364,12.0708 32.1296,20.9467 43.9126,26.7214 l -2.3958,-34.9256 0.108,0.1825 c -1.349,-20.3553 -3.4344,-50.7238 -6.335,-89.1719 l -0.7544,-12.7516 c 0,0 0.069,-14.3153 -10.2955,-104.3368 -0.02,-0.1115 -0.077,-0.4014 -0.1091,-0.569 -0.3125,-2.7555 -0.8354,-6.3894 -1.3208,-8.4609 -0.1433,-1.2809 -0.2736,-2.6616 -0.3742,-4.1393 z"
         id="path11383"
         inkscape:connector-curvature="0" />
      <path
         style="font-style:normal;font-variant:normal;font-weight:normal;font-stretch:normal;font-size:2.82222223px;line-height:1em;font-family:NordiquePro-Bold;-inkscape-font-specification:'NordiquePro-Bold, Normal';font-variant-ligatures:normal;font-variant-caps:normal;font-variant-numeric:normal;font-feature-settings:normal;text-align:start;letter-spacing:0px;word-spacing:0.0079375px;writing-mode:lr-tb;text-anchor:start;opacity:1;fill:#008000;fill-opacity:1;stroke:none;stroke-width:0.35334775;stroke-miterlimit:4;stroke-dasharray:none;stroke-opacity:1"
         d="m 1521.9934,2317.9444 c 0.1292,0.6398 0.2351,1.1994 0.2351,1.1994 l 0.168,0.7555 0.08,0.7555 c 5.1306,44.7649 7.7521,71.3982 9.094,86.9513 l 1.2077,12.7398 0.5906,4.9429 0.067,0.3891 c 0,0 0,0.01 0,0.01 0.5484,2.4482 2.2807,26.4298 2.8928,35.0619 8.2409,-4.848 18.0915,-11.2671 27.5384,-19.0701 10.9388,-9.045 20.9601,-19.7622 26.7943,-30.5294 5.457,-9.9881 7.561,-19.156 5.3304,-29.7352 -0.4094,-3.1458 -2.3339,-7.992 -8.9757,-13.7563 -0.5519,-0.5779 -1.096,-1.1009 -1.6196,-1.5399 v 0 c -2.4747,-2.2415 -9.7917,-8.8757 -18.7564,-16.6279 -5.4455,-4.6903 -11.1654,-9.5317 -15.8327,-13.2132 -2.7224,-2.1538 -5.5117,-3.9357 -7.0703,-4.9748 -0.3564,-0.2714 -0.7622,-0.5708 -1.2563,-0.9189 0,-0.013 -0.01,-0.022 0,-0.032 -0.027,-0.01 -0.06,-0.021 -0.087,-0.031 -2.9139,-2.0448 -8.4096,-5.5001 -18.4692,-11.2169 -0.069,-0.063 -0.1361,-0.1303 -0.2051,-0.1933 -0.5133,-0.2897 -1.0085,-0.5696 -1.7255,-0.9658 z"
         id="path11385"
         inkscape:connector-curvature="0" />
      <path
         style="font-style:normal;font-variant:normal;font-weight:normal;font-stretch:normal;font-size:2.82222223px;line-height:1em;font-family:NordiquePro-Bold;-inkscape-font-specification:'NordiquePro-Bold, Normal';font-variant-ligatures:normal;font-variant-caps:normal;font-variant-numeric:normal;font-feature-settings:normal;text-align:start;letter-spacing:0px;word-spacing:0.0079375px;writing-mode:lr-tb;text-anchor:start;opacity:1;fill:#008000;fill-opacity:1;stroke:none;stroke-width:0.35334775;stroke-miterlimit:4;stroke-dasharray:none;stroke-opacity:1"
         d="m 1616.33,2407.2926 -0.085,0.171 c -1.3039,3.3032 -2.8127,6.454 -4.4153,9.4811 -8.6669,15.9669 -21.2691,28.802 -33.9901,39.317 -14.739,12.1717 -29.8906,21.2101 -40.149,26.7333 0.3362,5.8384 0.548,14.5736 0.6,16.8315 0.6459,13.1501 0.8914,27.4893 0.8914,27.4893 l 0.08,6.6569 c 0.4561,31.689 0.7462,59.8504 0.9147,86.3653 11.7622,-6.2409 27.5034,-15.4451 43.2903,-27.2965 31.4296,-23.5972 60.5361,-56.7212 61.9094,-93.2264 0,0 -0.4945,-9.7405 -2.2221,-17.063 -0.02,-0.086 -0.048,-0.2025 -0.069,-0.2915 -0.1048,-0.432 -0.2133,-0.8565 -0.3271,-1.2676 -0.055,-0.197 -0.083,-0.3645 -0.095,-0.5142 -2.9702,-12.3946 -11.0437,-42.2406 -26.3328,-73.3862 z"
         id="path11387"
         inkscape:connector-curvature="0" />
      <path
         style="font-style:normal;font-variant:normal;font-weight:normal;font-stretch:normal;font-size:2.82222223px;line-height:1em;font-family:NordiquePro-Bold;-inkscape-font-specification:'NordiquePro-Bold, Normal';font-variant-ligatures:normal;font-variant-caps:normal;font-variant-numeric:normal;font-feature-settings:normal;text-align:start;letter-spacing:0px;word-spacing:0.0079375px;writing-mode:lr-tb;text-anchor:start;opacity:1;fill:#008000;fill-opacity:1;stroke:none;stroke-width:0.35334775;stroke-miterlimit:4;stroke-dasharray:none;stroke-opacity:1"
         d="m 1412.9345,2496.9498 c -2.158,25.3298 -2.6184,48.1545 -2.158,68.0082 0.9646,10.7233 3.1317,19.5363 5.7051,26.6382 27.0022,53.3637 79.2212,85.5121 106.1816,99.2522 0.2346,-30.7181 0.235,-66.2472 -0.2237,-106.7468 -12.2088,-5.3281 -36.008,-16.8242 -59.9948,-34.8537 -17.7684,-13.3645 -36.136,-30.7888 -49.4291,-52.2981 z"
         id="path11389"
         inkscape:connector-curvature="0" />
      <path
         style="font-style:normal;font-variant:normal;font-weight:normal;font-stretch:normal;font-size:2.82222223px;line-height:1em;font-family:NordiquePro-Bold;-inkscape-font-specification:'NordiquePro-Bold, Normal';font-variant-ligatures:normal;font-variant-caps:normal;font-variant-numeric:normal;font-feature-settings:normal;text-align:start;letter-spacing:0px;word-spacing:0.0079375px;writing-mode:lr-tb;text-anchor:start;opacity:1;fill:#008000;fill-opacity:1;stroke:none;stroke-width:0.35334775;stroke-miterlimit:4;stroke-dasharray:none;stroke-opacity:1"
         d="m 1655.1134,2546.8793 c -14.5332,24.0739 -35.7199,43.5809 -55.8766,58.7107 -23.4309,17.5908 -46.3079,29.5935 -58.7773,35.5948 0,39.7557 -0.2293,72.9652 -0.9147,101.1494 10.0006,-6.5892 22.3854,-15.2382 35.5182,-25.8038 30.2537,-24.316 62.7561,-58.2993 74.2875,-91.6956 3.4777,-15.7953 7.5947,-42.4841 5.7655,-77.9555 z"
         id="path11391"
         inkscape:connector-curvature="0" />
      <path
         style="font-style:normal;font-variant:normal;font-weight:normal;font-stretch:normal;font-size:2.82222223px;line-height:1em;font-family:NordiquePro-Bold;-inkscape-font-specification:'NordiquePro-Bold, Normal';font-variant-ligatures:normal;font-variant-caps:normal;font-variant-numeric:normal;font-feature-settings:normal;text-align:start;letter-spacing:0px;word-spacing:0.0079375px;writing-mode:lr-tb;text-anchor:start;opacity:1;fill:#008000;fill-opacity:1;stroke:none;stroke-width:0.35334775;stroke-miterlimit:4;stroke-dasharray:none;stroke-opacity:1"
         d="m 1419.3774,2637.8341 v 0 c 22.6531,87.149 52.053,140.4334 75.3236,171.7542 8.9413,12.0507 16.7662,20.6746 23.0125,26.8275 0.2266,-2.6983 0.4612,-5.093 0.6853,-8.145 1.6932,-25.0169 3.2931,-61.7791 3.9811,-114.1679 -18.942,-8.2029 -66.0738,-31.7678 -102.9487,-76.259 z"
         id="path11393"
         inkscape:connector-curvature="0" />
      <path
         style="font-style:normal;font-variant:normal;font-weight:normal;font-stretch:normal;font-size:2.82222223px;line-height:1em;font-family:NordiquePro-Bold;-inkscape-font-specification:'NordiquePro-Bold, Normal';font-variant-ligatures:normal;font-variant-caps:normal;font-variant-numeric:normal;font-feature-settings:normal;text-align:start;letter-spacing:0px;word-spacing:0.0079375px;writing-mode:lr-tb;text-anchor:start;opacity:1;fill:#008000;fill-opacity:1;stroke:none;stroke-width:0.35334775;stroke-miterlimit:4;stroke-dasharray:none;stroke-opacity:1"
         d="m 1624.0641,2707.0817 c -9.1138,8.7204 -18.4194,16.7182 -27.4309,23.9664 -21.8134,17.5226 -41.8902,30.3575 -52.8495,36.9896 -0.8251,22.107 -1.7394,40.459 -2.6541,54.8822 0,0.046 -0.01,0.068 -0.01,0.1101 2.0495,-1.1112 7.1995,-3.9944 10.9704,-6.889 9.796,-9.0259 43.3295,-43.0088 71.9744,-109.0593 z"
         id="path11395"
         inkscape:connector-curvature="0" />
    </g>
  </g>
</svg>
