<?xml version="1.0" encoding="UTF-8" standalone="no"?>
<!-- Created with Inkscape (http://www.inkscape.org/) -->

<svg
   xmlns:dc="http://purl.org/dc/elements/1.1/"
   xmlns:cc="http://creativecommons.org/ns#"
   xmlns:rdf="http://www.w3.org/1999/02/22-rdf-syntax-ns#"
   xmlns:svg="http://www.w3.org/2000/svg"
   xmlns="http://www.w3.org/2000/svg"
   xmlns:sodipodi="http://sodipodi.sourceforge.net/DTD/sodipodi-0.dtd"
   xmlns:inkscape="http://www.inkscape.org/namespaces/inkscape"
   width="127.22455mm"
   height="289.63992mm"
   viewBox="0 0 127.22455 289.63992"
   version="1.1"
   id="svg12581"
   sodipodi:docname="logo03.svg"
   inkscape:version="0.92.4 (5da689c313, 2019-01-14)">
  <defs
     id="defs12575" />
  <sodipodi:namedview
     id="base"
     pagecolor="#ffffff"
     bordercolor="#666666"
     borderopacity="1.0"
     inkscape:pageopacity="0.0"
     inkscape:pageshadow="2"
     inkscape:zoom="0.49497475"
     inkscape:cx="1096.848"
     inkscape:cy="469.18631"
     inkscape:document-units="mm"
     inkscape:current-layer="layer1"
     showgrid="false"
     showguides="true"
     inkscape:guide-bbox="true"
     inkscape:snap-global="false" />
  <metadata
     id="metadata12578">
    <rdf:RDF>
      <cc:Work
         rdf:about="">
        <dc:format>image/svg+xml</dc:format>
        <dc:type
           rdf:resource="http://purl.org/dc/dcmitype/StillImage" />
        <dc:title />
      </cc:Work>
    </rdf:RDF>
  </metadata>
  <g
     inkscape:label="Layer 1"
     inkscape:groupmode="layer"
     id="layer1"
     transform="translate(-40.709186,6.7958277)">
    <path
       style="color:#000000;font-style:normal;font-variant:normal;font-weight:normal;font-stretch:normal;font-size:2.82222223px;line-height:1em;font-family:NordiquePro-Bold;-inkscape-font-specification:'NordiquePro-Bold, Normal';font-variant-ligatures:normal;font-variant-position:normal;font-variant-caps:normal;font-variant-numeric:normal;font-variant-alternates:normal;font-feature-settings:normal;text-indent:0;text-align:start;text-decoration:none;text-decoration-line:none;text-decoration-style:solid;text-decoration-color:#000000;letter-spacing:0px;word-spacing:0.0079375px;text-transform:none;writing-mode:lr-tb;direction:ltr;text-orientation:mixed;dominant-baseline:auto;baseline-shift:baseline;text-anchor:start;white-space:normal;shape-padding:0;clip-rule:nonzero;display:inline;overflow:visible;visibility:visible;opacity:1;isolation:auto;mix-blend-mode:normal;color-interpolation:sRGB;color-interpolation-filters:linearRGB;solid-color:#000000;solid-opacity:1;vector-effect:none;fill:#008000;fill-opacity:1;fill-rule:nonzero;stroke:none;stroke-width:11.78725243;stroke-linecap:butt;stroke-linejoin:miter;stroke-miterlimit:4;stroke-dasharray:none;stroke-dashoffset:0;stroke-opacity:1;color-rendering:auto;image-rendering:auto;shape-rendering:auto;text-rendering:auto;enable-background:accumulate"
       d="m 90.878366,-6.4618391 c 2.37013,-0.052619 4.190017,0.1428096 4.440321,0.1712499 l 1.18e-4,0.004 c 3.643291,0.6974078 6.676625,1.8944572 9.175135,3.2832453 l 1.42257,0.7670221 v 0 c 0,0 0.004,0.00788 0.004,0.00788 7.49751,4.0726745 10.59311,11.118106 10.59311,11.118106 L 116.31336,8.385612 c 3.10202,6.017299 5.83395,9.536738 7.64945,11.476986 0.6687,0.694662 1.0478,1.008718 1.43694,1.34448 l 0.18543,-0.0055 1.58446,1.33013 c 12.94374,10.89314 19.77597,20.580725 23.53331,28.014571 0.42113,0.834068 0.80229,1.638133 1.15116,2.411565 0.45456,0.796841 0.86404,1.601931 1.23329,2.395752 4.07723,7.93214 6.78566,16.715116 8.56474,25.33744 8.75225,32.791623 5.9051,63.365563 3.29893,79.171643 -0.726,7.45993 -1.55771,11.64304 -1.55771,11.64304 l -0.0192,0.0756 -0.0192,0.0756 c -8.45329,37.20127 -20.411,60.83499 -30.45998,75.2284 -6.58728,9.43448 -12.54447,14.9901 -15.90286,17.73696 0.006,0.0297 0.0111,0.0703 0.0173,0.10359 3.75913,9.26979 9.98131,17.14035 10.2625,17.35201 l -13.75501,0.5577 c 0,0 -2.76159,-2.43707 -4.9664,-7.54857 -1.40675,-2.78408 -3.52769,-7.21313 -4.45601,-10.35011 -2.14522,-1.56281 -5.129611,-3.76285 -7.608231,-5.66835 v 0 l -1.059539,-0.77499 -0.004,1.1e-4 -1.534347,-1.18928 c 0,0 -30.934772,-24.33968 -47.170926,-80.48983 -0.206407,-0.70829 -0.907781,-2.54329 -1.822448,-5.93289 -0.09656,-0.20159 -0.200291,-0.50404 -0.299024,-0.70553 l 0.08939,-0.0383 c -2.976849,-11.49557 -7.112929,-35.91627 -0.234483,-67.75963 0.05601,-0.40939 5.234229,-34.563779 25.534855,-59.210892 l 0.179204,-0.209703 0.179404,-0.209709 c 0,0 3.976091,-3.86032 8.399328,-7.927623 1.542208,-1.415189 3.135874,-2.849168 4.663314,-4.179716 0.894582,-0.878036 2.13464,-1.917706 3.639296,-2.827075 1.651422,-1.106787 4.190676,-2.656147 5.53949,-3.471366 0.104601,-0.07217 0.209684,-0.144476 0.306782,-0.21327 0.716355,-0.39435 1.662424,-1.031441 2.621408,-2.028105 1.534321,-1.577989 3.019284,-3.62198 3.186636,-7.733046 0.06802,-0.542109 0.122732,-1.187527 0.146705,-1.975048 0.159503,-1.740325 0.183816,-3.708561 -0.09984,-5.7053548 4e-5,-1.2e-6 0.007,-2.068e-4 0.007,-2.068e-4 -0.01069,-0.019893 -0.219773,-1.7792656 -0.219813,-1.7792644 0,0 -0.0039,0.00412 -0.0039,0.00412 -0.110902,-0.9566821 -0.312787,-1.9940723 -0.662808,-3.0362598 -1.23009,-3.6631499 -4.286239,-7.3680695 -11.491981,-7.6860528 1.521194,-0.2976049 3.099643,-0.4177632 4.502883,-0.4490384 z M 115.29369,27.941014 c -0.0229,0.598332 -0.0591,1.157862 -0.10175,1.67714 -0.17142,0.842878 -0.33937,2.317605 -0.43275,3.434821 -0.0109,0.06811 -0.0305,0.185937 -0.0373,0.231192 -3.11342,36.501023 -2.91467,42.284949 -2.91467,42.284949 l -0.15263,5.161912 c -0.71309,15.571293 -1.19326,27.867972 -1.49531,36.109552 l 0.0415,-0.075 -0.5511,14.14184 c 4.69251,-2.47422 11.08973,-6.25303 17.42584,-11.32228 10.94376,-8.75165 20.76732,-20.567971 21.72245,-34.986663 -0.0272,-0.920084 -0.1043,-2.189512 -0.30288,-3.680791 -0.88812,-4.022853 -1.92157,-8.127034 -3.06318,-12.315178 -0.0326,-0.04963 -0.0602,-0.09589 -0.0912,-0.144443 -1.15147,-4.305021 -3.22074,-10.658957 -6.29087,-15.082295 -3.28622,-5.501562 -8.82653,-12.561518 -18.58859,-20.817746 -0.0364,-0.02522 -0.0783,-0.05079 -0.11763,-0.07616 -1.0535,-1.017689 -2.4381,-2.268223 -4.05071,-3.529939 l -0.54148,-0.535588 c -0.15268,-0.158482 -0.30531,-0.316965 -0.45777,-0.475331 z m -11.61951,2.854484 c -0.28496,0.168663 -0.48173,0.287721 -0.68569,0.410916 -0.0271,0.02628 -0.0536,0.05429 -0.0807,0.08053 -3.99678,2.430277 -6.176276,3.89212 -7.329397,4.753206 -0.0108,0.0043 -0.02399,0.0096 -0.03478,0.01356 0.0041,0.0039 2.28e-4,0.0077 3.83e-4,0.01293 -0.195467,0.146564 -0.355871,0.272395 -0.496655,0.386281 -0.617458,0.438505 -1.723245,1.191903 -2.79772,2.094749 -1.84204,1.543401 -4.095623,3.56808 -6.240127,5.528384 -3.530236,3.239868 -6.407751,6.008198 -7.380886,6.94344 l -0.01187,-0.03241 c -0.0118,0.01126 -0.0228,0.02251 -0.0346,0.03379 l 0.04654,-0.0016 c -0.20634,0.18369 -0.420042,0.401652 -0.636242,0.641811 -2.6151,2.408626 -3.334961,4.389931 -3.4628,5.666021 -0.775067,4.301639 0.184569,7.981227 2.509006,11.952178 2.486124,4.281321 6.663644,8.492486 11.191952,12.016888 3.910615,3.040449 7.967835,5.51673 11.355784,7.377396 0.144331,-3.495502 0.557983,-13.20704 0.750393,-14.202936 2.2e-4,-6e-6 -1.2e-4,-0.004 -1.2e-4,-0.004 l 0.0224,-0.158034 0.17964,-2.004413 0.33592,-5.162515 c 0.35656,-6.300958 1.09792,-17.094653 2.63672,-35.245202 l 0.0233,-0.306247 0.0589,-0.307299 c 0,0 0.0361,-0.227518 0.0806,-0.487721 z m -37.955521,41.37065 c -5.8064,12.768378 -8.712566,24.925363 -9.764787,29.969462 -0.0031,0.0606 -0.01238,0.12867 -0.03225,0.20889 -0.04108,0.16752 -0.07985,0.34031 -0.117044,0.51617 -0.0074,0.0362 -0.01735,0.0836 -0.02441,0.11858 -0.610689,2.97962 -0.694219,6.92165 -0.694219,6.92165 0.990788,14.73519 13.148067,27.77287 26.13036,36.93317 6.520911,4.60062 12.991749,8.13206 17.819353,10.51354 C 98.7871,146.63105 98.568183,135.24773 98.374107,122.4369 l -0.04715,-2.69102 c 0,0 -0.07199,-5.79729 0.03201,-11.11894 -0.0059,-0.91299 -0.02465,-4.44536 0.0415,-6.8087 C 94.189157,99.708822 87.958594,96.237384 81.857308,91.494788 76.591231,87.397644 71.345498,82.361499 67.652609,76.012823 66.968824,74.808721 66.321587,73.553509 65.755209,72.23427 Z m 87.426021,35.727042 -0.0327,9.7e-4 c -5.11491,8.85049 -12.3291,16.1109 -19.34967,21.72358 -9.47769,7.57206 -18.95759,12.50169 -23.8275,14.80051 0.29818,16.37122 0.72249,30.72832 1.18402,43.13865 10.73057,-5.87428 31.44816,-19.48876 41.72251,-41.37518 0.9551,-2.90057 1.7256,-6.48773 1.98736,-10.83244 -0.051,-8.02829 -0.50954,-17.24619 -1.684,-27.45609 z M 51.85731,134.1641 v 0 c -0.315668,14.35566 1.666636,25.09129 3.260584,31.43258 5.058471,13.35758 18.598281,26.7021 31.113978,36.16688 5.433051,4.11272 10.540994,7.45983 14.660818,10.00306 -0.61342,-11.38089 -1.102578,-24.79796 -1.577232,-40.86309 -5.110479,-2.27618 -14.498314,-6.85329 -24.176614,-13.6819 -8.325911,-5.87324 -17.120217,-13.50293 -23.280482,-23.05756 z m 100.48451,34.8465 -0.0217,0.005 c -14.36981,18.41908 -33.13422,28.50423 -40.69065,32.04505 0.90349,21.1619 1.98888,35.99824 2.97182,46.08733 0.127,1.23054 0.25035,2.19542 0.37413,3.28305 2.45064,-2.5609 5.50973,-6.13913 8.97899,-11.11554 9.02959,-12.93451 20.27378,-34.81747 28.3873,-70.30445 z m -83.847412,33.56253 c 12.36406,26.34971 26.320899,39.68204 30.387267,43.21257 1.558365,1.12466 3.673875,2.22819 4.515345,2.65282 -5e-4,-0.017 -0.005,-0.0258 -0.005,-0.0444 -0.54183,-5.81751 -1.1304,-13.2225 -1.72776,-22.14603 -4.50783,-2.5491 -12.774014,-7.49591 -21.797877,-14.31632 -3.72858,-2.82168 -7.58492,-5.94305 -11.372383,-9.35866 z"
       id="path10980"
       inkscape:connector-curvature="0" />
  </g>
</svg>
