<?xml version="1.0" encoding="UTF-8" standalone="no"?>
<!-- Created with Inkscape (http://www.inkscape.org/) -->

<svg
   xmlns:dc="http://purl.org/dc/elements/1.1/"
   xmlns:cc="http://creativecommons.org/ns#"
   xmlns:rdf="http://www.w3.org/1999/02/22-rdf-syntax-ns#"
   xmlns:svg="http://www.w3.org/2000/svg"
   xmlns="http://www.w3.org/2000/svg"
   xmlns:sodipodi="http://sodipodi.sourceforge.net/DTD/sodipodi-0.dtd"
   xmlns:inkscape="http://www.inkscape.org/namespaces/inkscape"
   width="100.44072mm"
   height="71.700737mm"
   viewBox="0 0 100.44072 71.700737"
   version="1.1"
   id="svg5504"
   sodipodi:docname="logo50.svg"
   inkscape:version="0.92.4 (5da689c313, 2019-01-14)">
  <defs
     id="defs5498" />
  <sodipodi:namedview
     id="base"
     pagecolor="#ffffff"
     bordercolor="#666666"
     borderopacity="1.0"
     inkscape:pageopacity="0.0"
     inkscape:pageshadow="2"
     inkscape:zoom="0.35"
     inkscape:cx="-543.20827"
     inkscape:cy="-465.25775"
     inkscape:document-units="mm"
     inkscape:current-layer="layer1"
     showgrid="false" />
  <metadata
     id="metadata5501">
    <rdf:RDF>
      <cc:Work
         rdf:about="">
        <dc:format>image/svg+xml</dc:format>
        <dc:type
           rdf:resource="http://purl.org/dc/dcmitype/StillImage" />
        <dc:title></dc:title>
      </cc:Work>
    </rdf:RDF>
  </metadata>
  <g
     inkscape:label="Layer 1"
     inkscape:groupmode="layer"
     id="layer1"
     transform="translate(-34.44631,-108.44725)">
    <g
       id="g6882"
       transform="translate(-186.75299,-661.09028)">
      <path
         inkscape:connector-curvature="0"
         id="path6383-4"
         d="m 230.57432,786.51429 -8.37502,8.23924 v 8.13428 8.13427 l 8.37502,8.2392 H 311.235 l 8.37449,-8.2392 v -8.13427 -1.78366 -6.35064 l -8.37449,-8.23923 z"
         style="opacity:1;fill:#333333;fill-opacity:1;stroke:#000000;stroke-width:1.99999988;stroke-miterlimit:4;stroke-dasharray:none;stroke-opacity:1" />
      <g
         style="display:inline;fill:#ffffff;fill-opacity:1;stroke-width:0.31923482"
         transform="matrix(2.3545518,0,0,2.3545518,429.94253,491.95949)"
         id="g6218">
        <path
           style="font-style:normal;font-variant:normal;font-weight:normal;font-stretch:normal;font-size:35.27777481px;line-height:1em;font-family:NordiquePro-Bold;-inkscape-font-specification:'NordiquePro-Bold, Normal';font-variant-ligatures:normal;font-variant-caps:normal;font-variant-numeric:normal;font-feature-settings:normal;text-align:start;letter-spacing:0px;word-spacing:0.0079375px;writing-mode:lr-tb;text-anchor:start;fill:#ffffff;fill-opacity:1;stroke-width:0.31923482"
           d="m -66.619081,128.5544 v 5.77918 h 1.029201 v -2.56796 h 2.473908 v 2.56796 h 1.029199 v -5.77918 h -1.029199 v 2.18202 h -2.473908 v -2.18202 z"
           id="path6194"
           inkscape:connector-curvature="0" />
        <path
           id="path6196"
           style="font-style:normal;font-variant:normal;font-weight:normal;font-stretch:normal;font-size:35.27777481px;line-height:1em;font-family:NordiquePro-Bold;-inkscape-font-specification:'NordiquePro-Bold, Normal';font-variant-ligatures:normal;font-variant-caps:normal;font-variant-numeric:normal;font-feature-settings:normal;text-align:start;letter-spacing:0px;word-spacing:0.0079375px;writing-mode:lr-tb;text-anchor:start;fill:#ffffff;fill-opacity:1;stroke-width:0.31923482"
           d="m -78.511489,130.3144 h 1.029161 v 2.08208 c 0,0.64916 -0.158332,1.13207 -0.474997,1.45666 -0.316665,0.32458 -0.744163,0.48291 -1.266661,0.48291 -0.530414,0 -0.949995,-0.15833 -1.26666,-0.48291 -0.316665,-0.32459 -0.474998,-0.8075 -0.474998,-1.45666 v -2.08208 h 1.029162 v 2.08208 c 0,0.32458 0.05542,0.56208 0.166249,0.71249 0.110833,0.15042 0.292915,0.22167 0.546247,0.22167 0.245416,0 0.427498,-0.0712 0.538331,-0.22167 0.110833,-0.15041 0.174166,-0.38791 0.174166,-0.71249 z"
           inkscape:connector-curvature="0" />
        <path
           id="path6198"
           d="m -76.755853,129.72066 c 0.118749,0.11874 0.269165,0.17416 0.443331,0.17416 0.166249,0 0.308748,-0.0554 0.427498,-0.17416 0.118749,-0.11875 0.182082,-0.26917 0.182082,-0.44334 0,-0.16624 -0.06333,-0.30874 -0.182082,-0.42749 -0.11875,-0.11875 -0.261249,-0.18209 -0.427498,-0.18209 -0.174166,0 -0.324582,0.0633 -0.443331,0.18209 -0.11875,0.11875 -0.174166,0.26125 -0.174166,0.42749 0,0.17417 0.05542,0.32459 0.174166,0.44334 z"
           style="font-style:normal;font-variant:normal;font-weight:normal;font-stretch:normal;font-size:35.27777481px;line-height:1em;font-family:NordiquePro-Bold;-inkscape-font-specification:'NordiquePro-Bold, Normal';font-variant-ligatures:normal;font-variant-caps:normal;font-variant-numeric:normal;font-feature-settings:normal;text-align:start;letter-spacing:0px;word-spacing:0.0079375px;writing-mode:lr-tb;text-anchor:start;fill:#ffffff;fill-opacity:1;stroke-width:0.31923482"
           inkscape:connector-curvature="0" />
        <path
           id="path6200"
           d="m -76.827103,130.36709 v 3.95832 h 1.029162 v -3.95832 z"
           style="font-style:normal;font-variant:normal;font-weight:normal;font-stretch:normal;font-size:35.27777481px;line-height:1em;font-family:NordiquePro-Bold;-inkscape-font-specification:'NordiquePro-Bold, Normal';font-variant-ligatures:normal;font-variant-caps:normal;font-variant-numeric:normal;font-feature-settings:normal;text-align:start;letter-spacing:0px;word-spacing:0.0079375px;writing-mode:lr-tb;text-anchor:start;fill:#ffffff;fill-opacity:1;stroke-width:0.31923482"
           inkscape:connector-curvature="0" />
        <path
           id="path6202"
           style="font-style:normal;font-variant:normal;font-weight:normal;font-stretch:normal;font-size:35.27777481px;line-height:1em;font-family:NordiquePro-Bold;-inkscape-font-specification:'NordiquePro-Bold, Normal';font-variant-ligatures:normal;font-variant-caps:normal;font-variant-numeric:normal;font-feature-settings:normal;text-align:start;letter-spacing:0px;word-spacing:0.0079375px;writing-mode:lr-tb;text-anchor:start;fill:#ffffff;fill-opacity:1;stroke-width:0.31923482"
           d="m -75.074559,134.32541 h 1.029161 v -5.54164 h -1.029161 z"
           inkscape:connector-curvature="0" />
        <path
           id="path6204"
           style="font-style:normal;font-variant:normal;font-weight:normal;font-stretch:normal;font-size:35.27777481px;line-height:1em;font-family:NordiquePro-Bold;-inkscape-font-specification:'NordiquePro-Bold, Normal';font-variant-ligatures:normal;font-variant-caps:normal;font-variant-numeric:normal;font-feature-settings:normal;text-align:start;letter-spacing:0px;word-spacing:0.0079375px;writing-mode:lr-tb;text-anchor:start;fill:#ffffff;fill-opacity:1;stroke-width:0.31923482"
           d="m -69.814331,133.32272 c 0.182083,-0.31666 0.277082,-0.65708 0.277082,-1.02916 v -3.56248 h -1.037079 v 1.82082 c -0.284999,-0.19791 -0.617496,-0.30083 -0.997495,-0.30083 -0.372081,0 -0.712497,0.095 -1.021245,0.27708 -0.316664,0.18208 -0.56208,0.4275 -0.744162,0.74416 -0.19,0.31667 -0.277082,0.65708 -0.277082,1.02125 0,0.37208 0.08708,0.7125 0.277082,1.02916 0.182082,0.31667 0.427498,0.56208 0.744162,0.74416 0.308748,0.18209 0.649164,0.26917 1.021245,0.26917 0.364165,0 0.704579,-0.0871 1.021246,-0.26917 0.308748,-0.18208 0.554163,-0.42749 0.736246,-0.74416 z m -2.485821,-1.76541 c 0.189998,-0.19791 0.427498,-0.30083 0.720412,-0.30083 0.284998,0 0.530416,0.10292 0.72833,0.30083 0.19,0.19792 0.292916,0.44333 0.292916,0.73625 0,0.30083 -0.102916,0.54625 -0.292916,0.74416 -0.197914,0.19792 -0.443332,0.29292 -0.72833,0.29292 -0.292914,0 -0.530414,-0.095 -0.720412,-0.29292 -0.19,-0.19791 -0.284998,-0.44333 -0.284998,-0.74416 0,-0.29292 0.095,-0.53833 0.284998,-0.73625 z"
           inkscape:connector-curvature="0" />
        <path
           inkscape:connector-curvature="0"
           id="path6206"
           style="font-style:normal;font-variant:normal;font-weight:normal;font-stretch:normal;font-size:35.27777481px;line-height:1em;font-family:NordiquePro-Bold;-inkscape-font-specification:'NordiquePro-Bold, Normal';font-variant-ligatures:normal;font-variant-caps:normal;font-variant-numeric:normal;font-feature-settings:normal;text-align:start;letter-spacing:0px;word-spacing:0.0079375px;writing-mode:lr-tb;text-anchor:start;fill:#ffffff;fill-opacity:1;stroke-width:0.31923482"
           d="m -61.242817,131.28815 c -0.174165,0.31666 -0.261249,0.64916 -0.261249,1.01333 0,0.37208 0.08708,0.71249 0.269164,1.02124 0.182083,0.31667 0.427498,0.56208 0.744165,0.74416 0.308748,0.18209 0.649162,0.26917 1.029162,0.26917 0.411663,0 0.783746,-0.11083 1.12416,-0.34042 0.332499,-0.22166 0.585831,-0.52249 0.75208,-0.88666 l -1.227079,-0.008 c -0.08708,0.0712 -0.182082,0.12666 -0.284998,0.16624 -0.102916,0.0475 -0.237498,0.0633 -0.39583,0.0633 -0.2375,0 -0.435415,-0.0554 -0.593748,-0.16625 -0.158332,-0.11083 -0.261248,-0.26917 -0.308748,-0.46708 h 2.937068 c 0.02375,-0.15834 0.03167,-0.31667 0.03167,-0.49083 -0.01584,-0.39584 -0.118748,-0.74417 -0.32458,-1.045 -0.205834,-0.29291 -0.459166,-0.51458 -0.767914,-0.67291 -0.316665,-0.15833 -0.641247,-0.2375 -0.973744,-0.2375 -0.372082,0 -0.712496,0.095 -1.021246,0.285 -0.308748,0.19 -0.554163,0.43541 -0.728329,0.75208 z m 2.715402,0.58583 h -1.868323 c 0.07917,-0.19 0.205832,-0.34042 0.364165,-0.45125 0.158332,-0.11083 0.348332,-0.16625 0.569998,-0.16625 0.197914,0 0.379997,0.0633 0.554163,0.17417 0.174165,0.11083 0.300833,0.26125 0.379997,0.44333 z" />
        <path
           inkscape:connector-curvature="0"
           id="path6208"
           style="font-style:normal;font-variant:normal;font-weight:normal;font-stretch:normal;font-size:35.27777481px;line-height:1em;font-family:NordiquePro-Bold;-inkscape-font-specification:'NordiquePro-Bold, Normal';font-variant-ligatures:normal;font-variant-caps:normal;font-variant-numeric:normal;font-feature-settings:normal;text-align:start;letter-spacing:0px;word-spacing:0.0079375px;writing-mode:lr-tb;text-anchor:start;fill:#ffffff;fill-opacity:1;stroke-width:0.31923482"
           d="m -56.758417,134.32541 h 1.029161 v -5.54164 h -1.029161 z" />
        <path
           inkscape:connector-curvature="0"
           id="path6210"
           style="font-style:normal;font-variant:normal;font-weight:normal;font-stretch:normal;font-size:35.27777481px;line-height:1em;font-family:NordiquePro-Bold;-inkscape-font-specification:'NordiquePro-Bold, Normal';font-variant-ligatures:normal;font-variant-caps:normal;font-variant-numeric:normal;font-feature-settings:normal;text-align:start;letter-spacing:0px;word-spacing:0.0079375px;writing-mode:lr-tb;text-anchor:start;fill:#ffffff;fill-opacity:1;stroke-width:0.31923482"
           d="m -54.985216,134.32541 h 1.029161 v -5.54164 h -1.029161 z" />
        <path
           inkscape:connector-curvature="0"
           id="path6212"
           style="font-style:normal;font-variant:normal;font-weight:normal;font-stretch:normal;font-size:35.27777481px;line-height:1em;font-family:NordiquePro-Bold;-inkscape-font-specification:'NordiquePro-Bold, Normal';font-variant-ligatures:normal;font-variant-caps:normal;font-variant-numeric:normal;font-feature-settings:normal;text-align:start;letter-spacing:0px;word-spacing:0.0079375px;writing-mode:lr-tb;text-anchor:start;fill:#ffffff;fill-opacity:1;stroke-width:0.31923482"
           d="m -50.342485,130.52815 c -0.316665,-0.18208 -0.657079,-0.27708 -1.021245,-0.27708 -0.37208,0 -0.712496,0.095 -1.029161,0.27708 -0.316665,0.18208 -0.56208,0.4275 -0.744163,0.74416 -0.182083,0.31667 -0.269164,0.65708 -0.269164,1.02125 0,0.37208 0.08708,0.7125 0.269164,1.02916 0.182083,0.31667 0.427498,0.56208 0.744163,0.74416 0.316665,0.18209 0.657081,0.26917 1.029161,0.26917 0.364166,0 0.70458,-0.0871 1.021245,-0.26917 0.316667,-0.18208 0.562082,-0.42749 0.744165,-0.74416 0.18208,-0.31666 0.277081,-0.65708 0.277081,-1.02916 0,-0.36417 -0.095,-0.70458 -0.277081,-1.02125 -0.182083,-0.31666 -0.427498,-0.56208 -0.744165,-0.74416 z m -1.741658,1.02916 c 0.189999,-0.19791 0.435415,-0.30083 0.72833,-0.30083 0.284999,0 0.530414,0.10292 0.720414,0.30083 0.189998,0.19792 0.284999,0.44333 0.284999,0.73625 0,0.30083 -0.095,0.54625 -0.284999,0.74416 -0.19,0.19792 -0.435415,0.29292 -0.720414,0.29292 -0.292915,0 -0.538331,-0.095 -0.72833,-0.29292 -0.197915,-0.19791 -0.292914,-0.44333 -0.292914,-0.74416 0,-0.29292 0.095,-0.53833 0.292914,-0.73625 z" />
        <g
           transform="matrix(0.22440837,0,0,0.22440837,-85.810103,112.32673)"
           id="g6216"
           style="font-style:normal;font-variant:normal;font-weight:normal;font-stretch:normal;font-size:35.27777481px;line-height:1em;font-family:NordiquePro-Bold;-inkscape-font-specification:'NordiquePro-Bold, Normal';font-variant-ligatures:normal;font-variant-caps:normal;font-variant-numeric:normal;font-feature-settings:normal;text-align:start;letter-spacing:0px;word-spacing:0.0079375px;writing-mode:lr-tb;text-anchor:start;fill:#ffffff;fill-opacity:1;stroke-width:0.31923482">
          <path
             inkscape:connector-curvature="0"
             id="path6214"
             d="M 0.06304166,72.28233 V 97.999624 H 9.2960738 c 2.8823972,0 5.1044742,-0.625699 6.6662562,-1.877405 1.561756,-1.251714 2.342489,-3.02596 2.342489,-5.322672 0,-1.745503 -0.476224,-3.198543 -1.429385,-4.358391 -0.941652,-1.171327 -2.268009,-1.940398 -3.979069,-2.307869 1.423961,-0.229671 2.503091,-0.809778 3.23805,-1.739945 0.734933,-0.930176 1.102757,-2.18156 1.102757,-3.75481 0,-2.032597 -0.717894,-3.600138 -2.153338,-4.702556 -1.43547,-1.102426 -3.47972,-1.653646 -6.1324593,-1.653646 z m 4.48963514,3.427699 h 4.1966356 c 1.3848556,0 2.4139786,0.262003 3.0876876,0.785998 0.683048,0.523994 1.024731,1.314603 1.024731,2.371949 0,1.066701 -0.341683,1.861906 -1.024731,2.3859 -0.673709,0.514638 -1.702832,0.772046 -3.0876876,0.772046 H 4.5526768 Z m 0.015002,10.26759 H 9.483637 c 1.648883,0 2.86811,0.338719 3.65715,1.016475 0.799148,0.667643 1.198377,1.7097 1.198377,3.125908 0,1.406096 -0.399229,2.453021 -1.198377,3.140893 -0.78904,0.677759 -2.008267,1.016476 -3.65715,1.016476 H 4.5676787 Z"
             style="fill:#ffffff;fill-opacity:1;stroke-width:0.31923482" />
        </g>
      </g>
      <g
         style="stroke-width:1.18219829"
         transform="matrix(0.84556883,0,0,0.84619481,39.599486,65.144504)"
         id="g6528">
        <path
           id="path6184"
           d="m 273.54741,833.01529 a 38.820899,38.820899 0 0 0 -31.26424,15.88484 h 62.53261 a 38.820899,38.820899 0 0 0 -31.26785,-15.88484 z m -31.06787,62.03188 a 38.820899,38.820899 0 0 0 31.06787,15.60991 38.820899,38.820899 0 0 0 31.05857,-15.60991 z"
           style="opacity:1;fill:#005687;fill-opacity:1;stroke:#000000;stroke-width:1.18219829;stroke-miterlimit:4;stroke-dasharray:none;stroke-opacity:1"
           inkscape:connector-curvature="0" />
        <path
           style="opacity:1;fill:#800000;fill-opacity:1;stroke:#000000;stroke-width:0.31328258;stroke-miterlimit:4;stroke-dasharray:none;stroke-opacity:1"
           d="m 273.8905,836.88333 -22.95829,9.5214 0.81804,1.99572 h 44.44948 l 0.78858,-1.90375 z"
           id="path6376-0"
           inkscape:connector-curvature="0" />
        <path
           style="opacity:1;fill:#800000;fill-opacity:1;stroke:#000000;stroke-width:0.31328258;stroke-miterlimit:4;stroke-dasharray:none;stroke-opacity:1"
           d="m 258.5302,895.5469 15.3603,6.31849 15.21303,-6.31849 z"
           id="path6339"
           inkscape:connector-curvature="0" />
        <path
           inkscape:transform-center-y="-0.19510014"
           inkscape:transform-center-x="0.079357055"
           d="m -182.9727,757.61236 -1.80433,-0.86883 -1.51031,1.31509 0.26873,-1.98451 -1.71743,-1.03 1.97042,-0.35767 0.44888,-1.95166 0.94905,1.76345 1.99485,-0.17618 -1.38387,1.44754 z"
           inkscape:randomized="0"
           inkscape:rounded="0"
           inkscape:flatsided="false"
           sodipodi:arg2="1.4369683"
           sodipodi:arg1="0.80864979"
           sodipodi:r2="1.1998813"
           sodipodi:r1="2.8450398"
           sodipodi:cy="755.55438"
           sodipodi:cx="-184.93713"
           sodipodi:sides="5"
           id="path6222"
           style="opacity:1;fill:#ffffff;fill-opacity:1;stroke:none;stroke-width:1.18219829;stroke-miterlimit:4;stroke-dasharray:none;stroke-opacity:1"
           sodipodi:type="star"
           transform="rotate(2.4888014,-1999.1389,11170.106)" />
        <path
           sodipodi:type="star"
           style="opacity:1;fill:#ffffff;fill-opacity:1;stroke:none;stroke-width:1.18219829;stroke-miterlimit:4;stroke-dasharray:none;stroke-opacity:1"
           id="path6220"
           sodipodi:sides="5"
           sodipodi:cx="-193.82385"
           sodipodi:cy="747.41595"
           sodipodi:r1="2.8450398"
           sodipodi:r2="1.1998813"
           sodipodi:arg1="0.80864979"
           sodipodi:arg2="1.4369683"
           inkscape:flatsided="false"
           inkscape:rounded="0"
           inkscape:randomized="0"
           d="m -191.85942,749.47393 -1.80433,-0.86882 -1.51031,1.31508 0.26873,-1.9845 -1.71743,-1.03001 1.97042,-0.35767 0.44888,-1.95166 0.94905,1.76346 1.99485,-0.17619 -1.38387,1.44754 z"
           inkscape:transform-center-x="0.035825888"
           inkscape:transform-center-y="-0.23738399"
           transform="rotate(5.3321186,-979.11949,5812.1594)" />
        <path
           sodipodi:type="star"
           style="opacity:1;fill:#ffffff;fill-opacity:1;stroke:none;stroke-width:1.18219829;stroke-miterlimit:4;stroke-dasharray:none;stroke-opacity:1"
           id="path6224"
           sodipodi:sides="5"
           sodipodi:cx="-170.71841"
           sodipodi:cy="764.62817"
           sodipodi:r1="2.8450398"
           sodipodi:r2="1.1998813"
           sodipodi:arg1="0.80864979"
           sodipodi:arg2="1.4369683"
           inkscape:flatsided="false"
           inkscape:rounded="0"
           inkscape:randomized="0"
           d="m -168.75398,766.68615 -1.80434,-0.86882 -1.5103,1.31508 0.26873,-1.9845 -1.71743,-1.03001 1.97042,-0.35767 0.44888,-1.95166 0.94905,1.76346 1.99485,-0.17619 -1.38387,1.44754 z"
           inkscape:transform-center-x="-0.054160278"
           inkscape:transform-center-y="-0.21966319"
           transform="rotate(11.199416,-350.55757,3105.9186)" />
      </g>
      <path
         id="path6795-9-3-0-5"
         d="m 321.64002,841.23627 v 0.002 0 z"
         style="color:#000000;font-style:normal;font-variant:normal;font-weight:normal;font-stretch:normal;font-size:medium;line-height:normal;font-family:sans-serif;font-variant-ligatures:normal;font-variant-position:normal;font-variant-caps:normal;font-variant-numeric:normal;font-variant-alternates:normal;font-feature-settings:normal;text-indent:0;text-align:start;text-decoration:none;text-decoration-line:none;text-decoration-style:solid;text-decoration-color:#000000;letter-spacing:normal;word-spacing:normal;text-transform:none;writing-mode:lr-tb;direction:ltr;text-orientation:mixed;dominant-baseline:auto;baseline-shift:baseline;text-anchor:start;white-space:normal;shape-padding:0;clip-rule:nonzero;display:inline;overflow:visible;visibility:visible;opacity:1;isolation:auto;mix-blend-mode:normal;color-interpolation:sRGB;color-interpolation-filters:linearRGB;solid-color:#000000;solid-opacity:1;vector-effect:none;fill:#2b5d0a;fill-opacity:1;fill-rule:nonzero;stroke:none;stroke-width:0.26458332px;stroke-linecap:butt;stroke-linejoin:miter;stroke-miterlimit:4;stroke-dasharray:none;stroke-dashoffset:0;stroke-opacity:1;color-rendering:auto;image-rendering:auto;shape-rendering:auto;text-rendering:auto;enable-background:accumulate"
         inkscape:connector-curvature="0" />
    </g>
  </g>
</svg>
