<?xml version="1.0" standalone="no"?>
<!DOCTYPE svg PUBLIC "-//W3C//DTD SVG 20010904//EN"
 "http://www.w3.org/TR/2001/REC-SVG-20010904/DTD/svg10.dtd">
<svg version="1.0" xmlns="http://www.w3.org/2000/svg"
 width="200.000000pt" height="200.000000pt" viewBox="0 0 200.000000 200.000000"
 preserveAspectRatio="xMidYMid meet">
<metadata>
Created by potrace 1.11, written by Peter Selinger 2001-2013
</metadata>
<g transform="translate(0.000000,200.000000) scale(0.100000,-0.100000)"
fill="#000000" stroke="none">
<path d="M1038 1880 c-77 -23 -128 -95 -128 -180 0 -61 17 -96 65 -138 43 -38
69 -46 140 -40 66 6 114 39 144 101 26 53 26 99 2 152 -41 89 -133 132 -223
105z m172 -239 c0 -5 -14 -21 -31 -35 -51 -43 -156 -33 -191 18 -16 23 -4 26
107 26 63 0 115 -4 115 -9z"/>
<path d="M423 1805 c-27 -19 -37 -61 -23 -94 6 -14 113 -108 240 -211 l229
-185 0 -573 c1 -347 5 -580 11 -591 5 -10 23 -24 40 -31 35 -15 84 0 100 31 6
10 10 143 10 313 l0 296 60 0 60 0 0 -300 c0 -285 1 -301 20 -320 29 -29 63
-34 99 -16 17 9 32 18 33 19 2 1 5 222 8 492 l5 490 74 -123 c41 -68 84 -130
95 -138 32 -22 65 -17 98 16 24 24 29 37 25 59 -8 36 -271 469 -303 499 -22
19 -36 22 -108 22 -46 0 -124 3 -175 7 l-92 6 -212 174 c-224 183 -243 193
-294 158z"/>
</g>
</svg>
