<?xml version="1.0" standalone="no"?>
<!DOCTYPE svg PUBLIC "-//W3C//DTD SVG 20010904//EN"
 "http://www.w3.org/TR/2001/REC-SVG-20010904/DTD/svg10.dtd">
<svg version="1.0" xmlns="http://www.w3.org/2000/svg"
 width="2000.000000pt" height="2000.000000pt" viewBox="0 0 2000.000000 2000.000000"
 preserveAspectRatio="xMidYMid meet">
<metadata>
Created by potrace 1.11, written by Peter Selinger 2001-2013
</metadata>
<g transform="translate(0.000000,2000.000000) scale(0.100000,-0.100000)"
fill="#000000" stroke="none">
<path d="M9435 19989 c-1310 -81 -2503 -383 -3685 -934 -437 -203 -916 -476
-1340 -763 -938 -635 -1739 -1399 -2420 -2307 -359 -480 -645 -940 -915 -1470
-517 -1018 -860 -2137 -999 -3257 -64 -512 -80 -824 -73 -1417 5 -460 15 -636
57 -1006 301 -2636 1643 -5048 3730 -6704 1498 -1189 3297 -1922 5192 -2116
120 -12 316 -15 1040 -15 965 0 975 1 1398 60 1501 212 2908 751 4170 1595
402 269 733 526 1120 869 172 153 610 591 766 766 637 716 1129 1447 1545
2295 497 1015 794 2018 946 3190 l27 210 4 944 c3 1038 3 1033 -64 1501 -540
3743 -3169 6879 -6764 8068 -790 262 -1512 405 -2430 483 -161 14 -1122 20
-1305 8z m1050 -5024 c1385 -131 2631 -817 3490 -1920 113 -144 294 -416 390
-583 351 -616 563 -1286 635 -2012 31 -312 22 -774 -21 -1110 -172 -1333 -879
-2545 -1957 -3356 -868 -654 -1917 -1004 -3005 -1004 -1310 0 -2551 504 -3491
1420 -746 727 -1245 1658 -1431 2673 -110 604 -110 1210 1 1827 133 735 465
1489 923 2095 280 370 640 728 1013 1006 732 546 1612 883 2513 963 99 9 209
18 245 20 127 7 537 -4 695 -19z"/>
</g>
</svg>
