<?xml version="1.0" standalone="no"?>
<!DOCTYPE svg PUBLIC "-//W3C//DTD SVG 20010904//EN"
 "http://www.w3.org/TR/2001/REC-SVG-20010904/DTD/svg10.dtd">
<svg version="1.0" xmlns="http://www.w3.org/2000/svg"
 width="1266.000000pt" height="1266.000000pt" viewBox="0 0 1266.000000 1266.000000"
 preserveAspectRatio="xMidYMid meet">
<metadata>
Created by potrace 1.14, written by Peter Selinger 2001-2017
</metadata>
<g transform="translate(0.000000,1266.000000) scale(0.100000,-0.100000)"
fill="#000000" stroke="none">
<path d="M1075 12648 c-136 -12 -223 -37 -351 -98 -276 -133 -466 -374 -552
-700 -16 -61 -17 -256 -17 -2950 0 -1587 1 -2945 3 -3019 l3 -133 72 6 c40 4
86 9 102 11 17 3 50 7 75 10 37 3 322 38 595 72 28 3 64 7 80 9 17 1 53 5 80
8 28 4 66 8 85 11 82 9 146 18 160 20 8 2 49 6 90 10 41 4 77 8 80 10 3 2 41
6 85 10 44 4 87 9 96 10 9 2 38 6 65 9 27 3 68 8 92 11 23 3 59 7 80 10 20 2
118 14 217 25 99 12 191 23 204 25 14 3 52 7 85 10 93 9 93 9 90 63 -11 223
-7 271 40 472 69 293 194 739 236 844 5 12 23 62 40 111 117 332 295 710 457
970 71 114 105 163 206 300 121 162 349 399 507 526 215 173 362 264 685 424
134 67 259 136 300 167 199 150 326 332 380 545 26 97 24 283 -4 385 -26 99
-628 1603 -702 1753 l-34 70 -1780 0 c-979 0 -1811 -3 -1850 -7z"/>
<path d="M5137 12648 c-27 -3 -51 -9 -54 -11 -11 -11 41 -150 269 -717 60
-151 116 -288 123 -305 19 -42 48 -113 159 -390 53 -132 101 -249 105 -260 17
-38 134 -330 243 -604 59 -151 111 -277 114 -280 3 -3 67 -6 142 -6 115 0 157
-5 257 -29 66 -15 127 -29 136 -31 35 -7 415 -106 439 -114 14 -5 59 -19 100
-31 328 -94 779 -272 1030 -404 29 -16 132 -72 175 -96 258 -145 508 -334 721
-545 267 -264 451 -524 622 -878 34 -70 62 -129 62 -131 0 -3 13 -33 29 -68
16 -35 61 -135 101 -223 136 -302 223 -457 293 -524 31 -29 42 -33 84 -32 26
0 58 3 70 5 12 3 48 7 80 11 32 3 69 8 83 10 14 2 54 6 90 10 64 7 78 8 155
19 22 3 67 9 100 12 33 3 67 8 75 9 8 2 44 6 80 10 36 3 76 8 90 10 14 2 54 7
90 10 36 4 72 8 80 10 8 2 44 6 80 9 79 8 111 12 215 26 44 6 105 12 135 15
61 5 136 13 190 20 19 3 54 7 78 10 23 3 59 7 80 10 20 2 64 7 97 10 33 3 80
8 105 11 266 32 246 21 248 137 8 369 9 4383 1 4432 -55 349 -253 623 -559
776 -95 47 -153 67 -260 89 -75 16 -160 18 -750 20 -1891 5 -5761 5 -5803 -2z"/>
<path d="M6217 9554 c-1 -1 -47 -4 -102 -8 -151 -9 -316 -33 -495 -70 -28 -6
-151 -40 -225 -61 -27 -9 -57 -17 -66 -19 -9 -3 -46 -16 -81 -30 -36 -14 -68
-26 -72 -26 -4 0 -55 -21 -114 -46 -291 -127 -571 -300 -811 -500 -104 -88
-366 -359 -447 -464 -72 -94 -167 -230 -229 -330 -206 -330 -374 -795 -430
-1195 -4 -22 -8 -47 -10 -55 -12 -44 -20 -221 -20 -430 0 -225 4 -301 25 -435
5 -33 11 -77 14 -98 22 -147 103 -453 145 -552 5 -11 24 -58 42 -105 162 -425
514 -924 854 -1213 21 -17 48 -41 59 -52 12 -11 39 -33 61 -49 22 -17 42 -33
45 -36 11 -14 199 -144 284 -197 181 -112 409 -221 611 -292 210 -74 483 -141
646 -157 35 -3 67 -8 71 -10 11 -7 243 -18 373 -18 120 1 307 10 355 19 14 2
46 7 72 9 293 34 642 138 942 280 417 198 823 511 1095 846 20 25 39 47 42 50
3 3 25 32 50 65 24 33 46 62 49 65 14 12 160 241 194 302 102 187 178 353 237
523 29 84 92 302 103 360 14 68 17 84 31 165 20 116 28 181 40 330 9 121 3
460 -10 540 -2 14 -9 63 -15 110 -58 431 -217 877 -444 1245 -137 222 -268
386 -461 581 -253 256 -454 406 -774 581 -270 147 -648 278 -951 329 -14 2
-34 6 -45 9 -11 2 -47 7 -80 10 -33 3 -71 8 -85 10 -71 12 -461 28 -473 19z
m-1370 -2009 c1 -77 2 -273 3 -436 l0 -296 93 46 c119 60 213 83 357 87 180 5
333 -30 490 -112 271 -142 475 -429 517 -729 4 -27 7 -104 6 -170 -5 -478
-376 -892 -851 -951 -74 -10 -191 -10 -267 0 -315 39 -596 240 -745 533 -29
59 -83 203 -75 203 2 0 0 14 -5 31 -5 17 -12 57 -16 88 -10 76 -12 1823 -3
1836 5 7 96 10 251 10 l243 0 2 -140z m2290 -265 c1 -223 2 -408 2 -412 1 -4
30 6 65 23 95 45 173 58 311 54 127 -4 144 -6 215 -24 141 -37 250 -100 357
-206 69 -70 89 -97 131 -186 59 -122 77 -188 98 -364 12 -98 11 -1146 -1
-1153 -17 -11 -485 -8 -486 3 -1 6 -2 255 -3 555 -2 300 -6 563 -10 585 -39
211 -144 307 -335 307 -181 0 -276 -73 -322 -248 -20 -75 -21 -105 -20 -624 0
-300 -2 -554 -4 -565 -4 -20 -12 -20 -250 -20 l-246 0 0 1290 c0 710 0 1313 1
1340 l0 50 248 0 247 0 2 -405z"/>
<path d="M5280 6463 c-112 -14 -208 -61 -291 -143 -109 -107 -151 -220 -145
-385 5 -103 27 -176 79 -257 92 -145 243 -219 432 -213 141 5 234 45 327 141
96 98 139 221 134 378 -7 215 -125 383 -320 453 -52 18 -164 32 -216 26z"/>
<path d="M12407 6903 c-1 0 -31 -4 -67 -8 -36 -3 -76 -8 -90 -10 -56 -8 -113
-16 -275 -35 -93 -11 -188 -22 -210 -25 -22 -3 -80 -10 -130 -15 -86 -10 -129
-15 -205 -25 -53 -7 -109 -13 -170 -20 -30 -3 -71 -8 -90 -10 -70 -10 -126
-16 -170 -21 -25 -2 -58 -6 -75 -8 -16 -3 -57 -7 -90 -11 -33 -4 -69 -8 -81
-10 -11 -2 -52 -6 -90 -10 -38 -4 -76 -9 -84 -10 -9 -2 -43 -6 -75 -10 -33 -4
-71 -8 -84 -11 -14 -2 -54 -6 -90 -10 -36 -3 -74 -8 -86 -10 -11 -2 -49 -7
-85 -10 -36 -4 -70 -10 -76 -15 -10 -8 -10 -29 0 -229 1 -30 -1 -71 -5 -90 -4
-19 -11 -50 -14 -69 -3 -19 -8 -37 -10 -41 -2 -4 -7 -22 -10 -41 -14 -84 -116
-478 -165 -640 -138 -456 -298 -843 -493 -1194 -212 -381 -506 -733 -833 -995
-10 -9 -53 -40 -94 -70 -70 -52 -91 -66 -195 -132 -90 -57 -198 -115 -355
-190 -144 -70 -275 -140 -290 -157 -3 -3 -27 -24 -55 -45 -167 -132 -292 -319
-340 -511 -21 -86 -26 -246 -9 -334 13 -66 60 -210 94 -286 10 -22 69 -166
131 -320 294 -735 449 -1117 483 -1190 l36 -80 1818 1 c999 1 1837 4 1862 8
93 15 176 39 265 77 17 7 32 13 35 13 27 6 169 103 230 157 177 155 299 377
339 614 7 40 9 1053 7 3045 -2 1642 -4 2986 -5 2988 -1 3 -101 -1 -104 -5z"/>
<path d="M2308 5685 c-2 -2 -37 -6 -78 -10 -41 -4 -82 -8 -90 -10 -8 -2 -43
-6 -77 -10 -35 -4 -73 -8 -85 -10 -13 -2 -48 -6 -78 -10 -30 -3 -66 -8 -80
-10 -14 -2 -54 -6 -90 -10 -36 -3 -72 -8 -80 -10 -8 -2 -44 -7 -80 -10 -36 -3
-81 -8 -100 -10 -19 -3 -75 -9 -125 -15 -49 -6 -106 -12 -125 -15 -19 -2 -80
-9 -135 -15 -55 -6 -113 -13 -130 -15 -16 -2 -57 -7 -90 -10 -33 -4 -71 -8
-85 -11 -14 -2 -54 -6 -90 -10 -36 -3 -76 -7 -90 -9 -14 -2 -50 -6 -80 -10
-30 -3 -71 -8 -90 -10 -19 -2 -60 -7 -90 -10 -126 -14 -167 -23 -172 -38 -14
-42 -19 -4453 -6 -4541 58 -377 340 -705 704 -817 149 -46 175 -48 854 -49
2924 -6 5783 -5 5819 2 24 4 47 10 50 13 6 7 -6 41 -81 235 -106 273 -381 958
-408 1015 -5 11 -66 162 -136 335 -69 173 -142 353 -161 400 -19 47 -39 96
-44 110 -6 14 -50 124 -98 245 l-87 220 -134 0 c-147 1 -165 4 -495 85 -304
75 -440 114 -685 197 -566 190 -1041 434 -1404 718 -412 322 -716 711 -936
1196 -28 63 -65 142 -81 177 -16 34 -29 64 -29 66 0 5 -54 122 -135 292 -83
173 -139 268 -193 327 l-45 48 -63 -2 c-35 -1 -65 -3 -66 -4z"/>
</g>
</svg>
