<?xml version="1.0" encoding="UTF-8" standalone="no"?>
<svg
   xmlns:dc="http://purl.org/dc/elements/1.1/"
   xmlns:cc="http://creativecommons.org/ns#"
   xmlns:rdf="http://www.w3.org/1999/02/22-rdf-syntax-ns#"
   xmlns:svg="http://www.w3.org/2000/svg"
   xmlns="http://www.w3.org/2000/svg"
   xmlns:sodipodi="http://sodipodi.sourceforge.net/DTD/sodipodi-0.dtd"
   xmlns:inkscape="http://www.inkscape.org/namespaces/inkscape"
   width="196.25494mm"
   height="224.3882mm"
   viewBox="0 0 196.25494 224.3882"
   version="1.1"
   id="svg839"
   inkscape:version="1.0.1 (3bc2e813f5, 2020-09-07)"
   sodipodi:docname="build-hello-card-1.svg">
  <defs
     id="defs833" />
  <sodipodi:namedview
     id="base"
     pagecolor="#ffffff"
     bordercolor="#666666"
     borderopacity="1.0"
     inkscape:pageopacity="0.0"
     inkscape:pageshadow="2"
     inkscape:zoom="0.49497475"
     inkscape:cx="532.42328"
     inkscape:cy="674.43968"
     inkscape:document-units="mm"
     inkscape:current-layer="g4793"
     inkscape:document-rotation="0"
     showgrid="false"
     inkscape:window-width="1346"
     inkscape:window-height="1009"
     inkscape:window-x="357"
     inkscape:window-y="88"
     inkscape:window-maximized="0"
     showguides="true"
     inkscape:guide-bbox="true" />
  <metadata
     id="metadata836">
    <rdf:RDF>
      <cc:Work
         rdf:about="">
        <dc:format>image/svg+xml</dc:format>
        <dc:type
           rdf:resource="http://purl.org/dc/dcmitype/StillImage" />
        <dc:title></dc:title>
      </cc:Work>
    </rdf:RDF>
  </metadata>
  <g
     inkscape:label="Layer 1"
     inkscape:groupmode="layer"
     id="layer1"
     transform="translate(14.1873,-3.9579001)">
    <g
       id="g4457"
       transform="translate(815.48497,707.35322)">
      <g
         id="g4793"
         transform="translate(23.434524,-6.8035714)">
        <g
           id="g5018"
           transform="translate(432.9488,-22.383934)">
          <g
             id="g4960">
            <g
               id="g4614"
               transform="translate(-732.90059,-105.62651)">
              <g
                 id="g4511">
                <path
                   inkscape:connector-curvature="0"
                   id="path3689"
                   d="m 330.37327,-117.62693 h 193.7384 c 0.63401,0 1.14458,0.51052 1.14458,1.1446 V -6.8532382 c 0,0.6340755 -0.51057,1.144594 -1.14458,1.144594 h -193.7384 c -0.63417,0 -1.14458,-0.5105185 -1.14458,-1.144594 V -116.48233 c 0,-0.63408 0.51041,-1.1446 1.14458,-1.1446 z"
                   style="display:inline;fill:#ffffff;fill-opacity:1;stroke:#000000;stroke-width:0.227389;stroke-miterlimit:4;stroke-dasharray:none;stroke-opacity:1"
                   transform="translate(-882.27,-450.84068)" />
                <path
                   inkscape:connector-curvature="0"
                   style="display:inline;fill:#ffffff;fill-opacity:1;stroke:#000000;stroke-width:0.227249;stroke-miterlimit:4;stroke-dasharray:none;stroke-opacity:1"
                   d="m 330.37343,-5.3150458 h 193.61838 c 0.63385,0 1.14393,0.5102901 1.14393,1.1439253 V 105.39003 c 0,0.63384 -0.51008,1.14392 -1.14393,1.14392 H 330.37343 c -0.63352,0 -1.14392,-0.51008 -1.14392,-1.14392 V -4.1711205 c 0,-0.6336352 0.5104,-1.1439253 1.14392,-1.1439253 z"
                   id="path3691"
                   transform="translate(-882.27,-450.84068)" />
                <path
                   inkscape:connector-curvature="0"
                   style="font-style:normal;font-variant:normal;font-weight:normal;font-stretch:normal;font-size:50.8px;line-height:1.25;font-family:NordiquePro-Bold;-inkscape-font-specification:'NordiquePro-Bold, Normal';font-variant-ligatures:normal;font-variant-caps:normal;font-variant-numeric:normal;font-feature-settings:normal;text-align:start;letter-spacing:0px;word-spacing:0px;writing-mode:lr-tb;text-anchor:start;fill:#000000;fill-opacity:1;stroke:none;stroke-width:0.0516827;stroke-opacity:1"
                   id="path3693"
                   d="m 385.13809,48.600311 h -1.76806 l -1.1921,4.406742 -1.1921,-4.406742 h -1.74127 l -1.2055,4.406742 -1.17871,-4.406742 h -1.76806 l 2.07614,6.697192 h 1.74127 l 1.20549,-4.018311 1.1921,4.018311 h 1.74127 z"
                   transform="translate(-882.27,-450.84068)" />
                <path
                   inkscape:connector-curvature="0"
                   style="font-style:normal;font-variant:normal;font-weight:normal;font-stretch:normal;font-size:50.8px;line-height:1.25;font-family:NordiquePro-Bold;-inkscape-font-specification:'NordiquePro-Bold, Normal';font-variant-ligatures:normal;font-variant-caps:normal;font-variant-numeric:normal;font-feature-settings:normal;text-align:start;letter-spacing:0px;word-spacing:0px;writing-mode:lr-tb;text-anchor:start;fill:#000000;fill-opacity:1;stroke:none;stroke-width:0.0516827;stroke-opacity:1"
                   id="path3695"
                   d="m 395.18389,48.600311 h -1.76807 l -1.1921,4.406742 -1.1921,-4.406742 h -1.74127 l -1.20549,4.406742 -1.17871,-4.406742 h -1.76806 l 2.07613,6.697192 h 1.74127 l 1.2055,-4.018311 1.1921,4.018311 h 1.74127 z"
                   transform="translate(-882.27,-450.84068)" />
                <path
                   inkscape:connector-curvature="0"
                   style="font-style:normal;font-variant:normal;font-weight:normal;font-stretch:normal;font-size:50.8px;line-height:1.25;font-family:NordiquePro-Bold;-inkscape-font-specification:'NordiquePro-Bold, Normal';font-variant-ligatures:normal;font-variant-caps:normal;font-variant-numeric:normal;font-feature-settings:normal;text-align:start;letter-spacing:0px;word-spacing:0px;writing-mode:lr-tb;text-anchor:start;fill:#000000;fill-opacity:1;stroke:none;stroke-width:0.0516827;stroke-opacity:1"
                   id="path3697"
                   d="m 405.22968,48.600311 h -1.76806 l -1.1921,4.406742 -1.1921,-4.406742 h -1.74128 l -1.20549,4.406742 -1.17871,-4.406742 h -1.76806 l 2.07613,6.697192 h 1.74127 l 1.2055,-4.018311 1.1921,4.018311 h 1.74127 z"
                   transform="translate(-882.27,-450.84068)" />
                <path
                   inkscape:connector-curvature="0"
                   style="font-style:normal;font-variant:normal;font-weight:normal;font-stretch:normal;font-size:50.8px;line-height:1.25;font-family:NordiquePro-Bold;-inkscape-font-specification:'NordiquePro-Bold, Normal';font-variant-ligatures:normal;font-variant-caps:normal;font-variant-numeric:normal;font-feature-settings:normal;text-align:start;letter-spacing:0px;word-spacing:0px;writing-mode:lr-tb;text-anchor:start;fill:#000000;fill-opacity:1;stroke:none;stroke-width:0.0516827;stroke-opacity:1"
                   id="path3699"
                   d="m 407.6459,45.921431 v 6.027467 c 0,0.62955 0.14733,1.205504 0.45541,1.741284 0.30807,0.535761 0.7233,0.951 1.25907,1.259064 0.52239,0.308064 1.09835,0.455413 1.72788,0.455413 0.61614,0 1.1921,-0.147407 1.72788,-0.455413 0.52238,-0.308064 0.9376,-0.723303 1.25907,-1.259064 0.30807,-0.53578 0.4688,-1.111734 0.4688,-1.741284 0,-0.616128 -0.16073,-1.192101 -0.4688,-1.727881 -0.32147,-0.535761 -0.73669,-0.951 -1.25907,-1.259064 -0.53578,-0.308064 -1.11174,-0.468797 -1.72788,-0.468797 -0.65632,0 -1.21889,0.174138 -1.68769,0.508971 v -3.080696 z m 2.22347,4.781788 c 0.32147,-0.334853 0.73669,-0.508991 1.23229,-0.508991 0.48219,0 0.89742,0.174138 1.21889,0.508991 0.32146,0.334872 0.48219,0.750092 0.48219,1.245679 0,0.50899 -0.16073,0.92421 -0.48219,1.259082 -0.32147,0.334853 -0.7367,0.495587 -1.21889,0.495587 -0.4956,0 -0.91082,-0.160772 -1.23229,-0.495587 -0.33486,-0.334872 -0.49559,-0.750092 -0.49559,-1.259082 0,-0.495587 0.16073,-0.910807 0.49559,-1.245679 z"
                   transform="translate(-882.27,-450.84068)" />
                <path
                   inkscape:connector-curvature="0"
                   style="font-style:normal;font-variant:normal;font-weight:normal;font-stretch:normal;font-size:50.8px;line-height:1.25;font-family:NordiquePro-Bold;-inkscape-font-specification:'NordiquePro-Bold, Normal';font-variant-ligatures:normal;font-variant-caps:normal;font-variant-numeric:normal;font-feature-settings:normal;text-align:start;letter-spacing:0px;word-spacing:0px;writing-mode:lr-tb;text-anchor:start;fill:#000000;fill-opacity:1;stroke:none;stroke-width:0.0516827;stroke-opacity:1"
                   id="path3701"
                   d="m 419.43715,48.600311 h 1.74127 v 3.522725 c 0,1.098329 -0.26788,1.915384 -0.80366,2.464568 -0.53578,0.549165 -1.25907,0.817055 -2.1431,0.817055 -0.89743,0 -1.60733,-0.26789 -2.14311,-0.817055 -0.53577,-0.549184 -0.80366,-1.366239 -0.80366,-2.464568 v -3.522725 h 1.74127 v 3.522725 c 0,0.549164 0.0937,0.950999 0.28128,1.205485 0.18753,0.254505 0.4956,0.375046 0.92422,0.375046 0.41522,0 0.72329,-0.120483 0.91082,-0.375046 0.18752,-0.254486 0.29467,-0.656321 0.29467,-1.205485 z"
                   transform="translate(-882.27,-450.84068)" />
                <path
                   inkscape:connector-curvature="0"
                   style="font-style:normal;font-variant:normal;font-weight:normal;font-stretch:normal;font-size:50.8px;line-height:1.25;font-family:NordiquePro-Bold;-inkscape-font-specification:'NordiquePro-Bold, Normal';font-variant-ligatures:normal;font-variant-caps:normal;font-variant-numeric:normal;font-feature-settings:normal;text-align:start;letter-spacing:0px;word-spacing:0px;writing-mode:lr-tb;text-anchor:start;fill:#008000;fill-opacity:1;stroke-width:1.90941"
                   id="path3703"
                   d="m 422.40757,47.595734 c 0.20091,0.200908 0.45541,0.29466 0.75008,0.29466 0.28129,0 0.52239,-0.09375 0.7233,-0.29466 0.20092,-0.200927 0.30807,-0.455413 0.30807,-0.750092 0,-0.281294 -0.10715,-0.522376 -0.30807,-0.723303 -0.20091,-0.200908 -0.44201,-0.308064 -0.7233,-0.308064 -0.29467,0 -0.54917,0.107118 -0.75008,0.308064 -0.20092,0.200927 -0.29468,0.442009 -0.29468,0.723303 0,0.294679 0.0937,0.549165 0.29468,0.750092 z"
                   transform="translate(-882.27,-450.84068)" />
                <path
                   inkscape:connector-curvature="0"
                   style="font-style:normal;font-variant:normal;font-weight:normal;font-stretch:normal;font-size:50.8px;line-height:1.25;font-family:NordiquePro-Bold;-inkscape-font-specification:'NordiquePro-Bold, Normal';font-variant-ligatures:normal;font-variant-caps:normal;font-variant-numeric:normal;font-feature-settings:normal;text-align:start;letter-spacing:0px;word-spacing:0px;writing-mode:lr-tb;text-anchor:start;fill:#000000;fill-opacity:1;stroke:none;stroke-width:0.0516827;stroke-opacity:1"
                   id="path3705"
                   d="m 422.28702,48.600311 v 6.697192 h 1.74127 v -6.697192 z"
                   transform="translate(-882.27,-450.84068)" />
                <path
                   inkscape:connector-curvature="0"
                   style="font-style:normal;font-variant:normal;font-weight:normal;font-stretch:normal;font-size:50.8px;line-height:1.25;font-family:NordiquePro-Bold;-inkscape-font-specification:'NordiquePro-Bold, Normal';font-variant-ligatures:normal;font-variant-caps:normal;font-variant-numeric:normal;font-feature-settings:normal;text-align:start;letter-spacing:0px;word-spacing:0px;writing-mode:lr-tb;text-anchor:start;fill:#000000;fill-opacity:1;stroke:none;stroke-width:0.0516827;stroke-opacity:1"
                   id="path3707"
                   d="m 425.2522,55.297503 h 1.74127 v -9.376072 h -1.74127 z"
                   transform="translate(-882.27,-450.84068)" />
                <path
                   inkscape:connector-curvature="0"
                   style="font-style:normal;font-variant:normal;font-weight:normal;font-stretch:normal;font-size:50.8px;line-height:1.25;font-family:NordiquePro-Bold;-inkscape-font-specification:'NordiquePro-Bold, Normal';font-variant-ligatures:normal;font-variant-caps:normal;font-variant-numeric:normal;font-feature-settings:normal;text-align:start;letter-spacing:0px;word-spacing:0px;writing-mode:lr-tb;text-anchor:start;fill:#000000;fill-opacity:1;stroke:none;stroke-width:0.0516827;stroke-opacity:1"
                   id="path3709"
                   d="m 434.15215,53.690182 c 0.30807,-0.53578 0.4688,-1.111734 0.4688,-1.741284 v -6.027467 h -1.75466 v 3.080696 c -0.4822,-0.334853 -1.04477,-0.508971 -1.6877,-0.508971 -0.62953,0 -1.20549,0.160772 -1.72787,0.468797 -0.53578,0.308064 -0.951,0.723303 -1.25908,1.259064 -0.32146,0.53578 -0.4688,1.111753 -0.4688,1.727881 0,0.62955 0.14733,1.205504 0.4688,1.741284 0.30808,0.535761 0.7233,0.951 1.25908,1.259064 0.52238,0.308064 1.09834,0.455413 1.72787,0.455413 0.61614,0 1.1921,-0.147407 1.72788,-0.455413 0.52238,-0.308064 0.93761,-0.723303 1.24568,-1.259064 z m -4.20584,-2.986963 c 0.32146,-0.334853 0.7233,-0.508991 1.21889,-0.508991 0.4822,0 0.89742,0.174138 1.23228,0.508991 0.32147,0.334872 0.4956,0.750092 0.4956,1.245679 0,0.50899 -0.17412,0.92421 -0.4956,1.259082 -0.33486,0.334853 -0.75008,0.495587 -1.23228,0.495587 -0.49559,0 -0.89743,-0.160772 -1.21889,-0.495587 -0.32147,-0.334872 -0.4822,-0.750092 -0.4822,-1.259082 0,-0.495587 0.16074,-0.910807 0.4822,-1.245679 z"
                   transform="translate(-882.27,-450.84068)" />
                <path
                   d="m 440.74946,49.323595 c -0.53578,-0.549165 -1.25908,-0.830439 -2.14311,-0.830439 -0.4822,0 -0.88403,0.120483 -1.20549,0.334852 v -2.906577 h -1.74127 v 9.376072 h 1.74127 v -3.522724 c 0,-0.53578 0.0938,-0.937615 0.28128,-1.192101 0.18752,-0.254505 0.49559,-0.38845 0.92421,-0.38845 0.41523,0 0.7233,0.13404 0.91082,0.38845 0.18752,0.254486 0.29468,0.656321 0.29468,1.192101 v 3.522724 h 1.74127 v -3.522724 c 0,-1.084945 -0.26789,-1.902 -0.80366,-2.451184 z"
                   id="path3711"
                   style="font-style:normal;font-variant:normal;font-weight:normal;font-stretch:normal;font-size:50.8px;line-height:1.25;font-family:NordiquePro-Bold;-inkscape-font-specification:'NordiquePro-Bold, Normal';font-variant-ligatures:normal;font-variant-caps:normal;font-variant-numeric:normal;font-feature-settings:normal;text-align:start;letter-spacing:0px;word-spacing:0px;writing-mode:lr-tb;text-anchor:start;fill:#000000;fill-opacity:1;stroke:none;stroke-width:0.0516827;stroke-opacity:1"
                   inkscape:connector-curvature="0"
                   transform="translate(-882.27,-450.84068)" />
                <path
                   d="m 442.73183,50.247806 c -0.29468,0.53578 -0.44202,1.098349 -0.44202,1.714496 0,0.629531 0.14733,1.205485 0.45541,1.72788 0.30807,0.535761 0.7233,0.951 1.25908,1.259064 0.52238,0.308064 1.09834,0.455413 1.74127,0.455413 0.69651,0 1.32604,-0.187504 1.902,-0.575954 0.56257,-0.375046 0.99119,-0.884037 1.27247,-1.500184 l -2.07613,-0.01337 c -0.14733,0.120484 -0.30807,0.214312 -0.4822,0.281275 -0.17412,0.08039 -0.40183,0.107118 -0.66972,0.107118 -0.40183,0 -0.73669,-0.09375 -1.00458,-0.281275 -0.26789,-0.187504 -0.44201,-0.455413 -0.52238,-0.790266 h 4.96932 c 0.0402,-0.26789 0.0536,-0.535779 0.0536,-0.830458 -0.0268,-0.669725 -0.20092,-1.259083 -0.54917,-1.768055 -0.34826,-0.495606 -0.77688,-0.870652 -1.29926,-1.138523 -0.53578,-0.26789 -1.08495,-0.401835 -1.64751,-0.401835 -0.62954,0 -1.20549,0.160773 -1.72788,0.482183 -0.52238,0.321468 -0.9376,0.736707 -1.23228,1.272468 z m 4.59428,0.991193 h -3.16108 c 0.13394,-0.321468 0.34825,-0.575954 0.61614,-0.763477 0.26789,-0.187504 0.58935,-0.281294 0.9644,-0.281294 0.33486,0 0.64293,0.107118 0.93761,0.294679 0.29467,0.187504 0.50898,0.442028 0.64293,0.750092 z"
                   id="path3713"
                   style="font-style:normal;font-variant:normal;font-weight:normal;font-stretch:normal;font-size:50.8px;line-height:1.25;font-family:NordiquePro-Bold;-inkscape-font-specification:'NordiquePro-Bold, Normal';font-variant-ligatures:normal;font-variant-caps:normal;font-variant-numeric:normal;font-feature-settings:normal;text-align:start;letter-spacing:0px;word-spacing:0px;writing-mode:lr-tb;text-anchor:start;fill:#000000;fill-opacity:1;stroke:none;stroke-width:0.0516827;stroke-opacity:1"
                   inkscape:connector-curvature="0"
                   transform="translate(-882.27,-450.84068)" />
                <path
                   d="m 449.91728,55.297503 h 1.74128 v -9.376072 h -1.74128 z"
                   id="path3715"
                   style="font-style:normal;font-variant:normal;font-weight:normal;font-stretch:normal;font-size:50.8px;line-height:1.25;font-family:NordiquePro-Bold;-inkscape-font-specification:'NordiquePro-Bold, Normal';font-variant-ligatures:normal;font-variant-caps:normal;font-variant-numeric:normal;font-feature-settings:normal;text-align:start;letter-spacing:0px;word-spacing:0px;writing-mode:lr-tb;text-anchor:start;fill:#000000;fill-opacity:1;stroke:none;stroke-width:0.0516827;stroke-opacity:1"
                   inkscape:connector-curvature="0"
                   transform="translate(-882.27,-450.84068)" />
                <path
                   d="m 452.71651,55.297503 h 1.74127 v -9.376072 h -1.74127 z"
                   id="path3717"
                   style="font-style:normal;font-variant:normal;font-weight:normal;font-stretch:normal;font-size:50.8px;line-height:1.25;font-family:NordiquePro-Bold;-inkscape-font-specification:'NordiquePro-Bold, Normal';font-variant-ligatures:normal;font-variant-caps:normal;font-variant-numeric:normal;font-feature-settings:normal;text-align:start;letter-spacing:0px;word-spacing:0px;writing-mode:lr-tb;text-anchor:start;fill:#000000;fill-opacity:1;stroke:none;stroke-width:0.0516827;stroke-opacity:1"
                   inkscape:connector-curvature="0"
                   transform="translate(-882.27,-450.84068)" />
                <path
                   d="m 460.37077,48.961953 c -0.53577,-0.308064 -1.11173,-0.468797 -1.72787,-0.468797 -0.62954,0 -1.2055,0.160772 -1.74127,0.468797 -0.53578,0.308064 -0.95101,0.723303 -1.25908,1.259064 -0.30807,0.53578 -0.45541,1.111753 -0.45541,1.727881 0,0.62955 0.14733,1.205504 0.45541,1.741284 0.30807,0.535761 0.7233,0.951 1.25908,1.259064 0.53577,0.308064 1.11173,0.455413 1.74127,0.455413 0.61614,0 1.1921,-0.147407 1.72787,-0.455413 0.53578,-0.308064 0.95101,-0.723303 1.25908,-1.259064 0.30807,-0.53578 0.4688,-1.111734 0.4688,-1.741284 0,-0.616128 -0.16073,-1.192101 -0.4688,-1.727881 -0.30807,-0.535761 -0.7233,-0.951 -1.25908,-1.259064 z m -2.94676,1.741266 c 0.32146,-0.334853 0.73669,-0.508991 1.23228,-0.508991 0.4822,0 0.89743,0.174138 1.21889,0.508991 0.32147,0.334872 0.4822,0.750092 0.4822,1.245679 0,0.50899 -0.16073,0.92421 -0.4822,1.259082 -0.32146,0.334853 -0.73669,0.495587 -1.21889,0.495587 -0.49559,0 -0.91082,-0.160772 -1.23228,-0.495587 -0.33486,-0.334872 -0.49559,-0.750092 -0.49559,-1.259082 0,-0.495587 0.16073,-0.910807 0.49559,-1.245679 z"
                   id="path3719"
                   style="font-style:normal;font-variant:normal;font-weight:normal;font-stretch:normal;font-size:50.8px;line-height:1.25;font-family:NordiquePro-Bold;-inkscape-font-specification:'NordiquePro-Bold, Normal';font-variant-ligatures:normal;font-variant-caps:normal;font-variant-numeric:normal;font-feature-settings:normal;text-align:start;letter-spacing:0px;word-spacing:0px;writing-mode:lr-tb;text-anchor:start;fill:#000000;fill-opacity:1;stroke:none;stroke-width:0.0516827;stroke-opacity:1"
                   inkscape:connector-curvature="0"
                   transform="translate(-882.27,-450.84068)" />
                <path
                   d="m 466.6335,54.949246 c 0.53577,0.308064 1.11173,0.455413 1.74127,0.455413 0.77687,0 1.45999,-0.227716 2.07613,-0.68311 0.60275,-0.455413 1.01797,-1.031367 1.23228,-1.75467 h -1.88861 c -0.16073,0.241101 -0.36165,0.41522 -0.60274,0.549165 -0.2411,0.134041 -0.50899,0.187504 -0.80367,0.187504 -0.49559,0 -0.91082,-0.160772 -1.23228,-0.495587 -0.33486,-0.334872 -0.4956,-0.750092 -0.4956,-1.259083 0,-0.495586 0.16074,-0.910806 0.4956,-1.245678 0.32146,-0.334853 0.73669,-0.508991 1.23228,-0.508991 0.30807,0 0.58935,0.08039 0.84385,0.214312 0.25449,0.147406 0.45541,0.348257 0.61614,0.589358 h 1.84843 c -0.21431,-0.723303 -0.61615,-1.326046 -1.23229,-1.794844 -0.61614,-0.468798 -1.31265,-0.709899 -2.08952,-0.709899 -0.62954,0 -1.2055,0.160773 -1.74127,0.468798 -0.53578,0.308064 -0.95101,0.723303 -1.25908,1.259064 -0.30807,0.53578 -0.45541,1.111753 -0.45541,1.72788 0,0.629551 0.14735,1.205505 0.45541,1.741285 0.30807,0.535761 0.7233,0.951 1.25908,1.259064 z"
                   id="path3721"
                   style="font-style:normal;font-variant:normal;font-weight:normal;font-stretch:normal;font-size:50.8px;line-height:1.25;font-family:NordiquePro-Bold;-inkscape-font-specification:'NordiquePro-Bold, Normal';font-variant-ligatures:normal;font-variant-caps:normal;font-variant-numeric:normal;font-feature-settings:normal;text-align:start;letter-spacing:0px;word-spacing:0px;writing-mode:lr-tb;text-anchor:start;fill:#000000;fill-opacity:1;stroke:none;stroke-width:0.0516827;stroke-opacity:1"
                   inkscape:connector-curvature="0"
                   transform="translate(-882.27,-450.84068)" />
                <path
                   d="m 474.10275,54.949246 c 0.52239,0.308064 1.09834,0.455413 1.72788,0.455413 0.37504,0 0.7233,-0.08039 1.05816,-0.241101 0.32146,-0.160772 0.53577,-0.348257 0.64293,-0.575954 v 0.709899 h 1.74127 v -3.348605 c 0,-0.616128 -0.16073,-1.192101 -0.4688,-1.727881 -0.30808,-0.535761 -0.7233,-0.951 -1.24568,-1.259064 -0.53578,-0.308064 -1.11174,-0.468797 -1.72788,-0.468797 -0.62954,0 -1.20549,0.160772 -1.72788,0.468797 -0.53577,0.308064 -0.951,0.723303 -1.25907,1.259064 -0.32147,0.53578 -0.4688,1.111753 -0.4688,1.727881 0,0.62955 0.14733,1.205504 0.4688,1.741284 0.30807,0.535761 0.7233,0.951 1.25907,1.259064 z m 2.96016,-1.741266 c -0.32146,0.334853 -0.73669,0.495587 -1.21889,0.495587 -0.49559,0 -0.91082,-0.160772 -1.23228,-0.495587 -0.33486,-0.334872 -0.49559,-0.750092 -0.49559,-1.259082 0,-0.495587 0.16073,-0.910807 0.49559,-1.245679 0.32146,-0.334853 0.73669,-0.508991 1.23228,-0.508991 0.4822,0 0.89743,0.174138 1.21889,0.508991 0.32147,0.334872 0.4822,0.750092 0.4822,1.245679 0,0.50899 -0.16073,0.92421 -0.4822,1.259082 z"
                   id="path3723"
                   style="font-style:normal;font-variant:normal;font-weight:normal;font-stretch:normal;font-size:50.8px;line-height:1.25;font-family:NordiquePro-Bold;-inkscape-font-specification:'NordiquePro-Bold, Normal';font-variant-ligatures:normal;font-variant-caps:normal;font-variant-numeric:normal;font-feature-settings:normal;text-align:start;letter-spacing:0px;word-spacing:0px;writing-mode:lr-tb;text-anchor:start;fill:#000000;fill-opacity:1;stroke:none;stroke-width:0.0516827;stroke-opacity:1"
                   inkscape:connector-curvature="0"
                   transform="translate(-882.27,-450.84068)" />
                <path
                   d="m 405.28752,54.919497 c 0.20092,0.200908 0.45541,0.294679 0.75009,0.294679 0.28128,0 0.52238,-0.09375 0.7233,-0.294679 0.20091,-0.200908 0.30807,-0.455413 0.30807,-0.750092 0,-0.281274 -0.10716,-0.522375 -0.30807,-0.723283 -0.20092,-0.200927 -0.44202,-0.308083 -0.7233,-0.308083 -0.29468,0 -0.54917,0.107117 -0.75009,0.308083 -0.20091,0.200908 -0.29467,0.442009 -0.29467,0.723283 0,0.294679 0.0937,0.549184 0.29467,0.750092 z"
                   id="path3725"
                   style="font-style:normal;font-variant:normal;font-weight:normal;font-stretch:normal;font-size:50.8px;line-height:1.25;font-family:NordiquePro-Bold;-inkscape-font-specification:'NordiquePro-Bold, Normal';font-variant-ligatures:normal;font-variant-caps:normal;font-variant-numeric:normal;font-feature-settings:normal;text-align:start;letter-spacing:0px;word-spacing:0px;writing-mode:lr-tb;text-anchor:start;fill:#008000;fill-opacity:1;stroke-width:1.90941"
                   inkscape:connector-curvature="0"
                   transform="translate(-882.27,-450.84068)" />
                <path
                   inkscape:connector-curvature="0"
                   style="font-style:normal;font-variant:normal;font-weight:normal;font-stretch:normal;font-size:50.8px;line-height:1.25;font-family:NordiquePro-Bold;-inkscape-font-specification:'NordiquePro-Bold, Normal';font-variant-ligatures:normal;font-variant-caps:normal;font-variant-numeric:normal;font-feature-settings:normal;text-align:start;letter-spacing:0px;word-spacing:0px;writing-mode:lr-tb;text-anchor:start;fill:#008000;fill-opacity:1;stroke-width:1.90941"
                   id="path3727"
                   d="m 462.88858,54.919497 c 0.20092,0.200908 0.45541,0.294679 0.75009,0.294679 0.28128,0 0.52238,-0.09375 0.72329,-0.294679 0.20092,-0.200908 0.30807,-0.455413 0.30807,-0.750092 0,-0.281274 -0.10715,-0.522375 -0.30807,-0.723283 -0.20091,-0.200927 -0.44201,-0.308083 -0.72329,-0.308083 -0.29468,0 -0.54917,0.107117 -0.75009,0.308083 -0.20092,0.200908 -0.29468,0.442009 -0.29468,0.723283 0,0.294679 0.0938,0.549184 0.29468,0.750092 z"
                   transform="translate(-882.27,-450.84068)" />
                <g
                   style="fill:#008000;fill-opacity:1"
                   id="g3741"
                   transform="matrix(2.124277,0,0,2.124277,-2413.25,-782.36849)">
                  <g
                     style="fill:#008000;fill-opacity:1"
                     transform="translate(5.0255445,60.270439)"
                     id="g3739">
                    <g
                       style="fill:#008000;fill-opacity:1"
                       id="g3737"
                       transform="matrix(1.9727627,0,0,1.9727627,-917.94862,-116.99041)">
                      <g
                         style="fill:#008000;fill-opacity:1"
                         id="g3735">
                        <g
                           style="fill:#008000;fill-opacity:1"
                           id="g3733"
                           transform="translate(2.6823635,-21.727144)">
                          <path
                             inkscape:connector-curvature="0"
                             id="path3729"
                             d="m 945.13831,118.73886 c 0,-0.21907 0.1778,-0.39687 0.39687,-0.39687 0.21908,0 0.39688,0.1778 0.39688,0.39687 0,0.21908 -0.1778,0.39688 -0.39688,0.39688 -0.21907,0 -0.39687,-0.1778 -0.39687,-0.39688 z"
                             style="fill:#008000;fill-opacity:1;stroke-width:0.264583" />
                          <path
                             inkscape:connector-curvature="0"
                             id="path3731"
                             d="m 945.79977,119.20654 h -0.52917 c -0.21828,0 -0.39687,0.11906 -0.39687,0.26458 v 0.26458 h 1.32291 v -0.26458 c 0,-0.14552 -0.17859,-0.26458 -0.39687,-0.26458 z"
                             style="fill:#008000;fill-opacity:1;stroke-width:0.264583" />
                        </g>
                      </g>
                    </g>
                  </g>
                </g>
                <path
                   style="fill:#008000;fill-opacity:1;stroke-width:0.37373"
                   inkscape:connector-curvature="0"
                   d="m 505.76491,-35.595602 h -4.85863 c -0.30817,0 -0.56047,0.252305 -0.56047,0.560603 v 3.737301 c 0,0.308325 0.25151,0.560576 0.56047,0.560576 h 4.85863 c 0.30818,0 0.56048,-0.252304 0.56048,-0.560576 v -3.737301 c 0,-0.308351 -0.25151,-0.560603 -0.56048,-0.560603 z m -3.09092,2.466623 -1.5808,1.231443 v -2.929293 z m -1.29832,-1.719162 h 3.91985 l -1.95992,1.471755 z m 1.36028,1.785321 0.59965,0.643918 0.59991,-0.643918 1.22949,1.578237 h -3.6588 z m 1.26099,-0.06593 1.58106,-1.697875 v 2.929267 z"
                   id="path3743"
                   transform="translate(-882.27,-450.84068)" />
                <path
                   style="fill:#008000;fill-opacity:1;stroke-width:0.398986"
                   inkscape:connector-curvature="0"
                   d="m 504.95944,-22.456814 c -0.39903,0.398964 -0.39903,0.797959 -0.79805,0.797959 -0.39904,0 -0.79806,-0.398995 -1.19677,-0.797959 -0.39903,-0.398995 -0.79805,-0.79799 -0.79805,-1.196954 0,-0.398993 0.39902,-0.398993 0.79805,-0.797988 0.39871,-0.398996 -0.79805,-1.59595 -1.19709,-1.59595 -0.39902,0 -1.19707,1.196954 -1.19707,1.196954 0,0.797991 0.81998,2.41586 1.59611,3.191897 0.77581,0.776004 2.39384,1.595947 3.19189,1.595947 0,0 1.19677,-0.79799 1.19677,-1.196985 0,-0.398962 -1.19677,-1.595916 -1.59579,-1.196921 z"
                   id="path3745"
                   transform="translate(-882.27,-450.84068)" />
                <text
                   xml:space="preserve"
                   style="font-size:6.03806px;line-height:1.25;font-family:'Gill Sans Ultra Bold';-inkscape-font-specification:'Gill Sans Ultra Bold, ';stroke-width:0.150952"
                   x="-412.46082"
                   y="-545.16626"
                   id="text3757"><tspan
                     sodipodi:role="line"
                     id="tspan3747"
                     x="-412.46082"
                     y="-545.16626"
                     style="font-style:normal;font-variant:normal;font-weight:normal;font-stretch:normal;font-family:Arial;-inkscape-font-specification:Arial;stroke-width:0.150952" /><tspan
                     sodipodi:role="line"
                     x="-412.46082"
                     y="-536.70215"
                     style="font-style:normal;font-variant:normal;font-weight:normal;font-stretch:normal;font-size:7.05556px;font-family:Arial;-inkscape-font-specification:Arial;text-align:center;text-anchor:middle;stroke-width:0.150952"
                     id="tspan4888">Business and Personal </tspan><tspan
                     sodipodi:role="line"
                     x="-411.48068"
                     y="-527.88269"
                     style="font-style:normal;font-variant:normal;font-weight:normal;font-stretch:normal;font-size:7.05556px;font-family:Arial;-inkscape-font-specification:Arial;stroke-width:0.150952"
                     id="tspan4899"><tspan
   style="text-align:center;text-anchor:middle"
   id="tspan4901">Websites</tspan> </tspan></text>
                <text
                   xml:space="preserve"
                   style="font-size:10.5833px;line-height:0;font-family:'Gill Sans Ultra Bold';-inkscape-font-specification:'Gill Sans Ultra Bold, ';stroke-width:0.264583"
                   x="495.91895"
                   y="-41.947147"
                   id="text3767"
                   transform="translate(-882.27,-450.84068)"><tspan
                     style="font-style:normal;font-variant:normal;font-weight:normal;font-stretch:normal;font-size:5.64444px;line-height:10.5833px;font-family:Arial;-inkscape-font-specification:Arial;text-align:end;text-anchor:end;stroke-width:0.264583"
                     sodipodi:role="line"
                     id="tspan3759"
                     x="495.91895"
                     y="-41.947147">Yuri Tricys - Business Development</tspan><tspan
                     style="font-style:normal;font-variant:normal;font-weight:normal;font-stretch:normal;font-size:5.64444px;line-height:10.5833px;font-family:Arial;-inkscape-font-specification:Arial;text-align:end;text-anchor:end;stroke-width:0.264583"
                     sodipodi:role="line"
                     id="tspan3761"
                     x="495.91895"
                     y="-31.363848">  yuri@buildhello.ca </tspan><tspan
                     style="font-style:normal;font-variant:normal;font-weight:normal;font-stretch:normal;font-size:5.64444px;line-height:10.5833px;font-family:Arial;-inkscape-font-specification:Arial;text-align:end;text-anchor:end;stroke-width:0.264583"
                     sodipodi:role="line"
                     id="tspan3763"
                     x="495.91895"
                     y="-20.780548">1-604-441-9933</tspan><tspan
                     sodipodi:role="line"
                     x="495.91895"
                     y="-13.648407"
                     style="font-style:normal;font-variant:normal;font-weight:normal;font-stretch:normal;line-height:1.25;font-family:Arial;-inkscape-font-specification:Arial;stroke-width:0.264583"
                     id="tspan3765" /></text>
                <g
                   id="g3810">
                  <g
                     style="fill:#000000;fill-opacity:1"
                     transform="matrix(2.6577891,0,0,2.6577891,-600.05709,-955.68772)"
                     id="g3779">
                    <path
                       style="font-style:normal;font-variant:normal;font-weight:normal;font-stretch:normal;font-size:35.2778px;line-height:1em;font-family:NordiquePro-Bold;-inkscape-font-specification:'NordiquePro-Bold, Normal';font-variant-ligatures:normal;font-variant-caps:normal;font-variant-numeric:normal;font-feature-settings:normal;text-align:start;letter-spacing:0px;word-spacing:0.0079375px;writing-mode:lr-tb;text-anchor:start;fill:#000000;fill-opacity:1"
                       d="m 30.968508,160.33104 v 5.77918 h 1.029201 v -2.56796 h 2.473908 v 2.56796 h 1.029199 v -5.77918 h -1.029199 v 2.18202 h -2.473908 v -2.18202 z"
                       id="path3769"
                       inkscape:connector-curvature="0" />
                    <path
                       inkscape:connector-curvature="0"
                       id="path3771"
                       style="font-style:normal;font-variant:normal;font-weight:normal;font-stretch:normal;font-size:35.2778px;line-height:1em;font-family:NordiquePro-Bold;-inkscape-font-specification:'NordiquePro-Bold, Normal';font-variant-ligatures:normal;font-variant-caps:normal;font-variant-numeric:normal;font-feature-settings:normal;text-align:start;letter-spacing:0px;word-spacing:0.0079375px;writing-mode:lr-tb;text-anchor:start;fill:#000000;fill-opacity:1"
                       d="m 36.344772,163.06479 c -0.174165,0.31666 -0.261249,0.64916 -0.261249,1.01333 0,0.37208 0.08708,0.71249 0.269164,1.02124 0.182083,0.31667 0.427498,0.56208 0.744165,0.74416 0.308748,0.18209 0.649162,0.26917 1.029162,0.26917 0.411663,0 0.783746,-0.11083 1.12416,-0.34042 0.332499,-0.22166 0.585831,-0.52249 0.75208,-0.88666 l -1.227079,-0.008 c -0.08708,0.0712 -0.182082,0.12666 -0.284998,0.16624 -0.102916,0.0475 -0.237498,0.0633 -0.39583,0.0633 -0.2375,0 -0.435415,-0.0554 -0.593748,-0.16625 -0.158332,-0.11083 -0.261248,-0.26917 -0.308748,-0.46708 h 2.937068 c 0.02375,-0.15834 0.03167,-0.31667 0.03167,-0.49083 -0.01584,-0.39584 -0.118748,-0.74417 -0.32458,-1.045 -0.205834,-0.29291 -0.459166,-0.51458 -0.767914,-0.67291 -0.316665,-0.15833 -0.641247,-0.2375 -0.973744,-0.2375 -0.372082,0 -0.712496,0.095 -1.021246,0.285 -0.308748,0.19 -0.554163,0.43541 -0.728329,0.75208 z m 2.715402,0.58583 h -1.868323 c 0.07917,-0.19 0.205832,-0.34042 0.364165,-0.45125 0.158332,-0.11083 0.348332,-0.16625 0.569998,-0.16625 0.197914,0 0.379997,0.0633 0.554163,0.17417 0.174165,0.11083 0.300833,0.26125 0.379997,0.44333 z" />
                    <path
                       inkscape:connector-curvature="0"
                       id="path3773"
                       style="font-style:normal;font-variant:normal;font-weight:normal;font-stretch:normal;font-size:35.2778px;line-height:1em;font-family:NordiquePro-Bold;-inkscape-font-specification:'NordiquePro-Bold, Normal';font-variant-ligatures:normal;font-variant-caps:normal;font-variant-numeric:normal;font-feature-settings:normal;text-align:start;letter-spacing:0px;word-spacing:0.0079375px;writing-mode:lr-tb;text-anchor:start;fill:#000000;fill-opacity:1"
                       d="m 40.829172,166.10205 h 1.029161 v -5.54164 h -1.029161 z" />
                    <path
                       inkscape:connector-curvature="0"
                       id="path3775"
                       style="font-style:normal;font-variant:normal;font-weight:normal;font-stretch:normal;font-size:35.2778px;line-height:1em;font-family:NordiquePro-Bold;-inkscape-font-specification:'NordiquePro-Bold, Normal';font-variant-ligatures:normal;font-variant-caps:normal;font-variant-numeric:normal;font-feature-settings:normal;text-align:start;letter-spacing:0px;word-spacing:0.0079375px;writing-mode:lr-tb;text-anchor:start;fill:#000000;fill-opacity:1"
                       d="m 42.602373,166.10205 h 1.029161 v -5.54164 h -1.029161 z" />
                    <path
                       inkscape:connector-curvature="0"
                       id="path3777"
                       style="font-style:normal;font-variant:normal;font-weight:normal;font-stretch:normal;font-size:35.2778px;line-height:1em;font-family:NordiquePro-Bold;-inkscape-font-specification:'NordiquePro-Bold, Normal';font-variant-ligatures:normal;font-variant-caps:normal;font-variant-numeric:normal;font-feature-settings:normal;text-align:start;letter-spacing:0px;word-spacing:0.0079375px;writing-mode:lr-tb;text-anchor:start;fill:#000000;fill-opacity:1"
                       d="m 47.245104,162.30479 c -0.316665,-0.18208 -0.657079,-0.27708 -1.021245,-0.27708 -0.37208,0 -0.712496,0.095 -1.029161,0.27708 -0.316665,0.18208 -0.56208,0.4275 -0.744163,0.74416 -0.182083,0.31667 -0.269164,0.65708 -0.269164,1.02125 0,0.37208 0.08708,0.7125 0.269164,1.02916 0.182083,0.31667 0.427498,0.56208 0.744163,0.74416 0.316665,0.18209 0.657081,0.26917 1.029161,0.26917 0.364166,0 0.70458,-0.0871 1.021245,-0.26917 0.316667,-0.18208 0.562082,-0.42749 0.744165,-0.74416 0.18208,-0.31666 0.277081,-0.65708 0.277081,-1.02916 0,-0.36417 -0.095,-0.70458 -0.277081,-1.02125 -0.182083,-0.31666 -0.427498,-0.56208 -0.744165,-0.74416 z m -1.741658,1.02916 c 0.189999,-0.19791 0.435415,-0.30083 0.72833,-0.30083 0.284999,0 0.530414,0.10292 0.720414,0.30083 0.189998,0.19792 0.284999,0.44333 0.284999,0.73625 0,0.30083 -0.095,0.54625 -0.284999,0.74416 -0.19,0.19792 -0.435415,0.29292 -0.720414,0.29292 -0.292915,0 -0.538331,-0.095 -0.72833,-0.29292 -0.197915,-0.19791 -0.292914,-0.44333 -0.292914,-0.74416 0,-0.29292 0.095,-0.53833 0.292914,-0.73625 z" />
                  </g>
                  <path
                     id="path3781"
                     style="font-style:normal;font-variant:normal;font-weight:normal;font-stretch:normal;font-size:35.2778px;line-height:1em;font-family:NordiquePro-Bold;-inkscape-font-specification:'NordiquePro-Bold, Normal';font-variant-ligatures:normal;font-variant-caps:normal;font-variant-numeric:normal;font-feature-settings:normal;text-align:start;letter-spacing:0px;word-spacing:0.0079375px;writing-mode:lr-tb;text-anchor:start;fill:#2c942c;fill-opacity:1;stroke-width:0.818234"
                     d="m -512.65294,-542.16487 h 2.6379 v 5.33658 c 0,1.66383 -0.40582,2.90158 -1.21749,3.73357 -0.81163,0.83193 -1.90737,1.23774 -3.24657,1.23774 -1.35952,0 -2.43493,-0.40581 -3.2466,-1.23774 -0.81163,-0.83199 -1.21747,-2.06974 -1.21747,-3.73357 v -5.33658 h 2.63786 v 5.33658 c 0,0.83194 0.14188,1.44068 0.42612,1.82618 0.28419,0.38561 0.75079,0.56814 1.40009,0.56814 0.62903,0 1.09575,-0.18237 1.37981,-0.56814 0.28419,-0.3856 0.44635,-0.99424 0.44635,-1.82618 z"
                     inkscape:connector-curvature="0" />
                  <path
                     id="path3783"
                     d="m -508.3514,-542.0597 v 10.1456 h 2.63788 v -10.1456 z"
                     style="font-style:normal;font-variant:normal;font-weight:normal;font-stretch:normal;font-size:35.2778px;line-height:1em;font-family:NordiquePro-Bold;-inkscape-font-specification:'NordiquePro-Bold, Normal';font-variant-ligatures:normal;font-variant-caps:normal;font-variant-numeric:normal;font-feature-settings:normal;text-align:start;letter-spacing:0px;word-spacing:0.0079375px;writing-mode:lr-tb;text-anchor:start;fill:#2c942c;fill-opacity:1;stroke-width:0.818234"
                     inkscape:connector-curvature="0" />
                  <path
                     id="path3785"
                     style="font-style:normal;font-variant:normal;font-weight:normal;font-stretch:normal;font-size:35.2778px;line-height:1em;font-family:NordiquePro-Bold;-inkscape-font-specification:'NordiquePro-Bold, Normal';font-variant-ligatures:normal;font-variant-caps:normal;font-variant-numeric:normal;font-feature-settings:normal;text-align:start;letter-spacing:0px;word-spacing:0.0079375px;writing-mode:lr-tb;text-anchor:start;fill:#000000;fill-opacity:1;stroke-width:0.818234"
                     d="m -502.81723,-531.92424 h 2.63786 v -14.20382 h -2.63786 z"
                     inkscape:connector-curvature="0" />
                  <path
                     id="path3787"
                     style="font-style:normal;font-variant:normal;font-weight:normal;font-stretch:normal;font-size:35.2778px;line-height:1em;font-family:NordiquePro-Bold;-inkscape-font-specification:'NordiquePro-Bold, Normal';font-variant-ligatures:normal;font-variant-caps:normal;font-variant-numeric:normal;font-feature-settings:normal;text-align:start;letter-spacing:0px;word-spacing:0.0079375px;writing-mode:lr-tb;text-anchor:start;fill:#000000;fill-opacity:1;stroke-width:0.818234"
                     d="m -488.82176,-534.3993 c 0.4667,-0.81166 0.7102,-1.68416 0.7102,-2.63786 v -9.13106 h -2.65817 v 4.66699 c -0.73049,-0.50726 -1.5827,-0.77109 -2.55665,-0.77109 -0.95372,0 -1.82621,0.24331 -2.6176,0.71021 -0.81166,0.46669 -1.44067,1.09572 -1.90733,1.90739 -0.48702,0.81162 -0.71021,1.68416 -0.71021,2.61756 0,0.9537 0.22327,1.8262 0.71021,2.63786 0.46666,0.81162 1.09567,1.44067 1.90733,1.90738 0.79139,0.46671 1.66388,0.68988 2.6176,0.68988 0.93341,0 1.8059,-0.22327 2.61756,-0.68988 0.79133,-0.46671 1.42036,-1.09576 1.88706,-1.90738 z m -6.37143,-4.52495 c 0.48698,-0.50727 1.09573,-0.77104 1.84648,-0.77104 0.73048,0 1.35952,0.26377 1.86677,0.77104 0.48702,0.50729 0.75079,1.13626 0.75079,1.88709 0,0.77104 -0.26377,1.40013 -0.75079,1.90734 -0.50725,0.50731 -1.13629,0.7508 -1.86677,0.7508 -0.75075,0 -1.3595,-0.2433 -1.84648,-0.7508 -0.48699,-0.50721 -0.73045,-1.1363 -0.73045,-1.90734 0,-0.75083 0.24329,-1.3798 0.73045,-1.88709 z"
                     inkscape:connector-curvature="0" />
                  <g
                     transform="matrix(0.57518346,0,0,0.57518346,-531.36008,-588.26924)"
                     id="g3791"
                     style="font-style:normal;font-variant:normal;font-weight:normal;font-stretch:normal;font-size:35.2778px;line-height:1em;font-family:NordiquePro-Bold;-inkscape-font-specification:'NordiquePro-Bold, Normal';font-variant-ligatures:normal;font-variant-caps:normal;font-variant-numeric:normal;font-feature-settings:normal;text-align:start;letter-spacing:0px;word-spacing:0.0079375px;writing-mode:lr-tb;text-anchor:start;fill:#000000;fill-opacity:1;stroke-width:0.319235">
                    <path
                       inkscape:connector-curvature="0"
                       id="path3789"
                       d="M 0.06304166,72.28233 V 97.999624 H 9.2960738 c 2.8823972,0 5.1044742,-0.625699 6.6662562,-1.877405 1.561756,-1.251714 2.342489,-3.02596 2.342489,-5.322672 0,-1.745503 -0.476224,-3.198543 -1.429385,-4.358391 -0.941652,-1.171327 -2.268009,-1.940398 -3.979069,-2.307869 1.423961,-0.229671 2.503091,-0.809778 3.23805,-1.739945 0.734933,-0.930176 1.102757,-2.18156 1.102757,-3.75481 0,-2.032597 -0.717894,-3.600138 -2.153338,-4.702556 -1.43547,-1.102426 -3.47972,-1.653646 -6.1324593,-1.653646 z m 4.48963514,3.427699 h 4.1966356 c 1.3848556,0 2.4139786,0.262003 3.0876876,0.785998 0.683048,0.523994 1.024731,1.314603 1.024731,2.371949 0,1.066701 -0.341683,1.861906 -1.024731,2.3859 -0.673709,0.514638 -1.702832,0.772046 -3.0876876,0.772046 H 4.5526768 Z m 0.015002,10.26759 H 9.483637 c 1.648883,0 2.86811,0.338719 3.65715,1.016475 0.799148,0.667643 1.198377,1.7097 1.198377,3.125908 0,1.406096 -0.399229,2.453021 -1.198377,3.140893 -0.78904,0.677759 -2.008267,1.016476 -3.65715,1.016476 H 4.5676787 Z"
                       style="fill:#000000;fill-opacity:1;stroke-width:0.319235" />
                  </g>
                  <path
                     style="fill:#2c942c;fill-opacity:1;stroke:#c2185b;stroke-width:0.177427;stroke-miterlimit:4;stroke-dasharray:none;stroke-opacity:0"
                     d="m -507.12016,-547.44676 c -0.48948,0 -0.89938,0.17177 -1.21691,0.50245 -0.33065,0.33068 -0.48954,0.74104 -0.48954,1.23047 0,0.5027 0.15889,0.91289 0.48954,1.24366 0.31753,0.33068 0.72743,0.48927 1.21691,0.48927 0.47622,0 0.88653,-0.15867 1.20404,-0.48927 0.31751,-0.33077 0.47605,-0.74096 0.47605,-1.24366 0,-0.48943 -0.15858,-0.89979 -0.47605,-1.23047 -0.31751,-0.33068 -0.72782,-0.50245 -1.20404,-0.50245 z"
                     id="path3793"
                     inkscape:connector-curvature="0"
                     inkscape:transform-center-x="3.1290729"
                     inkscape:transform-center-y="-4.694763" />
                </g>
              </g>
            </g>
          </g>
        </g>
      </g>
    </g>
  </g>
</svg>
