<?xml version="1.0" encoding="UTF-8" standalone="no"?>
<svg
   xmlns:dc="http://purl.org/dc/elements/1.1/"
   xmlns:cc="http://creativecommons.org/ns#"
   xmlns:rdf="http://www.w3.org/1999/02/22-rdf-syntax-ns#"
   xmlns:svg="http://www.w3.org/2000/svg"
   xmlns="http://www.w3.org/2000/svg"
   xmlns:sodipodi="http://sodipodi.sourceforge.net/DTD/sodipodi-0.dtd"
   xmlns:inkscape="http://www.inkscape.org/namespaces/inkscape"
   width="196.25494mm"
   height="224.22191mm"
   viewBox="0 0 196.25494 224.22191"
   version="1.1"
   id="svg839"
   inkscape:version="1.0.1 (3bc2e813f5, 2020-09-07)"
   sodipodi:docname="build-hello-icons-1.svg">
  <defs
     id="defs833" />
  <sodipodi:namedview
     id="base"
     pagecolor="#ffffff"
     bordercolor="#666666"
     borderopacity="1.0"
     inkscape:pageopacity="0.0"
     inkscape:pageshadow="2"
     inkscape:zoom="0.49497475"
     inkscape:cx="460.55295"
     inkscape:cy="579.70871"
     inkscape:document-units="mm"
     inkscape:current-layer="g4793"
     inkscape:document-rotation="0"
     showgrid="false"
     inkscape:window-width="1346"
     inkscape:window-height="1009"
     inkscape:window-x="357"
     inkscape:window-y="88"
     inkscape:window-maximized="0"
     showguides="true"
     inkscape:guide-bbox="true" />
  <metadata
     id="metadata836">
    <rdf:RDF>
      <cc:Work
         rdf:about="">
        <dc:format>image/svg+xml</dc:format>
        <dc:type
           rdf:resource="http://purl.org/dc/dcmitype/StillImage" />
        <dc:title></dc:title>
      </cc:Work>
    </rdf:RDF>
  </metadata>
  <g
     inkscape:label="Layer 1"
     inkscape:groupmode="layer"
     id="layer1"
     transform="translate(-4.8283895,-29.022134)">
    <g
       id="g4457"
       transform="translate(815.48497,707.35322)">
      <g
         id="g4793"
         transform="translate(23.434524,-6.8035714)">
        <g
           id="g4873">
          <path
             inkscape:connector-curvature="0"
             id="path4295"
             d="m -832.83283,-671.41382 h 193.7384 c 0.63401,0 1.14458,0.51052 1.14458,1.1446 v 109.62909 c 0,0.63408 -0.51057,1.1446 -1.14458,1.1446 h -193.7384 c -0.63417,0 -1.14458,-0.51052 -1.14458,-1.1446 v -109.62909 c 0,-0.63408 0.51041,-1.1446 1.14458,-1.1446 z"
             style="display:inline;fill:#ffffff;fill-opacity:1;stroke:#000000;stroke-width:0.227389;stroke-miterlimit:4;stroke-dasharray:none;stroke-opacity:1" />
          <path
             inkscape:connector-curvature="0"
             style="display:inline;fill:#ffffff;fill-opacity:1;stroke:#000000;stroke-width:0.227249;stroke-miterlimit:4;stroke-dasharray:none;stroke-opacity:1"
             d="m -832.77285,-559.26822 h 193.61838 c 0.63385,0 1.14393,0.51029 1.14393,1.14392 v 109.56115 c 0,0.63384 -0.51008,1.14392 -1.14393,1.14392 h -193.61838 c -0.63352,0 -1.14392,-0.51008 -1.14392,-1.14392 V -558.1243 c 0,-0.63363 0.5104,-1.14392 1.14392,-1.14392 z"
             id="path4297" />
          <g
             id="g4337"
             transform="translate(-280.87629,-132.33667)">
            <path
               inkscape:connector-curvature="0"
               style="font-style:normal;font-variant:normal;font-weight:normal;font-stretch:normal;font-size:50.8px;line-height:1.25;font-family:NordiquePro-Bold;-inkscape-font-specification:'NordiquePro-Bold, Normal';font-variant-ligatures:normal;font-variant-caps:normal;font-variant-numeric:normal;font-feature-settings:normal;text-align:start;letter-spacing:0px;word-spacing:0px;writing-mode:lr-tb;text-anchor:start;fill:#008000;fill-opacity:1;stroke-width:1.90941"
               id="path4299"
               d="m 422.40757,47.595734 c 0.20091,0.200908 0.45541,0.29466 0.75008,0.29466 0.28129,0 0.52239,-0.09375 0.7233,-0.29466 0.20092,-0.200927 0.30807,-0.455413 0.30807,-0.750092 0,-0.281294 -0.10715,-0.522376 -0.30807,-0.723303 -0.20091,-0.200908 -0.44201,-0.308064 -0.7233,-0.308064 -0.29467,0 -0.54917,0.107118 -0.75008,0.308064 -0.20092,0.200927 -0.29468,0.442009 -0.29468,0.723303 0,0.294679 0.0937,0.549165 0.29468,0.750092 z"
               transform="translate(-882.27,-450.84068)" />
            <g
               id="g4331"
               style="stroke-width:1;stroke-miterlimit:4;stroke-dasharray:none">
              <path
                 inkscape:connector-curvature="0"
                 style="font-style:normal;font-variant:normal;font-weight:normal;font-stretch:normal;font-size:50.8px;line-height:1.25;font-family:NordiquePro-Bold;-inkscape-font-specification:'NordiquePro-Bold, Normal';font-variant-ligatures:normal;font-variant-caps:normal;font-variant-numeric:normal;font-feature-settings:normal;text-align:start;letter-spacing:0px;word-spacing:0px;writing-mode:lr-tb;text-anchor:start;fill:#0e0c0a;fill-opacity:1;stroke:none;stroke-width:1;stroke-miterlimit:4;stroke-dasharray:none;stroke-opacity:1"
                 id="path4301"
                 d="m 385.13809,48.600311 h -1.76806 l -1.1921,4.406742 -1.1921,-4.406742 h -1.74127 l -1.2055,4.406742 -1.17871,-4.406742 h -1.76806 l 2.07614,6.697192 h 1.74127 l 1.20549,-4.018311 1.1921,4.018311 h 1.74127 z"
                 transform="translate(-882.27,-450.84068)" />
              <path
                 inkscape:connector-curvature="0"
                 style="font-style:normal;font-variant:normal;font-weight:normal;font-stretch:normal;font-size:50.8px;line-height:1.25;font-family:NordiquePro-Bold;-inkscape-font-specification:'NordiquePro-Bold, Normal';font-variant-ligatures:normal;font-variant-caps:normal;font-variant-numeric:normal;font-feature-settings:normal;text-align:start;letter-spacing:0px;word-spacing:0px;writing-mode:lr-tb;text-anchor:start;fill:#0e0c0a;fill-opacity:1;stroke:none;stroke-width:1;stroke-miterlimit:4;stroke-dasharray:none;stroke-opacity:1"
                 id="path4303"
                 d="m 395.18389,48.600311 h -1.76807 l -1.1921,4.406742 -1.1921,-4.406742 h -1.74127 l -1.20549,4.406742 -1.17871,-4.406742 h -1.76806 l 2.07613,6.697192 h 1.74127 l 1.2055,-4.018311 1.1921,4.018311 h 1.74127 z"
                 transform="translate(-882.27,-450.84068)" />
              <path
                 inkscape:connector-curvature="0"
                 style="font-style:normal;font-variant:normal;font-weight:normal;font-stretch:normal;font-size:50.8px;line-height:1.25;font-family:NordiquePro-Bold;-inkscape-font-specification:'NordiquePro-Bold, Normal';font-variant-ligatures:normal;font-variant-caps:normal;font-variant-numeric:normal;font-feature-settings:normal;text-align:start;letter-spacing:0px;word-spacing:0px;writing-mode:lr-tb;text-anchor:start;fill:#0e0c0a;fill-opacity:1;stroke:none;stroke-width:1;stroke-miterlimit:4;stroke-dasharray:none;stroke-opacity:1"
                 id="path4305"
                 d="m 405.22968,48.600311 h -1.76806 l -1.1921,4.406742 -1.1921,-4.406742 h -1.74128 l -1.20549,4.406742 -1.17871,-4.406742 h -1.76806 l 2.07613,6.697192 h 1.74127 l 1.2055,-4.018311 1.1921,4.018311 h 1.74127 z"
                 transform="translate(-882.27,-450.84068)" />
              <path
                 inkscape:connector-curvature="0"
                 style="font-style:normal;font-variant:normal;font-weight:normal;font-stretch:normal;font-size:50.8px;line-height:1.25;font-family:NordiquePro-Bold;-inkscape-font-specification:'NordiquePro-Bold, Normal';font-variant-ligatures:normal;font-variant-caps:normal;font-variant-numeric:normal;font-feature-settings:normal;text-align:start;letter-spacing:0px;word-spacing:0px;writing-mode:lr-tb;text-anchor:start;fill:#0e0c0a;fill-opacity:1;stroke:none;stroke-width:1;stroke-miterlimit:4;stroke-dasharray:none;stroke-opacity:1"
                 id="path4307"
                 d="m 407.6459,45.921431 v 6.027467 c 0,0.62955 0.14733,1.205504 0.45541,1.741284 0.30807,0.535761 0.7233,0.951 1.25907,1.259064 0.52239,0.308064 1.09835,0.455413 1.72788,0.455413 0.61614,0 1.1921,-0.147407 1.72788,-0.455413 0.52238,-0.308064 0.9376,-0.723303 1.25907,-1.259064 0.30807,-0.53578 0.4688,-1.111734 0.4688,-1.741284 0,-0.616128 -0.16073,-1.192101 -0.4688,-1.727881 -0.32147,-0.535761 -0.73669,-0.951 -1.25907,-1.259064 -0.53578,-0.308064 -1.11174,-0.468797 -1.72788,-0.468797 -0.65632,0 -1.21889,0.174138 -1.68769,0.508971 v -3.080696 z m 2.22347,4.781788 c 0.32147,-0.334853 0.73669,-0.508991 1.23229,-0.508991 0.48219,0 0.89742,0.174138 1.21889,0.508991 0.32146,0.334872 0.48219,0.750092 0.48219,1.245679 0,0.50899 -0.16073,0.92421 -0.48219,1.259082 -0.32147,0.334853 -0.7367,0.495587 -1.21889,0.495587 -0.4956,0 -0.91082,-0.160772 -1.23229,-0.495587 -0.33486,-0.334872 -0.49559,-0.750092 -0.49559,-1.259082 0,-0.495587 0.16073,-0.910807 0.49559,-1.245679 z"
                 transform="translate(-882.27,-450.84068)" />
              <path
                 inkscape:connector-curvature="0"
                 style="font-style:normal;font-variant:normal;font-weight:normal;font-stretch:normal;font-size:50.8px;line-height:1.25;font-family:NordiquePro-Bold;-inkscape-font-specification:'NordiquePro-Bold, Normal';font-variant-ligatures:normal;font-variant-caps:normal;font-variant-numeric:normal;font-feature-settings:normal;text-align:start;letter-spacing:0px;word-spacing:0px;writing-mode:lr-tb;text-anchor:start;fill:#0e0c0a;fill-opacity:1;stroke:none;stroke-width:1;stroke-miterlimit:4;stroke-dasharray:none;stroke-opacity:1"
                 id="path4309"
                 d="m 419.43715,48.600311 h 1.74127 v 3.522725 c 0,1.098329 -0.26788,1.915384 -0.80366,2.464568 -0.53578,0.549165 -1.25907,0.817055 -2.1431,0.817055 -0.89743,0 -1.60733,-0.26789 -2.14311,-0.817055 -0.53577,-0.549184 -0.80366,-1.366239 -0.80366,-2.464568 v -3.522725 h 1.74127 v 3.522725 c 0,0.549164 0.0937,0.950999 0.28128,1.205485 0.18753,0.254505 0.4956,0.375046 0.92422,0.375046 0.41522,0 0.72329,-0.120483 0.91082,-0.375046 0.18752,-0.254486 0.29467,-0.656321 0.29467,-1.205485 z"
                 transform="translate(-882.27,-450.84068)" />
              <path
                 inkscape:connector-curvature="0"
                 style="font-style:normal;font-variant:normal;font-weight:normal;font-stretch:normal;font-size:50.8px;line-height:1.25;font-family:NordiquePro-Bold;-inkscape-font-specification:'NordiquePro-Bold, Normal';font-variant-ligatures:normal;font-variant-caps:normal;font-variant-numeric:normal;font-feature-settings:normal;text-align:start;letter-spacing:0px;word-spacing:0px;writing-mode:lr-tb;text-anchor:start;fill:#0e0c0a;fill-opacity:1;stroke:none;stroke-width:1;stroke-miterlimit:4;stroke-dasharray:none;stroke-opacity:1"
                 id="path4311"
                 d="m 422.28702,48.600311 v 6.697192 h 1.74127 v -6.697192 z"
                 transform="translate(-882.27,-450.84068)" />
              <path
                 inkscape:connector-curvature="0"
                 style="font-style:normal;font-variant:normal;font-weight:normal;font-stretch:normal;font-size:50.8px;line-height:1.25;font-family:NordiquePro-Bold;-inkscape-font-specification:'NordiquePro-Bold, Normal';font-variant-ligatures:normal;font-variant-caps:normal;font-variant-numeric:normal;font-feature-settings:normal;text-align:start;letter-spacing:0px;word-spacing:0px;writing-mode:lr-tb;text-anchor:start;fill:#0e0c0a;fill-opacity:1;stroke:none;stroke-width:1;stroke-miterlimit:4;stroke-dasharray:none;stroke-opacity:1"
                 id="path4313"
                 d="m 425.2522,55.297503 h 1.74127 v -9.376072 h -1.74127 z"
                 transform="translate(-882.27,-450.84068)" />
              <path
                 inkscape:connector-curvature="0"
                 style="font-style:normal;font-variant:normal;font-weight:normal;font-stretch:normal;font-size:50.8px;line-height:1.25;font-family:NordiquePro-Bold;-inkscape-font-specification:'NordiquePro-Bold, Normal';font-variant-ligatures:normal;font-variant-caps:normal;font-variant-numeric:normal;font-feature-settings:normal;text-align:start;letter-spacing:0px;word-spacing:0px;writing-mode:lr-tb;text-anchor:start;fill:#0e0c0a;fill-opacity:1;stroke:none;stroke-width:1;stroke-miterlimit:4;stroke-dasharray:none;stroke-opacity:1"
                 id="path4315"
                 d="m 434.15215,53.690182 c 0.30807,-0.53578 0.4688,-1.111734 0.4688,-1.741284 v -6.027467 h -1.75466 v 3.080696 c -0.4822,-0.334853 -1.04477,-0.508971 -1.6877,-0.508971 -0.62953,0 -1.20549,0.160772 -1.72787,0.468797 -0.53578,0.308064 -0.951,0.723303 -1.25908,1.259064 -0.32146,0.53578 -0.4688,1.111753 -0.4688,1.727881 0,0.62955 0.14733,1.205504 0.4688,1.741284 0.30808,0.535761 0.7233,0.951 1.25908,1.259064 0.52238,0.308064 1.09834,0.455413 1.72787,0.455413 0.61614,0 1.1921,-0.147407 1.72788,-0.455413 0.52238,-0.308064 0.93761,-0.723303 1.24568,-1.259064 z m -4.20584,-2.986963 c 0.32146,-0.334853 0.7233,-0.508991 1.21889,-0.508991 0.4822,0 0.89742,0.174138 1.23228,0.508991 0.32147,0.334872 0.4956,0.750092 0.4956,1.245679 0,0.50899 -0.17412,0.92421 -0.4956,1.259082 -0.33486,0.334853 -0.75008,0.495587 -1.23228,0.495587 -0.49559,0 -0.89743,-0.160772 -1.21889,-0.495587 -0.32147,-0.334872 -0.4822,-0.750092 -0.4822,-1.259082 0,-0.495587 0.16074,-0.910807 0.4822,-1.245679 z"
                 transform="translate(-882.27,-450.84068)" />
              <path
                 d="m 440.74946,49.323595 c -0.53578,-0.549165 -1.25908,-0.830439 -2.14311,-0.830439 -0.4822,0 -0.88403,0.120483 -1.20549,0.334852 v -2.906577 h -1.74127 v 9.376072 h 1.74127 v -3.522724 c 0,-0.53578 0.0938,-0.937615 0.28128,-1.192101 0.18752,-0.254505 0.49559,-0.38845 0.92421,-0.38845 0.41523,0 0.7233,0.13404 0.91082,0.38845 0.18752,0.254486 0.29468,0.656321 0.29468,1.192101 v 3.522724 h 1.74127 v -3.522724 c 0,-1.084945 -0.26789,-1.902 -0.80366,-2.451184 z"
                 id="path4317"
                 style="font-style:normal;font-variant:normal;font-weight:normal;font-stretch:normal;font-size:50.8px;line-height:1.25;font-family:NordiquePro-Bold;-inkscape-font-specification:'NordiquePro-Bold, Normal';font-variant-ligatures:normal;font-variant-caps:normal;font-variant-numeric:normal;font-feature-settings:normal;text-align:start;letter-spacing:0px;word-spacing:0px;writing-mode:lr-tb;text-anchor:start;fill:#0e0c0a;fill-opacity:1;stroke:none;stroke-width:1;stroke-miterlimit:4;stroke-dasharray:none;stroke-opacity:1"
                 inkscape:connector-curvature="0"
                 transform="translate(-882.27,-450.84068)" />
              <path
                 d="m 442.73183,50.247806 c -0.29468,0.53578 -0.44202,1.098349 -0.44202,1.714496 0,0.629531 0.14733,1.205485 0.45541,1.72788 0.30807,0.535761 0.7233,0.951 1.25908,1.259064 0.52238,0.308064 1.09834,0.455413 1.74127,0.455413 0.69651,0 1.32604,-0.187504 1.902,-0.575954 0.56257,-0.375046 0.99119,-0.884037 1.27247,-1.500184 l -2.07613,-0.01337 c -0.14733,0.120484 -0.30807,0.214312 -0.4822,0.281275 -0.17412,0.08039 -0.40183,0.107118 -0.66972,0.107118 -0.40183,0 -0.73669,-0.09375 -1.00458,-0.281275 -0.26789,-0.187504 -0.44201,-0.455413 -0.52238,-0.790266 h 4.96932 c 0.0402,-0.26789 0.0536,-0.535779 0.0536,-0.830458 -0.0268,-0.669725 -0.20092,-1.259083 -0.54917,-1.768055 -0.34826,-0.495606 -0.77688,-0.870652 -1.29926,-1.138523 -0.53578,-0.26789 -1.08495,-0.401835 -1.64751,-0.401835 -0.62954,0 -1.20549,0.160773 -1.72788,0.482183 -0.52238,0.321468 -0.9376,0.736707 -1.23228,1.272468 z m 4.59428,0.991193 h -3.16108 c 0.13394,-0.321468 0.34825,-0.575954 0.61614,-0.763477 0.26789,-0.187504 0.58935,-0.281294 0.9644,-0.281294 0.33486,0 0.64293,0.107118 0.93761,0.294679 0.29467,0.187504 0.50898,0.442028 0.64293,0.750092 z"
                 id="path4319"
                 style="font-style:normal;font-variant:normal;font-weight:normal;font-stretch:normal;font-size:50.8px;line-height:1.25;font-family:NordiquePro-Bold;-inkscape-font-specification:'NordiquePro-Bold, Normal';font-variant-ligatures:normal;font-variant-caps:normal;font-variant-numeric:normal;font-feature-settings:normal;text-align:start;letter-spacing:0px;word-spacing:0px;writing-mode:lr-tb;text-anchor:start;fill:#0e0c0a;fill-opacity:1;stroke:none;stroke-width:1;stroke-miterlimit:4;stroke-dasharray:none;stroke-opacity:1"
                 inkscape:connector-curvature="0"
                 transform="translate(-882.27,-450.84068)" />
              <path
                 d="m 449.91728,55.297503 h 1.74128 v -9.376072 h -1.74128 z"
                 id="path4321"
                 style="font-style:normal;font-variant:normal;font-weight:normal;font-stretch:normal;font-size:50.8px;line-height:1.25;font-family:NordiquePro-Bold;-inkscape-font-specification:'NordiquePro-Bold, Normal';font-variant-ligatures:normal;font-variant-caps:normal;font-variant-numeric:normal;font-feature-settings:normal;text-align:start;letter-spacing:0px;word-spacing:0px;writing-mode:lr-tb;text-anchor:start;fill:#0e0c0a;fill-opacity:1;stroke:none;stroke-width:1;stroke-miterlimit:4;stroke-dasharray:none;stroke-opacity:1"
                 inkscape:connector-curvature="0"
                 transform="translate(-882.27,-450.84068)" />
              <path
                 d="m 452.71651,55.297503 h 1.74127 v -9.376072 h -1.74127 z"
                 id="path4323"
                 style="font-style:normal;font-variant:normal;font-weight:normal;font-stretch:normal;font-size:50.8px;line-height:1.25;font-family:NordiquePro-Bold;-inkscape-font-specification:'NordiquePro-Bold, Normal';font-variant-ligatures:normal;font-variant-caps:normal;font-variant-numeric:normal;font-feature-settings:normal;text-align:start;letter-spacing:0px;word-spacing:0px;writing-mode:lr-tb;text-anchor:start;fill:#0e0c0a;fill-opacity:1;stroke:none;stroke-width:1;stroke-miterlimit:4;stroke-dasharray:none;stroke-opacity:1"
                 inkscape:connector-curvature="0"
                 transform="translate(-882.27,-450.84068)" />
              <path
                 d="m 460.37077,48.961953 c -0.53577,-0.308064 -1.11173,-0.468797 -1.72787,-0.468797 -0.62954,0 -1.2055,0.160772 -1.74127,0.468797 -0.53578,0.308064 -0.95101,0.723303 -1.25908,1.259064 -0.30807,0.53578 -0.45541,1.111753 -0.45541,1.727881 0,0.62955 0.14733,1.205504 0.45541,1.741284 0.30807,0.535761 0.7233,0.951 1.25908,1.259064 0.53577,0.308064 1.11173,0.455413 1.74127,0.455413 0.61614,0 1.1921,-0.147407 1.72787,-0.455413 0.53578,-0.308064 0.95101,-0.723303 1.25908,-1.259064 0.30807,-0.53578 0.4688,-1.111734 0.4688,-1.741284 0,-0.616128 -0.16073,-1.192101 -0.4688,-1.727881 -0.30807,-0.535761 -0.7233,-0.951 -1.25908,-1.259064 z m -2.94676,1.741266 c 0.32146,-0.334853 0.73669,-0.508991 1.23228,-0.508991 0.4822,0 0.89743,0.174138 1.21889,0.508991 0.32147,0.334872 0.4822,0.750092 0.4822,1.245679 0,0.50899 -0.16073,0.92421 -0.4822,1.259082 -0.32146,0.334853 -0.73669,0.495587 -1.21889,0.495587 -0.49559,0 -0.91082,-0.160772 -1.23228,-0.495587 -0.33486,-0.334872 -0.49559,-0.750092 -0.49559,-1.259082 0,-0.495587 0.16073,-0.910807 0.49559,-1.245679 z"
                 id="path4325"
                 style="font-style:normal;font-variant:normal;font-weight:normal;font-stretch:normal;font-size:50.8px;line-height:1.25;font-family:NordiquePro-Bold;-inkscape-font-specification:'NordiquePro-Bold, Normal';font-variant-ligatures:normal;font-variant-caps:normal;font-variant-numeric:normal;font-feature-settings:normal;text-align:start;letter-spacing:0px;word-spacing:0px;writing-mode:lr-tb;text-anchor:start;fill:#0e0c0a;fill-opacity:1;stroke:none;stroke-width:1;stroke-miterlimit:4;stroke-dasharray:none;stroke-opacity:1"
                 inkscape:connector-curvature="0"
                 transform="translate(-882.27,-450.84068)" />
              <path
                 d="m 466.6335,54.949246 c 0.53577,0.308064 1.11173,0.455413 1.74127,0.455413 0.77687,0 1.45999,-0.227716 2.07613,-0.68311 0.60275,-0.455413 1.01797,-1.031367 1.23228,-1.75467 h -1.88861 c -0.16073,0.241101 -0.36165,0.41522 -0.60274,0.549165 -0.2411,0.134041 -0.50899,0.187504 -0.80367,0.187504 -0.49559,0 -0.91082,-0.160772 -1.23228,-0.495587 -0.33486,-0.334872 -0.4956,-0.750092 -0.4956,-1.259083 0,-0.495586 0.16074,-0.910806 0.4956,-1.245678 0.32146,-0.334853 0.73669,-0.508991 1.23228,-0.508991 0.30807,0 0.58935,0.08039 0.84385,0.214312 0.25449,0.147406 0.45541,0.348257 0.61614,0.589358 h 1.84843 c -0.21431,-0.723303 -0.61615,-1.326046 -1.23229,-1.794844 -0.61614,-0.468798 -1.31265,-0.709899 -2.08952,-0.709899 -0.62954,0 -1.2055,0.160773 -1.74127,0.468798 -0.53578,0.308064 -0.95101,0.723303 -1.25908,1.259064 -0.30807,0.53578 -0.45541,1.111753 -0.45541,1.72788 0,0.629551 0.14735,1.205505 0.45541,1.741285 0.30807,0.535761 0.7233,0.951 1.25908,1.259064 z"
                 id="path4327"
                 style="font-style:normal;font-variant:normal;font-weight:normal;font-stretch:normal;font-size:50.8px;line-height:1.25;font-family:NordiquePro-Bold;-inkscape-font-specification:'NordiquePro-Bold, Normal';font-variant-ligatures:normal;font-variant-caps:normal;font-variant-numeric:normal;font-feature-settings:normal;text-align:start;letter-spacing:0px;word-spacing:0px;writing-mode:lr-tb;text-anchor:start;fill:#0e0c0a;fill-opacity:1;stroke:none;stroke-width:1;stroke-miterlimit:4;stroke-dasharray:none;stroke-opacity:1"
                 inkscape:connector-curvature="0"
                 transform="translate(-882.27,-450.84068)" />
              <path
                 d="m 474.10275,54.949246 c 0.52239,0.308064 1.09834,0.455413 1.72788,0.455413 0.37504,0 0.7233,-0.08039 1.05816,-0.241101 0.32146,-0.160772 0.53577,-0.348257 0.64293,-0.575954 v 0.709899 h 1.74127 v -3.348605 c 0,-0.616128 -0.16073,-1.192101 -0.4688,-1.727881 -0.30808,-0.535761 -0.7233,-0.951 -1.24568,-1.259064 -0.53578,-0.308064 -1.11174,-0.468797 -1.72788,-0.468797 -0.62954,0 -1.20549,0.160772 -1.72788,0.468797 -0.53577,0.308064 -0.951,0.723303 -1.25907,1.259064 -0.32147,0.53578 -0.4688,1.111753 -0.4688,1.727881 0,0.62955 0.14733,1.205504 0.4688,1.741284 0.30807,0.535761 0.7233,0.951 1.25907,1.259064 z m 2.96016,-1.741266 c -0.32146,0.334853 -0.73669,0.495587 -1.21889,0.495587 -0.49559,0 -0.91082,-0.160772 -1.23228,-0.495587 -0.33486,-0.334872 -0.49559,-0.750092 -0.49559,-1.259082 0,-0.495587 0.16073,-0.910807 0.49559,-1.245679 0.32146,-0.334853 0.73669,-0.508991 1.23228,-0.508991 0.4822,0 0.89743,0.174138 1.21889,0.508991 0.32147,0.334872 0.4822,0.750092 0.4822,1.245679 0,0.50899 -0.16073,0.92421 -0.4822,1.259082 z"
                 id="path4329"
                 style="font-style:normal;font-variant:normal;font-weight:normal;font-stretch:normal;font-size:50.8px;line-height:1.25;font-family:NordiquePro-Bold;-inkscape-font-specification:'NordiquePro-Bold, Normal';font-variant-ligatures:normal;font-variant-caps:normal;font-variant-numeric:normal;font-feature-settings:normal;text-align:start;letter-spacing:0px;word-spacing:0px;writing-mode:lr-tb;text-anchor:start;fill:#0e0c0a;fill-opacity:1;stroke:none;stroke-width:1;stroke-miterlimit:4;stroke-dasharray:none;stroke-opacity:1"
                 inkscape:connector-curvature="0"
                 transform="translate(-882.27,-450.84068)" />
            </g>
            <path
               d="m 405.28752,54.919497 c 0.20092,0.200908 0.45541,0.294679 0.75009,0.294679 0.28128,0 0.52238,-0.09375 0.7233,-0.294679 0.20091,-0.200908 0.30807,-0.455413 0.30807,-0.750092 0,-0.281274 -0.10716,-0.522375 -0.30807,-0.723283 -0.20092,-0.200927 -0.44202,-0.308083 -0.7233,-0.308083 -0.29468,0 -0.54917,0.107117 -0.75009,0.308083 -0.20091,0.200908 -0.29467,0.442009 -0.29467,0.723283 0,0.294679 0.0937,0.549184 0.29467,0.750092 z"
               id="path4333"
               style="font-style:normal;font-variant:normal;font-weight:normal;font-stretch:normal;font-size:50.8px;line-height:1.25;font-family:NordiquePro-Bold;-inkscape-font-specification:'NordiquePro-Bold, Normal';font-variant-ligatures:normal;font-variant-caps:normal;font-variant-numeric:normal;font-feature-settings:normal;text-align:start;letter-spacing:0px;word-spacing:0px;writing-mode:lr-tb;text-anchor:start;fill:#008000;fill-opacity:1;stroke-width:1.90941"
               inkscape:connector-curvature="0"
               transform="translate(-882.27,-450.84068)" />
            <path
               inkscape:connector-curvature="0"
               style="font-style:normal;font-variant:normal;font-weight:normal;font-stretch:normal;font-size:50.8px;line-height:1.25;font-family:NordiquePro-Bold;-inkscape-font-specification:'NordiquePro-Bold, Normal';font-variant-ligatures:normal;font-variant-caps:normal;font-variant-numeric:normal;font-feature-settings:normal;text-align:start;letter-spacing:0px;word-spacing:0px;writing-mode:lr-tb;text-anchor:start;fill:#008000;fill-opacity:1;stroke-width:1.90941"
               id="path4335"
               d="m 462.88858,54.919497 c 0.20092,0.200908 0.45541,0.294679 0.75009,0.294679 0.28128,0 0.52238,-0.09375 0.72329,-0.294679 0.20092,-0.200908 0.30807,-0.455413 0.30807,-0.750092 0,-0.281274 -0.10715,-0.522375 -0.30807,-0.723283 -0.20091,-0.200927 -0.44201,-0.308083 -0.72329,-0.308083 -0.29468,0 -0.54917,0.107117 -0.75009,0.308083 -0.20092,0.200908 -0.29468,0.442009 -0.29468,0.723283 0,0.294679 0.0938,0.549184 0.29468,0.750092 z"
               transform="translate(-882.27,-450.84068)" />
          </g>
          <g
             style="fill:#008000;fill-opacity:1"
             id="g4351"
             transform="matrix(2.124277,0,0,2.124277,-2694.1861,-885.3147)">
            <g
               style="fill:#008000;fill-opacity:1"
               transform="translate(5.0255445,60.270439)"
               id="g4349">
              <g
                 style="fill:#008000;fill-opacity:1"
                 id="g4347"
                 transform="matrix(1.9727627,0,0,1.9727627,-917.94862,-116.99041)">
                <g
                   style="fill:#008000;fill-opacity:1"
                   id="g4345">
                  <g
                     style="fill:#008000;fill-opacity:1"
                     id="g4343"
                     transform="translate(2.6823635,-21.727144)">
                    <path
                       inkscape:connector-curvature="0"
                       id="path4339"
                       d="m 945.13831,118.73886 c 0,-0.21907 0.1778,-0.39687 0.39687,-0.39687 0.21908,0 0.39688,0.1778 0.39688,0.39687 0,0.21908 -0.1778,0.39688 -0.39688,0.39688 -0.21907,0 -0.39687,-0.1778 -0.39687,-0.39688 z"
                       style="fill:#008000;fill-opacity:1;stroke-width:0.264583" />
                    <path
                       inkscape:connector-curvature="0"
                       id="path4341"
                       d="m 945.79977,119.20654 h -0.52917 c -0.21828,0 -0.39687,0.11906 -0.39687,0.26458 v 0.26458 h 1.32291 v -0.26458 c 0,-0.14552 -0.17859,-0.26458 -0.39687,-0.26458 z"
                       style="fill:#008000;fill-opacity:1;stroke-width:0.264583" />
                  </g>
                </g>
              </g>
            </g>
          </g>
          <path
             style="fill:#008000;fill-opacity:1;stroke-width:0.37373"
             inkscape:connector-curvature="0"
             d="m -657.44119,-589.38249 h -4.85863 c -0.30817,0 -0.56047,0.2523 -0.56047,0.5606 v 3.7373 c 0,0.30833 0.25151,0.56058 0.56047,0.56058 h 4.85863 c 0.30818,0 0.56048,-0.25231 0.56048,-0.56058 v -3.7373 c 0,-0.30835 -0.25151,-0.5606 -0.56048,-0.5606 z m -3.09092,2.46662 -1.5808,1.23144 v -2.92929 z m -1.29832,-1.71916 h 3.91985 l -1.95992,1.47175 z m 1.36028,1.78532 0.59965,0.64392 0.59991,-0.64392 1.22949,1.57824 h -3.6588 z m 1.26099,-0.0659 1.58106,-1.69787 v 2.92926 z"
             id="path4353" />
          <path
             style="fill:#008000;fill-opacity:1;stroke-width:0.398986"
             inkscape:connector-curvature="0"
             d="m -658.24666,-576.2437 c -0.39903,0.39896 -0.39903,0.79796 -0.79805,0.79796 -0.39904,0 -0.79806,-0.399 -1.19677,-0.79796 -0.39903,-0.399 -0.79805,-0.79799 -0.79805,-1.19696 0,-0.39899 0.39902,-0.39899 0.79805,-0.79799 0.39871,-0.39899 -0.79805,-1.59595 -1.19709,-1.59595 -0.39902,0 -1.19707,1.19696 -1.19707,1.19696 0,0.79799 0.81998,2.41586 1.59611,3.1919 0.77581,0.776 2.39384,1.59594 3.19189,1.59594 0,0 1.19677,-0.79799 1.19677,-1.19698 0,-0.39896 -1.19677,-1.59592 -1.59579,-1.19692 z"
             id="path4355" />
          <text
             xml:space="preserve"
             style="font-size:6.03806px;line-height:1.25;font-family:'Gill Sans Ultra Bold';-inkscape-font-specification:'Gill Sans Ultra Bold, ';stroke-width:0.150952"
             x="-657.27795"
             y="-647.20715"
             id="text4367"><tspan
               sodipodi:role="line"
               id="tspan4357"
               x="-657.27795"
               y="-647.20715"
               style="font-style:normal;font-variant:normal;font-weight:normal;font-stretch:normal;font-family:Arial;-inkscape-font-specification:Arial;stroke-width:0.150952" /><tspan
               sodipodi:role="line"
               x="-657.27795"
               y="-638.74304"
               style="font-style:normal;font-variant:normal;font-weight:normal;font-stretch:normal;font-size:7.05556px;font-family:Arial;-inkscape-font-specification:Arial;text-align:end;text-anchor:end;stroke-width:0.150952"
               id="tspan4359">Web Development for</tspan><tspan
               sodipodi:role="line"
               x="-657.27795"
               y="-629.92358"
               style="font-style:normal;font-variant:normal;font-weight:normal;font-stretch:normal;font-size:7.05556px;font-family:Arial;-inkscape-font-specification:Arial;text-align:end;text-anchor:end;stroke-width:0.150952"
               id="tspan4361">Small and Medium-Sized</tspan><tspan
               sodipodi:role="line"
               x="-655.31769"
               y="-621.10419"
               style="font-style:normal;font-variant:normal;font-weight:normal;font-stretch:normal;font-size:7.05556px;font-family:Arial;-inkscape-font-specification:Arial;stroke-width:0.150952"
               id="tspan4365"><tspan
   id="tspan4363"
   style="font-style:normal;font-variant:normal;font-weight:normal;font-stretch:normal;font-size:7.05556px;font-family:Arial;-inkscape-font-specification:Arial;text-align:end;text-anchor:end;stroke-width:0.150952">Business</tspan> </tspan></text>
          <text
             xml:space="preserve"
             style="font-size:10.5833px;line-height:0;font-family:'Gill Sans Ultra Bold';-inkscape-font-specification:'Gill Sans Ultra Bold, ';stroke-width:0.264583"
             x="-667.28717"
             y="-595.73401"
             id="text4377"><tspan
               style="font-style:normal;font-variant:normal;font-weight:normal;font-stretch:normal;font-size:5.64444px;line-height:10.5833px;font-family:Arial;-inkscape-font-specification:Arial;text-align:end;text-anchor:end;stroke-width:0.264583"
               sodipodi:role="line"
               id="tspan4369"
               x="-667.28717"
               y="-595.73401">Yuri Tricys - Business Development</tspan><tspan
               style="font-style:normal;font-variant:normal;font-weight:normal;font-stretch:normal;font-size:5.64444px;line-height:10.5833px;font-family:Arial;-inkscape-font-specification:Arial;text-align:end;text-anchor:end;stroke-width:0.264583"
               sodipodi:role="line"
               id="tspan4371"
               x="-667.28717"
               y="-585.1507">  yuri@buildhello.ca </tspan><tspan
               style="font-style:normal;font-variant:normal;font-weight:normal;font-stretch:normal;font-size:5.64444px;line-height:10.5833px;font-family:Arial;-inkscape-font-specification:Arial;text-align:end;text-anchor:end;stroke-width:0.264583"
               sodipodi:role="line"
               id="tspan4373"
               x="-667.28717"
               y="-574.56738">1-604-441-9933</tspan><tspan
               sodipodi:role="line"
               x="-667.28717"
               y="-567.43524"
               style="font-style:normal;font-variant:normal;font-weight:normal;font-stretch:normal;line-height:1.25;font-family:Arial;-inkscape-font-specification:Arial;stroke-width:0.264583"
               id="tspan4375" /></text>
          <g
             style="fill:#0e0c0a;fill-opacity:1"
             transform="matrix(2.6577891,0,0,2.6577891,-880.99322,-1058.6339)"
             id="g4389">
            <path
               style="font-style:normal;font-variant:normal;font-weight:normal;font-stretch:normal;font-size:35.2778px;line-height:1em;font-family:NordiquePro-Bold;-inkscape-font-specification:'NordiquePro-Bold, Normal';font-variant-ligatures:normal;font-variant-caps:normal;font-variant-numeric:normal;font-feature-settings:normal;text-align:start;letter-spacing:0px;word-spacing:0.0079375px;writing-mode:lr-tb;text-anchor:start;fill:#0e0c0a;fill-opacity:1"
               d="m 30.968508,160.33104 v 5.77918 h 1.029201 v -2.56796 h 2.473908 v 2.56796 h 1.029199 v -5.77918 h -1.029199 v 2.18202 h -2.473908 v -2.18202 z"
               id="path4379"
               inkscape:connector-curvature="0" />
            <path
               inkscape:connector-curvature="0"
               id="path4381"
               style="font-style:normal;font-variant:normal;font-weight:normal;font-stretch:normal;font-size:35.2778px;line-height:1em;font-family:NordiquePro-Bold;-inkscape-font-specification:'NordiquePro-Bold, Normal';font-variant-ligatures:normal;font-variant-caps:normal;font-variant-numeric:normal;font-feature-settings:normal;text-align:start;letter-spacing:0px;word-spacing:0.0079375px;writing-mode:lr-tb;text-anchor:start;fill:#0e0c0a;fill-opacity:1"
               d="m 36.344772,163.06479 c -0.174165,0.31666 -0.261249,0.64916 -0.261249,1.01333 0,0.37208 0.08708,0.71249 0.269164,1.02124 0.182083,0.31667 0.427498,0.56208 0.744165,0.74416 0.308748,0.18209 0.649162,0.26917 1.029162,0.26917 0.411663,0 0.783746,-0.11083 1.12416,-0.34042 0.332499,-0.22166 0.585831,-0.52249 0.75208,-0.88666 l -1.227079,-0.008 c -0.08708,0.0712 -0.182082,0.12666 -0.284998,0.16624 -0.102916,0.0475 -0.237498,0.0633 -0.39583,0.0633 -0.2375,0 -0.435415,-0.0554 -0.593748,-0.16625 -0.158332,-0.11083 -0.261248,-0.26917 -0.308748,-0.46708 h 2.937068 c 0.02375,-0.15834 0.03167,-0.31667 0.03167,-0.49083 -0.01584,-0.39584 -0.118748,-0.74417 -0.32458,-1.045 -0.205834,-0.29291 -0.459166,-0.51458 -0.767914,-0.67291 -0.316665,-0.15833 -0.641247,-0.2375 -0.973744,-0.2375 -0.372082,0 -0.712496,0.095 -1.021246,0.285 -0.308748,0.19 -0.554163,0.43541 -0.728329,0.75208 z m 2.715402,0.58583 h -1.868323 c 0.07917,-0.19 0.205832,-0.34042 0.364165,-0.45125 0.158332,-0.11083 0.348332,-0.16625 0.569998,-0.16625 0.197914,0 0.379997,0.0633 0.554163,0.17417 0.174165,0.11083 0.300833,0.26125 0.379997,0.44333 z" />
            <path
               inkscape:connector-curvature="0"
               id="path4383"
               style="font-style:normal;font-variant:normal;font-weight:normal;font-stretch:normal;font-size:35.2778px;line-height:1em;font-family:NordiquePro-Bold;-inkscape-font-specification:'NordiquePro-Bold, Normal';font-variant-ligatures:normal;font-variant-caps:normal;font-variant-numeric:normal;font-feature-settings:normal;text-align:start;letter-spacing:0px;word-spacing:0.0079375px;writing-mode:lr-tb;text-anchor:start;fill:#0e0c0a;fill-opacity:1"
               d="m 40.829172,166.10205 h 1.029161 v -5.54164 h -1.029161 z" />
            <path
               inkscape:connector-curvature="0"
               id="path4385"
               style="font-style:normal;font-variant:normal;font-weight:normal;font-stretch:normal;font-size:35.2778px;line-height:1em;font-family:NordiquePro-Bold;-inkscape-font-specification:'NordiquePro-Bold, Normal';font-variant-ligatures:normal;font-variant-caps:normal;font-variant-numeric:normal;font-feature-settings:normal;text-align:start;letter-spacing:0px;word-spacing:0.0079375px;writing-mode:lr-tb;text-anchor:start;fill:#0e0c0a;fill-opacity:1"
               d="m 42.602373,166.10205 h 1.029161 v -5.54164 h -1.029161 z" />
            <path
               inkscape:connector-curvature="0"
               id="path4387"
               style="font-style:normal;font-variant:normal;font-weight:normal;font-stretch:normal;font-size:35.2778px;line-height:1em;font-family:NordiquePro-Bold;-inkscape-font-specification:'NordiquePro-Bold, Normal';font-variant-ligatures:normal;font-variant-caps:normal;font-variant-numeric:normal;font-feature-settings:normal;text-align:start;letter-spacing:0px;word-spacing:0.0079375px;writing-mode:lr-tb;text-anchor:start;fill:#0e0c0a;fill-opacity:1"
               d="m 47.245104,162.30479 c -0.316665,-0.18208 -0.657079,-0.27708 -1.021245,-0.27708 -0.37208,0 -0.712496,0.095 -1.029161,0.27708 -0.316665,0.18208 -0.56208,0.4275 -0.744163,0.74416 -0.182083,0.31667 -0.269164,0.65708 -0.269164,1.02125 0,0.37208 0.08708,0.7125 0.269164,1.02916 0.182083,0.31667 0.427498,0.56208 0.744163,0.74416 0.316665,0.18209 0.657081,0.26917 1.029161,0.26917 0.364166,0 0.70458,-0.0871 1.021245,-0.26917 0.316667,-0.18208 0.562082,-0.42749 0.744165,-0.74416 0.18208,-0.31666 0.277081,-0.65708 0.277081,-1.02916 0,-0.36417 -0.095,-0.70458 -0.277081,-1.02125 -0.182083,-0.31666 -0.427498,-0.56208 -0.744165,-0.74416 z m -1.741658,1.02916 c 0.189999,-0.19791 0.435415,-0.30083 0.72833,-0.30083 0.284999,0 0.530414,0.10292 0.720414,0.30083 0.189998,0.19792 0.284999,0.44333 0.284999,0.73625 0,0.30083 -0.095,0.54625 -0.284999,0.74416 -0.19,0.19792 -0.435415,0.29292 -0.720414,0.29292 -0.292915,0 -0.538331,-0.095 -0.72833,-0.29292 -0.197915,-0.19791 -0.292914,-0.44333 -0.292914,-0.74416 0,-0.29292 0.095,-0.53833 0.292914,-0.73625 z" />
          </g>
          <path
             id="path4391"
             style="font-style:normal;font-variant:normal;font-weight:normal;font-stretch:normal;font-size:35.2778px;line-height:1em;font-family:NordiquePro-Bold;-inkscape-font-specification:'NordiquePro-Bold, Normal';font-variant-ligatures:normal;font-variant-caps:normal;font-variant-numeric:normal;font-feature-settings:normal;text-align:start;letter-spacing:0px;word-spacing:0.0079375px;writing-mode:lr-tb;text-anchor:start;fill:#2c942c;fill-opacity:1;stroke-width:0.818234"
             d="m -793.58907,-645.11108 h 2.6379 v 5.33658 c 0,1.66383 -0.40582,2.90158 -1.21749,3.73357 -0.81163,0.83193 -1.90737,1.23774 -3.24657,1.23774 -1.35952,0 -2.43493,-0.40581 -3.2466,-1.23774 -0.81163,-0.83199 -1.21747,-2.06974 -1.21747,-3.73357 v -5.33658 h 2.63786 v 5.33658 c 0,0.83194 0.14188,1.44068 0.42612,1.82618 0.28419,0.38561 0.75079,0.56814 1.40009,0.56814 0.62903,0 1.09575,-0.18237 1.37981,-0.56814 0.28419,-0.3856 0.44635,-0.99424 0.44635,-1.82618 z"
             inkscape:connector-curvature="0" />
          <path
             id="path4393"
             d="m -789.28753,-645.00591 v 10.1456 h 2.63788 v -10.1456 z"
             style="font-style:normal;font-variant:normal;font-weight:normal;font-stretch:normal;font-size:35.2778px;line-height:1em;font-family:NordiquePro-Bold;-inkscape-font-specification:'NordiquePro-Bold, Normal';font-variant-ligatures:normal;font-variant-caps:normal;font-variant-numeric:normal;font-feature-settings:normal;text-align:start;letter-spacing:0px;word-spacing:0.0079375px;writing-mode:lr-tb;text-anchor:start;fill:#2c942c;fill-opacity:1;stroke-width:0.818234"
             inkscape:connector-curvature="0" />
          <path
             id="path4395"
             style="font-style:normal;font-variant:normal;font-weight:normal;font-stretch:normal;font-size:35.2778px;line-height:1em;font-family:NordiquePro-Bold;-inkscape-font-specification:'NordiquePro-Bold, Normal';font-variant-ligatures:normal;font-variant-caps:normal;font-variant-numeric:normal;font-feature-settings:normal;text-align:start;letter-spacing:0px;word-spacing:0.0079375px;writing-mode:lr-tb;text-anchor:start;fill:#0e0c0a;fill-opacity:1;stroke-width:0.818234"
             d="m -783.75336,-634.87045 h 2.63786 v -14.20382 h -2.63786 z"
             inkscape:connector-curvature="0" />
          <path
             id="path4397"
             style="font-style:normal;font-variant:normal;font-weight:normal;font-stretch:normal;font-size:35.2778px;line-height:1em;font-family:NordiquePro-Bold;-inkscape-font-specification:'NordiquePro-Bold, Normal';font-variant-ligatures:normal;font-variant-caps:normal;font-variant-numeric:normal;font-feature-settings:normal;text-align:start;letter-spacing:0px;word-spacing:0.0079375px;writing-mode:lr-tb;text-anchor:start;fill:#0e0c0a;fill-opacity:1;stroke-width:0.818234"
             d="m -769.75789,-637.34551 c 0.4667,-0.81166 0.7102,-1.68416 0.7102,-2.63786 v -9.13106 h -2.65817 v 4.66699 c -0.73049,-0.50726 -1.5827,-0.77109 -2.55665,-0.77109 -0.95372,0 -1.82621,0.24331 -2.6176,0.71021 -0.81166,0.46669 -1.44067,1.09572 -1.90733,1.90739 -0.48702,0.81162 -0.71021,1.68416 -0.71021,2.61756 0,0.9537 0.22327,1.8262 0.71021,2.63786 0.46666,0.81162 1.09567,1.44067 1.90733,1.90738 0.79139,0.46671 1.66388,0.68988 2.6176,0.68988 0.93341,0 1.8059,-0.22327 2.61756,-0.68988 0.79133,-0.46671 1.42036,-1.09576 1.88706,-1.90738 z m -6.37143,-4.52495 c 0.48698,-0.50727 1.09573,-0.77104 1.84648,-0.77104 0.73048,0 1.35952,0.26377 1.86677,0.77104 0.48702,0.50729 0.75079,1.13626 0.75079,1.88709 0,0.77104 -0.26377,1.40013 -0.75079,1.90734 -0.50725,0.50731 -1.13629,0.7508 -1.86677,0.7508 -0.75075,0 -1.3595,-0.2433 -1.84648,-0.7508 -0.48699,-0.50721 -0.73045,-1.1363 -0.73045,-1.90734 0,-0.75083 0.24329,-1.3798 0.73045,-1.88709 z"
             inkscape:connector-curvature="0" />
          <g
             transform="matrix(0.57518346,0,0,0.57518346,-812.29621,-691.21545)"
             id="g4401"
             style="font-style:normal;font-variant:normal;font-weight:normal;font-stretch:normal;font-size:35.2778px;line-height:1em;font-family:NordiquePro-Bold;-inkscape-font-specification:'NordiquePro-Bold, Normal';font-variant-ligatures:normal;font-variant-caps:normal;font-variant-numeric:normal;font-feature-settings:normal;text-align:start;letter-spacing:0px;word-spacing:0.0079375px;writing-mode:lr-tb;text-anchor:start;fill:#0e0c0a;fill-opacity:1;stroke-width:0.319235">
            <path
               inkscape:connector-curvature="0"
               id="path4399"
               d="M 0.06304166,72.28233 V 97.999624 H 9.2960738 c 2.8823972,0 5.1044742,-0.625699 6.6662562,-1.877405 1.561756,-1.251714 2.342489,-3.02596 2.342489,-5.322672 0,-1.745503 -0.476224,-3.198543 -1.429385,-4.358391 -0.941652,-1.171327 -2.268009,-1.940398 -3.979069,-2.307869 1.423961,-0.229671 2.503091,-0.809778 3.23805,-1.739945 0.734933,-0.930176 1.102757,-2.18156 1.102757,-3.75481 0,-2.032597 -0.717894,-3.600138 -2.153338,-4.702556 -1.43547,-1.102426 -3.47972,-1.653646 -6.1324593,-1.653646 z m 4.48963514,3.427699 h 4.1966356 c 1.3848556,0 2.4139786,0.262003 3.0876876,0.785998 0.683048,0.523994 1.024731,1.314603 1.024731,2.371949 0,1.066701 -0.341683,1.861906 -1.024731,2.3859 -0.673709,0.514638 -1.702832,0.772046 -3.0876876,0.772046 H 4.5526768 Z m 0.015002,10.26759 H 9.483637 c 1.648883,0 2.86811,0.338719 3.65715,1.016475 0.799148,0.667643 1.198377,1.7097 1.198377,3.125908 0,1.406096 -0.399229,2.453021 -1.198377,3.140893 -0.78904,0.677759 -2.008267,1.016476 -3.65715,1.016476 H 4.5676787 Z"
               style="fill:#0e0c0a;fill-opacity:1;stroke-width:0.319235" />
          </g>
          <path
             style="fill:#2c942c;fill-opacity:1;stroke:#c2185b;stroke-width:0.177427;stroke-miterlimit:4;stroke-dasharray:none;stroke-opacity:0"
             d="m -788.05629,-650.39297 c -0.48948,0 -0.89938,0.17177 -1.21691,0.50245 -0.33065,0.33068 -0.48954,0.74104 -0.48954,1.23047 0,0.5027 0.15889,0.91289 0.48954,1.24366 0.31753,0.33068 0.72743,0.48927 1.21691,0.48927 0.47622,0 0.88653,-0.15867 1.20404,-0.48927 0.31751,-0.33077 0.47605,-0.74096 0.47605,-1.24366 0,-0.48943 -0.15858,-0.89979 -0.47605,-1.23047 -0.31751,-0.33068 -0.72782,-0.50245 -1.20404,-0.50245 z"
             id="path4403"
             inkscape:connector-curvature="0"
             inkscape:transform-center-x="3.1290729"
             inkscape:transform-center-y="-4.694763" />
          <text
             xml:space="preserve"
             style="font-style:normal;font-variant:normal;font-weight:normal;font-stretch:normal;font-size:7.27338px;line-height:1em;font-family:Arial;-inkscape-font-specification:'Arial, Normal';font-variant-ligatures:normal;font-variant-caps:normal;font-variant-numeric:normal;font-feature-settings:normal;text-align:start;letter-spacing:0px;word-spacing:0.0163651px;writing-mode:lr-tb;text-anchor:start;display:inline;fill:#0e0c0a;fill-opacity:1;stroke:none;stroke-width:0.545504"
             x="-737.38336"
             y="-502.42914"
             id="text4407"><tspan
               sodipodi:role="line"
               id="tspan4405"
               x="-737.38336"
               y="-502.42914"
               style="font-style:normal;font-variant:normal;font-weight:normal;font-stretch:normal;font-size:7.27338px;font-family:Arial;-inkscape-font-specification:'Arial, Normal';font-variant-ligatures:normal;font-variant-caps:normal;font-variant-numeric:normal;font-feature-settings:normal;text-align:start;writing-mode:lr-tb;text-anchor:start;fill:#0e0c0a;fill-opacity:1;stroke-width:0.545504">Websites</tspan></text>
          <text
             id="text4411"
             y="-486.61697"
             x="-683.5144"
             style="font-style:normal;font-variant:normal;font-weight:normal;font-stretch:normal;font-size:11.4378px;line-height:1em;font-family:Arial;-inkscape-font-specification:'Arial, Normal';font-variant-ligatures:normal;font-variant-caps:normal;font-variant-numeric:normal;font-feature-settings:normal;text-align:start;letter-spacing:0px;word-spacing:0.0160845px;writing-mode:lr-tb;text-anchor:start;display:inline;fill:#0e0c0a;fill-opacity:1;stroke:none;stroke-width:0.536149"
             xml:space="preserve"
             inkscape:transform-center-x="95.191905"
             inkscape:transform-center-y="-16.925183"><tspan
               style="font-style:normal;font-variant:normal;font-weight:normal;font-stretch:normal;font-size:7.14864px;font-family:Arial;-inkscape-font-specification:'Arial, Normal';font-variant-ligatures:normal;font-variant-caps:normal;font-variant-numeric:normal;font-feature-settings:normal;text-align:start;writing-mode:lr-tb;text-anchor:start;fill:#0e0c0a;fill-opacity:1;stroke-width:0.536149"
               y="-486.61697"
               x="-683.5144"
               id="tspan4409"
               sodipodi:role="line">Content</tspan></text>
          <text
             id="text4415"
             y="-486.63092"
             x="-800.23029"
             style="font-style:normal;font-variant:normal;font-weight:normal;font-stretch:normal;font-size:11.6374px;line-height:1em;font-family:Arial;-inkscape-font-specification:'Arial, Normal';font-variant-ligatures:normal;font-variant-caps:normal;font-variant-numeric:normal;font-feature-settings:normal;text-align:start;letter-spacing:0px;word-spacing:0.0163651px;writing-mode:lr-tb;text-anchor:start;display:inline;fill:#0e0c0a;fill-opacity:1;stroke:none;stroke-width:0.545504"
             xml:space="preserve"><tspan
               style="font-style:normal;font-variant:normal;font-weight:normal;font-stretch:normal;font-size:7.27338px;font-family:Arial;-inkscape-font-specification:'Arial, Normal';font-variant-ligatures:normal;font-variant-caps:normal;font-variant-numeric:normal;font-feature-settings:normal;text-align:start;writing-mode:lr-tb;text-anchor:start;fill:#0e0c0a;fill-opacity:1;stroke-width:0.545504"
               y="-486.63092"
               x="-800.23029"
               id="tspan4413"
               sodipodi:role="line">Maintenance</tspan></text>
          <path
             id="path4417"
             d="m -814.32784,-504.77929 c 0,1.49771 0.8936,2.79202 2.18986,3.40521 l -1.85318,-4.94494 c -0.21559,0.47069 -0.33668,0.99135 -0.33668,1.53973 z m 6.50733,-0.19107 c 0,-0.46757 -0.17226,-0.79127 -0.32049,-1.04381 -0.19677,-0.31209 -0.38137,-0.57557 -0.38137,-0.88773 0,-0.34766 0.27064,-0.67146 0.65269,-0.67146 0.0175,0 0.0335,10e-4 0.0505,10e-4 -0.69082,-0.61704 -1.61225,-0.99329 -2.62362,-0.99329 -1.35716,0 -2.55118,0.67857 -3.24591,1.70557 0.0916,0.002 0.17741,0.005 0.24992,0.005 0.406,0 1.03533,-0.0484 1.03533,-0.0484 0.20923,-0.0116 0.23374,0.28748 0.0243,0.31209 0,0 -0.21042,0.024 -0.44478,0.0355 l 1.4147,4.09867 0.85023,-2.48314 -0.6054,-1.61553 c -0.20924,-0.0116 -0.4073,-0.0355 -0.4073,-0.0355 -0.20922,-0.0116 -0.18457,-0.32376 0.0243,-0.31212 0,0 0.64169,0.0484 1.02307,0.0484 0.40594,0 1.03533,-0.0484 1.03533,-0.0484 0.20926,-0.0116 0.23445,0.28751 0.0241,0.31212 0,0 -0.21122,0.024 -0.44486,0.0355 l 1.4038,4.0676 0.38784,-1.26068 c 0.16763,-0.52383 0.29591,-0.89938 0.29591,-1.22314 z m -2.55433,0.52181 -1.1655,3.29905 c 0.34835,0.10027 0.71612,0.15419 1.09749,0.15419 0.4526,0 0.88644,-0.0755 1.28981,-0.21439 -0.009,-0.0175 -0.0197,-0.0335 -0.0283,-0.0523 z m 3.3411,-2.14637 c 0.0175,0.12044 0.0261,0.24992 0.0261,0.38908 0,0.38401 -0.0737,0.8152 -0.29526,1.35522 l -1.1869,3.34109 c 1.15514,-0.65591 1.93152,-1.87448 1.93152,-3.27053 0,-0.65787 -0.17302,-1.27614 -0.47593,-1.81486 z m -3.40911,-3.36447 c -2.86064,0 -5.18001,2.31937 -5.18001,5.18001 0,2.86062 2.31937,5.17999 5.18001,5.17999 2.86062,0 5.17999,-2.31937 5.17999,-5.17999 0,-2.86064 -2.31937,-5.18001 -5.17999,-5.18001 z m 0,9.71249 c -2.50321,0 -4.5325,-2.02928 -4.5325,-4.53248 0,-2.50321 2.02929,-4.53249 4.5325,-4.53249 2.5032,0 4.53248,2.02928 4.53248,4.53249 0,2.5032 -2.02928,4.53248 -4.53248,4.53248 z"
             inkscape:connector-curvature="0"
             style="display:inline;fill:#2c942c;fill-opacity:1;stroke-width:0.647498" />
          <text
             xml:space="preserve"
             style="font-style:normal;font-variant:normal;font-weight:normal;font-stretch:normal;font-size:7.27338px;line-height:1em;font-family:Arial;-inkscape-font-specification:'Arial, Normal';font-variant-ligatures:normal;font-variant-caps:normal;font-variant-numeric:normal;font-feature-settings:normal;text-align:start;letter-spacing:0px;word-spacing:0.0163651px;writing-mode:lr-tb;text-anchor:start;display:inline;fill:#0e0c0a;fill-opacity:1;stroke:none;stroke-width:0.545504"
             x="-800.61658"
             y="-502.03824"
             id="text4423"><tspan
               sodipodi:role="line"
               id="tspan4419"
               x="-800.61658"
               y="-502.03824"
               style="font-style:normal;font-variant:normal;font-weight:normal;font-stretch:normal;font-size:7.27338px;font-family:Arial;-inkscape-font-specification:'Arial, Normal';font-variant-ligatures:normal;font-variant-caps:normal;font-variant-numeric:normal;font-feature-settings:normal;text-align:start;writing-mode:lr-tb;text-anchor:start;fill:#0e0c0a;fill-opacity:1;stroke-width:0.545504">Wordpress</tspan><tspan
               sodipodi:role="line"
               x="-800.61658"
               y="-494.76486"
               style="font-style:normal;font-variant:normal;font-weight:normal;font-stretch:normal;font-size:7.27338px;font-family:Arial;-inkscape-font-specification:'Arial, Normal';font-variant-ligatures:normal;font-variant-caps:normal;font-variant-numeric:normal;font-feature-settings:normal;text-align:start;writing-mode:lr-tb;text-anchor:start;fill:#0e0c0a;fill-opacity:1;stroke-width:0.545504"
               id="tspan4421" /></text>
          <path
             d="m -805.64212,-487.32344 -2.05819,-2.05819 c -0.40602,-0.40602 -1.0124,-0.48511 -1.50103,-0.24432 l -1.87364,-1.87364 v -1.09149 l -2.24978,-1.68734 -1.12489,1.12489 1.68733,2.24978 h 1.0915 l 1.87364,1.87365 c -0.23904,0.48862 -0.1617,1.09501 0.24431,1.50102 l 2.0582,2.0582 c 0.25662,0.25661 0.67142,0.25661 0.92628,0 l 0.92627,-0.92628 c 0.25486,-0.25661 0.25486,-0.67142 0,-0.92628 z m -2.97744,-3.00029 c 0.49741,0 0.96495,0.19334 1.31647,0.54487 l 0.34099,0.34098 c 0.2777,-0.12127 0.54135,-0.29001 0.76985,-0.5185 0.65208,-0.65209 0.87354,-1.56957 0.66614,-2.4027 -0.0387,-0.15818 -0.23728,-0.21267 -0.35329,-0.0967 l -1.30768,1.30769 -1.19344,-0.19861 -0.19861,-1.19344 1.30768,-1.30769 c 0.11601,-0.116 0.0598,-0.31462 -0.10018,-0.35504 -0.83313,-0.20564 -1.75061,0.0158 -2.40094,0.66614 -0.50093,0.50093 -0.73645,1.16181 -0.72415,1.82092 l 1.44302,1.44302 c 0.14237,-0.0334 0.29002,-0.051 0.43414,-0.051 z m -1.82619,1.44127 -0.99658,-0.99659 -2.67864,2.68041 c -0.43942,0.43941 -0.43942,1.15125 0,1.59066 0.4394,0.43941 1.15125,0.43941 1.59066,0 l 2.17244,-2.17244 c -0.13358,-0.34977 -0.174,-0.73118 -0.0879,-1.10204 z m -2.87901,2.9001 c -0.23201,0 -0.42184,-0.18982 -0.42184,-0.42183 0,-0.23377 0.18807,-0.42183 0.42184,-0.42183 0.23376,0 0.42183,0.18806 0.42183,0.42183 0,0.23201 -0.18807,0.42183 -0.42183,0.42183 z"
             id="path4425"
             style="fill:#2c942c;stroke-width:0.0175764" />
          <path
             d="m -689.09976,-493.88033 v 0.64286 a 0.32142839,0.32142839 0 0 1 -0.32143,0.32143 h -0.96429 v 7.39284 a 0.32142839,0.32142839 0 0 1 -0.32143,0.32144 h -0.64285 a 0.32142839,0.32142839 0 0 1 -0.32143,-0.32144 v -7.39284 h -0.64286 v 7.39284 a 0.32142839,0.32142839 0 0 1 -0.32144,0.32144 h -0.64284 a 0.32142839,0.32142839 0 0 1 -0.32143,-0.32144 v -2.24999 h -0.64286 a 3.214285,3.214285 0 0 1 0,-6.42857 h 4.82143 a 0.32142839,0.32142839 0 0 1 0.32143,0.32143 z"
             id="path4427"
             style="fill:#2c942c;stroke-width:0.0200891" />
          <path
             d="m -694.23348,-509.28434 c -1.74729,0.34102 -3.15532,1.74553 -3.49986,3.48755 -0.6504,3.28716 2.31508,5.73759 4.54929,5.3913 0.72423,-0.1125 1.07932,-0.95978 0.74709,-1.61194 -0.40606,-0.79806 0.17402,-1.72972 1.07052,-1.72972 h 1.401 c 0.62931,0 1.13908,-0.52032 1.14084,-1.14787 -0.009,-2.77035 -2.52953,-4.95008 -5.40888,-4.38932 z m -1.90374,5.53719 c -0.31113,0 -0.56251,-0.25137 -0.56251,-0.5625 0,-0.31114 0.25138,-0.56252 0.56251,-0.56252 0.31114,0 0.56251,0.25138 0.56251,0.56252 0,0.31113 -0.25137,0.5625 -0.56251,0.5625 z m 0.56251,-2.25003 c -0.31114,0 -0.56251,-0.25137 -0.56251,-0.56251 0,-0.31114 0.25137,-0.56251 0.56251,-0.56251 0.31114,0 0.56251,0.25137 0.56251,0.56251 0,0.31114 -0.25137,0.56251 -0.56251,0.56251 z m 2.25004,-1.12502 c -0.31114,0 -0.56251,-0.25137 -0.56251,-0.56251 0,-0.31114 0.25137,-0.56251 0.56251,-0.56251 0.31114,0 0.56251,0.25137 0.56251,0.56251 0,0.31114 -0.25137,0.56251 -0.56251,0.56251 z m 2.25003,1.12502 c -0.31113,0 -0.56251,-0.25137 -0.56251,-0.56251 0,-0.31114 0.25138,-0.56251 0.56251,-0.56251 0.31114,0 0.56251,0.25137 0.56251,0.56251 0,0.31114 -0.25137,0.56251 -0.56251,0.56251 z"
             id="path4429"
             style="fill:#2c942c;stroke-width:0.0175783" />
          <path
             d="m -749.58458,-504.75739 c 0.10986,0.10986 0.28793,0.10986 0.39779,0 l 0.19881,-0.19881 c 0.10986,-0.10987 0.10986,-0.28793 0,-0.39779 l -0.62789,-0.62772 0.62771,-0.62789 c 0.10987,-0.10986 0.10987,-0.28793 0,-0.39779 l -0.1988,-0.19881 c -0.10987,-0.10987 -0.28793,-0.10987 -0.3978,0 l -1.0255,1.02551 c -0.10987,0.10986 -0.10987,0.28793 0,0.39779 z m 1.68768,-0.19864 0.1988,0.19881 c 0.10987,0.10987 0.28793,0.10987 0.3978,0 l 1.0255,-1.02551 c 0.10987,-0.10986 0.10987,-0.28793 0,-0.39779 l -1.0255,-1.02551 c -0.10987,-0.10986 -0.28793,-0.10986 -0.3978,0 l -0.1988,0.19881 c -0.10987,0.10987 -0.10987,0.28793 0,0.39779 l 0.62771,0.62772 -0.62771,0.62789 c -0.10987,0.10986 -0.10987,0.28793 0,0.39779 z m 4.79812,2.91182 h -4.26199 c -0.013,0.34822 -0.25858,0.5625 -0.57551,0.5625 h -1.06875 c -0.32854,0 -0.58043,-0.30709 -0.57604,-0.5625 h -4.20521 c -0.15469,0 -0.28125,0.12656 -0.28125,0.28125 v 0.28125 c 0,0.61875 0.50625,1.125 1.125,1.125 h 9 c 0.61875,0 1.125,-0.50625 1.125,-1.125 v -0.28125 c 0,-0.15469 -0.12656,-0.28125 -0.28125,-0.28125 z m -0.84375,-6.46875 c 0,-0.46406 -0.37969,-0.84375 -0.84375,-0.84375 h -7.3125 c -0.46406,0 -0.84375,0.37969 -0.84375,0.84375 v 5.90625 h 9 z m -1.125,4.78125 h -6.75 v -4.5 h 6.75 z"
             id="path4431"
             style="fill:#2c942c;stroke-width:0.0175781" />
          <path
             d="m -743.22991,-489.61031 -0.91103,-3.65036 c -0.11873,-0.47611 -0.43372,-0.88492 -0.86383,-1.12117 -0.4307,-0.23564 -0.94358,-0.28345 -1.41004,-0.12716 l -0.30636,0.10205 c -0.16854,0.0561 -0.25955,0.23826 -0.2033,0.4066 l 0.10165,0.30495 c 0.0561,0.16835 0.23806,0.25935 0.4064,0.2033 l 0.26478,-0.0882 c 0.21836,-0.0727 0.46204,-0.0717 0.66615,0.0347 0.20671,0.10787 0.35296,0.29249 0.40921,0.51869 l 0.77262,3.09009 c -0.44577,-0.13681 -1.00023,-0.25031 -1.63122,-0.25031 -0.6985,0 -1.48618,0.14102 -2.30722,0.53718 h -1.47011 c -0.82104,-0.39656 -1.60872,-0.53738 -2.30742,-0.53738 -0.63119,0 -1.18565,0.1135 -1.63142,0.2503 l 0.77262,-3.09028 c 0.0561,-0.226 0.2027,-0.41082 0.40941,-0.51849 0.20411,-0.10647 0.44759,-0.10748 0.66595,-0.0347 l 0.26457,0.0882 c 0.16835,0.056 0.35035,-0.035 0.4064,-0.2033 l 0.10165,-0.30495 c 0.0562,-0.16835 -0.0347,-0.35055 -0.2033,-0.4066 l -0.30635,-0.10205 c -0.46647,-0.15629 -0.97934,-0.10868 -1.41005,0.12716 -0.4301,0.23645 -0.7451,0.64506 -0.86382,1.12097 l -0.91084,3.65076 a 1.2900723,1.2900723 0 0 0 -0.0382,0.31118 v 1.41125 c 0,1.26359 1.03619,2.28793 2.31425,2.28793 h 0.7457 c 1.21096,0 2.21722,-0.92289 2.30782,-2.11678 l 0.0589,-0.77603 h 0.71818 l 0.0589,0.77603 c 0.0904,1.19389 1.09666,2.11678 2.30762,2.11678 h 0.7457 c 1.27806,0 2.31425,-1.02434 2.31425,-2.28773 v -1.41125 c 0,-0.10507 -0.0128,-0.20953 -0.0382,-0.31138 z m -7.44738,1.79635 c -0.0396,0.52051 -0.49016,0.92832 -1.02573,0.92832 h -0.74571 c -0.56711,0 -1.02855,-0.4496 -1.02855,-1.00224 v -0.75414 c 0.36401,-0.13038 0.87226,-0.25955 1.45805,-0.25955 0.47933,0 0.94941,0.087 1.40483,0.25955 z m 6.19986,-0.0737 c 0,0.55265 -0.46144,1.00204 -1.02856,1.00204 h -0.7457 c -0.53577,0 -0.98636,-0.40781 -1.02574,-0.92832 l -0.0629,-0.82806 c 0.45542,-0.17257 0.9257,-0.25955 1.40522,-0.25955 0.585,0 1.09344,0.12937 1.45746,0.25975 v 0.75414 z"
             id="path4433"
             style="fill:#2c942c;stroke-width:0.0200889" />
          <text
             xml:space="preserve"
             style="font-style:normal;font-variant:normal;font-weight:normal;font-stretch:normal;font-size:7.27338px;line-height:1em;font-family:Arial;-inkscape-font-specification:'Arial, Normal';font-variant-ligatures:normal;font-variant-caps:normal;font-variant-numeric:normal;font-feature-settings:normal;text-align:start;letter-spacing:0px;word-spacing:0.0163651px;writing-mode:lr-tb;text-anchor:start;display:inline;fill:#0e0c0a;fill-opacity:1;stroke:none;stroke-width:0.545504"
             x="-683.09784"
             y="-502.05222"
             id="text4439"><tspan
               sodipodi:role="line"
               id="tspan4435"
               x="-683.09784"
               y="-502.05222"
               style="font-style:normal;font-variant:normal;font-weight:normal;font-stretch:normal;font-size:7.27338px;font-family:Arial;-inkscape-font-specification:'Arial, Normal';font-variant-ligatures:normal;font-variant-caps:normal;font-variant-numeric:normal;font-feature-settings:normal;text-align:start;writing-mode:lr-tb;text-anchor:start;fill:#0e0c0a;fill-opacity:1;stroke-width:0.545504">Design</tspan><tspan
               sodipodi:role="line"
               x="-683.09784"
               y="-494.77884"
               style="font-style:normal;font-variant:normal;font-weight:normal;font-stretch:normal;font-size:7.27338px;font-family:Arial;-inkscape-font-specification:'Arial, Normal';font-variant-ligatures:normal;font-variant-caps:normal;font-variant-numeric:normal;font-feature-settings:normal;text-align:start;writing-mode:lr-tb;text-anchor:start;fill:#0e0c0a;fill-opacity:1;stroke-width:0.545504"
               id="tspan4437" /></text>
          <text
             xml:space="preserve"
             style="font-style:normal;font-variant:normal;font-weight:normal;font-stretch:normal;font-size:7.27338px;line-height:1em;font-family:Arial;-inkscape-font-specification:'Arial, Normal';font-variant-ligatures:normal;font-variant-caps:normal;font-variant-numeric:normal;font-feature-settings:normal;text-align:start;letter-spacing:0px;word-spacing:0.0163651px;writing-mode:lr-tb;text-anchor:start;display:inline;fill:#0e0c0a;fill-opacity:1;stroke:none;stroke-width:0.545504"
             x="-738.19409"
             y="-486.87149"
             id="text4445"><tspan
               sodipodi:role="line"
               id="tspan4441"
               x="-738.19409"
               y="-486.87149"
               style="font-style:normal;font-variant:normal;font-weight:normal;font-stretch:normal;font-size:7.27338px;font-family:Arial;-inkscape-font-specification:'Arial, Normal';font-variant-ligatures:normal;font-variant-caps:normal;font-variant-numeric:normal;font-feature-settings:normal;text-align:start;writing-mode:lr-tb;text-anchor:start;fill:#0e0c0a;fill-opacity:1;stroke-width:0.545504">Refactoring</tspan><tspan
               sodipodi:role="line"
               x="-738.19409"
               y="-479.59811"
               style="font-style:normal;font-variant:normal;font-weight:normal;font-stretch:normal;font-size:7.27338px;font-family:Arial;-inkscape-font-specification:'Arial, Normal';font-variant-ligatures:normal;font-variant-caps:normal;font-variant-numeric:normal;font-feature-settings:normal;text-align:start;writing-mode:lr-tb;text-anchor:start;fill:#0e0c0a;fill-opacity:1;stroke-width:0.545504"
               id="tspan4443" /></text>
        </g>
      </g>
    </g>
  </g>
</svg>
