<?xml version="1.0" standalone="no"?>
<!DOCTYPE svg PUBLIC "-//W3C//DTD SVG 20010904//EN"
 "http://www.w3.org/TR/2001/REC-SVG-20010904/DTD/svg10.dtd">
<svg version="1.0" xmlns="http://www.w3.org/2000/svg"
 width="801.000000pt" height="801.000000pt" viewBox="0 0 801.000000 801.000000"
 preserveAspectRatio="xMidYMid meet">
<metadata>
Created by potrace 1.11, written by Peter Selinger 2001-2013
</metadata>
<g transform="translate(0.000000,801.000000) scale(0.100000,-0.100000)"
fill="#000000" stroke="none">
<path d="M450 3870 l0 -1610 1233 1 c705 0 1260 4 1297 10 298 43 487 166 601
391 16 32 29 59 28 60 0 2 2 10 5 18 19 56 37 136 46 205 10 76 13 275 5 340
-20 167 -84 325 -170 418 -62 66 -168 138 -238 161 -14 5 4 18 70 50 235 118
343 332 343 686 2 437 -165 715 -491 824 -165 55 -152 55 -1491 56 l-1238 0 0
-1610z m2575 1291 c181 -60 282 -167 332 -351 24 -91 24 -330 -1 -418 -56
-207 -184 -328 -389 -369 -18 -3 -525 -8 -1128 -10 l-1096 -4 0 591 0 591
1106 -3 1106 -3 70 -24z m-57 -1455 c204 -47 324 -153 380 -336 20 -62 24 -93
27 -210 9 -322 -103 -502 -365 -587 -51 -16 -134 -18 -1161 -21 l-1106 -3 0
586 0 586 1096 -4 c603 -1 1111 -6 1129 -11z"/>
<path d="M3970 3870 l0 -1610 144 0 c141 0 144 0 147 23 2 12 4 473 3 1025
l-1 1003 1106 -4 c980 -2 1112 -5 1158 -19 92 -28 167 -71 224 -128 82 -81
121 -172 143 -335 3 -16 5 -375 5 -797 l1 -768 145 0 145 0 1 93 c3 527 0
1479 -6 1529 -9 81 -10 85 -34 173 -90 327 -316 501 -701 539 -30 3 -535 6
-1121 6 l-1066 0 1 428 c1 235 0 433 -2 440 -3 9 -42 12 -148 12 l-144 0 0
-1610z"/>
</g>
</svg>
